Orbitron-Regular.ufo
<glyph name="exclam" format="2">
  <advance width="178.0"/>
  <unicode hex="0021"/>
  <outline>
    <contour>
      <point x="130.0" y="0.0" type="line"/>
      <point x="130.0" y="82.0" type="line"/>
      <point x="48.0" y="82.0" type="line"/>
      <point x="48.0" y="0.0" type="line"/>
    </contour>
    <contour>
      <point x="48.0" y="203.0" type="line"/>
      <point x="130.0" y="203.0" type="line"/>
      <point x="130.0" y="720.0" type="line"/>
      <point x="48.0" y="720.0" type="line"/>
    </contour>
  </outline>
</glyph>
<glyph name="quotedbl" format="2">
  <advance width="372.0"/>
  <unicode hex="0022"/>
  <outline>
    <contour>
      <point x="141.0" y="720.0" type="line"/>
      <point x="59.0" y="720.0" type="line"/>
      <point x="59.0" y="580.0" type="line"/>
      <point x="141.0" y="580.0" type="line"/>
    </contour>
    <contour>
      <point x="296.0" y="720.0" type="line"/>
      <point x="214.0" y="720.0" type="line"/>
      <point x="214.0" y="580.0" type="line"/>
      <point x="296.0" y="580.0" type="line"/>
    </contour>
  </outline>
</glyph>
<glyph name="numbersign" format="2">
  <advance width="797.0"/>
  <unicode hex="0023"/>
  <outline>
    <contour>
      <point x="773.0" y="555.0" type="line"/>
      <point x="677.0" y="555.0" type="line"/>
      <point x="734.0" y="719.0" type="line"/>
      <point x="653.0" y="719.0" type="line"/>
      <point x="597.0" y="555.0" type="line"/>
      <point x="336.0" y="555.0" type="line"/>
      <point x="393.0" y="719.0" type="line"/>
      <point x="312.0" y="719.0" type="line"/>
      <point x="256.0" y="555.0" type="line"/>
      <point x="64.0" y="555.0" type="line"/>
      <point x="64.0" y="473.0" type="line"/>
      <point x="230.0" y="473.0" type="line"/>
      <point x="159.0" y="253.0" type="line"/>
      <point x="32.0" y="253.0" type="line"/>
      <point x="32.0" y="171.0" type="line"/>
      <point x="133.0" y="171.0" type="line"/>
      <point x="79.0" y="0.0" type="line"/>
      <point x="161.0" y="0.0" type="line"/>
      <point x="214.0" y="171.0" type="line"/>
      <point x="474.0" y="171.0" type="line"/>
      <point x="420.0" y="0.0" type="line"/>
      <point x="502.0" y="0.0" type="line"/>
      <point x="555.0" y="171.0" type="line"/>
      <point x="740.0" y="171.0" type="line"/>
      <point x="740.0" y="253.0" type="line"/>
      <point x="581.0" y="253.0" type="line"/>
      <point x="652.0" y="473.0" type="line"/>
      <point x="773.0" y="473.0" type="line"/>
    </contour>
    <contour>
      <point x="241.0" y="253.0" type="line"/>
      <point x="311.0" y="473.0" type="line"/>
      <point x="571.0" y="473.0" type="line"/>
      <point x="500.0" y="253.0" type="line"/>
    </contour>
  </outline>
</glyph>
<glyph name="dollar" format="2">
  <advance width="822.0"/>
  <unicode hex="0024"/>
  <outline>
    <contour>
      <point x="373.0" y="-135.0" type="line"/>
      <point x="446.0" y="-135.0" type="line"/>
      <point x="446.0" y="831.0" type="line"/>
      <point x="373.0" y="831.0" type="line"/>
    </contour>
    <component base="S"/>
  </outline>
</glyph>
<glyph name="percent" format="2">
  <advance width="966.0"/>
  <unicode hex="0025"/>
  <outline>
    <contour>
      <point x="137.0" y="0.0" type="line"/>
      <point x="154.0" y="15.0" type="line"/>
      <point x="865.0" y="614.0" type="line"/>
      <point x="865.0" y="721.0" type="line"/>
      <point x="853.0" y="711.0" type="line"/>
      <point x="137.0" y="108.0" type="line"/>
    </contour>
    <contour>
      <point x="170.0" y="393.0" type="qcurve" smooth="yes"/>
      <point x="264.0" y="393.0" type="line" smooth="yes"/>
      <point x="314.746" y="393.0"/>
      <point x="386.0" y="464.0"/>
      <point x="386.0" y="514.0" type="qcurve" smooth="yes"/>
      <point x="386.0" y="598.0" type="line" smooth="yes"/>
      <point x="386.0" y="648.746"/>
      <point x="314.746" y="720.0"/>
      <point x="264.0" y="720.0" type="qcurve" smooth="yes"/>
      <point x="170.0" y="720.0" type="line" smooth="yes"/>
      <point x="119.254" y="720.0"/>
      <point x="48.0" y="648.746"/>
      <point x="48.0" y="598.0" type="qcurve" smooth="yes"/>
      <point x="48.0" y="514.0" type="line" smooth="yes"/>
      <point x="48.0" y="464.0"/>
      <point x="119.254" y="393.0"/>
    </contour>
    <contour>
      <point x="148.0" y="454.0" type="line" smooth="yes"/>
      <point x="109.0" y="454.0"/>
      <point x="109.0" y="454.0"/>
      <point x="109.0" y="493.0" type="qcurve" smooth="yes"/>
      <point x="109.0" y="619.0" type="line" smooth="yes"/>
      <point x="109.0" y="658.0"/>
      <point x="109.0" y="658.0"/>
      <point x="148.0" y="658.0" type="qcurve" smooth="yes"/>
      <point x="286.0" y="658.0" type="line" smooth="yes"/>
      <point x="325.0" y="658.0"/>
      <point x="325.0" y="658.0"/>
      <point x="325.0" y="619.0" type="qcurve" smooth="yes"/>
      <point x="325.0" y="493.0" type="line" smooth="yes"/>
      <point x="325.0" y="454.0"/>
      <point x="301.672" y="454.0"/>
      <point x="286.0" y="454.0" type="qcurve" smooth="yes"/>
    </contour>
    <contour>
      <point x="716.0" y="-1.0" type="qcurve" smooth="yes"/>
      <point x="811.0" y="-1.0" type="line" smooth="yes"/>
      <point x="861.0" y="-1.0"/>
      <point x="932.0" y="70.0"/>
      <point x="932.0" y="120.0" type="qcurve" smooth="yes"/>
      <point x="932.0" y="205.0" type="line" smooth="yes"/>
      <point x="932.0" y="255.0"/>
      <point x="861.0" y="326.0"/>
      <point x="811.0" y="326.0" type="qcurve" smooth="yes"/>
      <point x="716.0" y="326.0" type="line" smooth="yes"/>
      <point x="665.254" y="326.0"/>
      <point x="595.0" y="255.0"/>
      <point x="595.0" y="205.0" type="qcurve" smooth="yes"/>
      <point x="595.0" y="120.0" type="line" smooth="yes"/>
      <point x="595.0" y="70.0"/>
      <point x="665.254" y="-1.0"/>
    </contour>
    <contour>
      <point x="695.0" y="60.0" type="line" smooth="yes"/>
      <point x="656.0" y="60.0"/>
      <point x="656.0" y="60.0"/>
      <point x="656.0" y="99.0" type="qcurve" smooth="yes"/>
      <point x="656.0" y="226.0" type="line" smooth="yes"/>
      <point x="656.0" y="265.0"/>
      <point x="656.0" y="265.0"/>
      <point x="695.0" y="265.0" type="qcurve" smooth="yes"/>
      <point x="832.0" y="265.0" type="line" smooth="yes"/>
      <point x="871.0" y="265.0"/>
      <point x="871.0" y="265.0"/>
      <point x="871.0" y="226.0" type="qcurve" smooth="yes"/>
      <point x="871.0" y="99.0" type="line" smooth="yes"/>
      <point x="871.0" y="60.0"/>
      <point x="871.0" y="60.0"/>
      <point x="832.0" y="60.0" type="qcurve" smooth="yes"/>
    </contour>
  </outline>
</glyph>
<glyph name="ampersand" format="2">
  <advance width="938.0"/>
  <unicode hex="0026"/>
  <outline>
    <contour>
      <point x="174.0" y="0.0" type="qcurve" smooth="yes"/>
      <point x="659.0" y="0.0" type="line" smooth="yes"/>
      <point x="697.06" y="0.0"/>
      <point x="760.582" y="51.955"/>
      <point x="777.0" y="93.0" type="qcurve"/>
      <point x="914.0" y="16.0" type="line"/>
      <point x="914.0" y="88.0" type="line"/>
      <point x="780.0" y="167.0" type="line"/>
      <point x="780.0" y="333.0" type="line"/>
      <point x="698.0" y="333.0" type="line"/>
      <point x="698.0" y="194.0" type="line"/>
      <point x="177.0" y="457.0" type="line"/>
      <point x="177.0" y="596.0" type="line" smooth="yes"/>
      <point x="177.0" y="611.672"/>
      <point x="200.328" y="635.0"/>
      <point x="216.0" y="635.0" type="qcurve" smooth="yes"/>
      <point x="627.0" y="635.0" type="line" smooth="yes"/>
      <point x="643.418" y="635.0"/>
      <point x="666.0" y="611.672"/>
      <point x="666.0" y="596.0" type="qcurve" smooth="yes"/>
      <point x="666.0" y="562.0" type="line"/>
      <point x="749.0" y="562.0" type="line"/>
      <point x="749.0" y="617.0" type="line"/>
      <point x="737.806" y="655.806"/>
      <point x="668.791" y="719.0"/>
      <point x="627.0" y="719.0" type="qcurve" smooth="yes"/>
      <point x="216.0" y="719.0" type="line" smooth="yes"/>
      <point x="166.0" y="719.0"/>
      <point x="95.0" y="647.746"/>
      <point x="95.0" y="597.0" type="qcurve" smooth="yes"/>
      <point x="95.0" y="497.0" type="line" smooth="yes"/>
      <point x="95.0" y="437.0"/>
      <point x="152.0" y="401.0" type="qcurve"/>
      <point x="53.0" y="366.0"/>
      <point x="53.0" y="336.0" type="qcurve" smooth="yes"/>
      <point x="53.0" y="121.0" type="line" smooth="yes"/>
      <point x="53.0" y="71.0"/>
      <point x="124.0" y="0.0"/>
    </contour>
    <contour>
      <point x="174.0" y="82.0" type="line" smooth="yes"/>
      <point x="158.328" y="82.0"/>
      <point x="135.0" y="105.328"/>
      <point x="135.0" y="121.0" type="qcurve" smooth="yes"/>
      <point x="135.0" y="336.0" type="line" smooth="yes"/>
      <point x="135.0" y="351.672"/>
      <point x="158.328" y="375.0"/>
      <point x="174.0" y="375.0" type="qcurve" smooth="yes"/>
      <point x="189.0" y="375.0" type="line"/>
      <point x="699.0" y="118.0" type="line"/>
      <point x="692.284" y="102.328"/>
      <point x="669.448" y="82.0"/>
      <point x="659.0" y="82.0" type="qcurve" smooth="yes"/>
    </contour>
  </outline>
</glyph>
<glyph name="quotesingle" format="2">
  <advance width="224.0"/>
  <unicode hex="0027"/>
  <outline>
    <contour>
      <point x="141.0" y="720.0" type="line"/>
      <point x="59.0" y="720.0" type="line"/>
      <point x="59.0" y="580.0" type="line"/>
      <point x="141.0" y="580.0" type="line"/>
    </contour>
  </outline>
</glyph>
<glyph name="parenleft" format="2">
  <advance width="277.0"/>
  <unicode hex="0028"/>
  <outline>
    <contour>
      <point x="173.0" y="0.0" type="qcurve" smooth="yes"/>
      <point x="202.0" y="0.0" type="line"/>
      <point x="202.0" y="82.0" type="line"/>
      <point x="173.0" y="82.0" type="line" smooth="yes"/>
      <point x="157.0" y="82.0"/>
      <point x="134.0" y="105.328"/>
      <point x="134.0" y="121.0" type="qcurve" smooth="yes"/>
      <point x="134.0" y="598.0" type="line" smooth="yes"/>
      <point x="134.0" y="613.672"/>
      <point x="157.328" y="637.0"/>
      <point x="173.0" y="637.0" type="qcurve" smooth="yes"/>
      <point x="202.0" y="637.0" type="line"/>
      <point x="202.0" y="720.0" type="line"/>
      <point x="173.0" y="720.0" type="line" smooth="yes"/>
      <point x="123.0" y="720.0"/>
      <point x="52.0" y="648.746"/>
      <point x="52.0" y="598.0" type="qcurve" smooth="yes"/>
      <point x="52.0" y="121.0" type="line" smooth="yes"/>
      <point x="52.0" y="71.0"/>
      <point x="123.0" y="0.0"/>
    </contour>
  </outline>
</glyph>
<glyph name="asterisk" format="2">
  <advance width="491.0"/>
  <unicode hex="002A"/>
  <outline>
    <contour>
      <point x="423.0" y="614.0" type="line"/>
      <point x="278.0" y="566.0" type="line"/>
      <point x="278.0" y="719.0" type="line"/>
      <point x="196.0" y="719.0" type="line"/>
      <point x="196.0" y="565.0" type="line"/>
      <point x="49.0" y="614.0" type="line"/>
      <point x="25.0" y="535.0" type="line"/>
      <point x="170.0" y="488.0" type="line"/>
      <point x="80.0" y="362.0" type="line"/>
      <point x="147.0" y="315.0" type="line"/>
      <point x="237.0" y="438.0" type="line"/>
      <point x="328.0" y="315.0" type="line"/>
      <point x="394.0" y="363.0" type="line"/>
      <point x="304.0" y="488.0" type="line"/>
      <point x="450.0" y="535.0" type="line"/>
    </contour>
  </outline>
</glyph>
<glyph name="plus" format="2">
  <advance width="433.0"/>
  <unicode hex="002B"/>
  <outline>
    <contour>
      <point x="169.0" y="490.0" type="line"/>
      <point x="169.0" y="337.0" type="line"/>
      <point x="17.0" y="337.0" type="line"/>
      <point x="17.0" y="255.0" type="line"/>
      <point x="169.0" y="255.0" type="line"/>
      <point x="169.0" y="100.0" type="line"/>
      <point x="251.0" y="100.0" type="line"/>
      <point x="251.0" y="255.0" type="line"/>
      <point x="407.0" y="255.0" type="line"/>
      <point x="407.0" y="337.0" type="line"/>
      <point x="251.0" y="337.0" type="line"/>
      <point x="251.0" y="490.0" type="line"/>
    </contour>
  </outline>
</glyph>
<glyph name="comma" format="2">
  <advance width="193.0"/>
  <unicode hex="002C"/>
  <outline>
    <contour>
      <point x="54.0" y="82.0" type="line"/>
      <point x="54.0" y="-131.0" type="line"/>
      <point x="89.821" y="-119.06"/>
      <point x="136.0" y="-56.299"/>
      <point x="136.0" y="-16.0" type="qcurve" smooth="yes"/>
      <point x="136.0" y="82.0" type="line"/>
    </contour>
  </outline>
</glyph>
<glyph name="hyphen" format="2">
  <advance width="318.0"/>
  <unicode hex="002D"/>
  <outline>
    <contour>
      <point x="438.0" y="337.0" type="line"/>
      <point x="48.0" y="337.0" type="line"/>
      <point x="48.0" y="255.0" type="line"/>
      <point x="438.0" y="255.0" type="line"/>
    </contour>
  </outline>
</glyph>
<glyph name="period" format="2">
  <advance width="214.0"/>
  <unicode hex="002E"/>
  <outline>
    <contour>
      <point x="136.0" y="82.0" type="line"/>
      <point x="54.0" y="82.0" type="line"/>
      <point x="54.0" y="0.0" type="line"/>
      <point x="136.0" y="0.0" type="line"/>
    </contour>
  </outline>
</glyph>
<glyph name="zero" format="2">
  <advance width="834.0"/>
  <unicode hex="0030"/>
  <outline>
    <contour>
      <point x="178.0" y="0.0" type="qcurve" smooth="yes"/>
      <point x="663.0" y="0.0" type="line" smooth="yes"/>
      <point x="713.0" y="0.0"/>
      <point x="784.0" y="71.0"/>
      <point x="784.0" y="121.0" type="qcurve" smooth="yes"/>
      <point x="784.0" y="598.0" type="line" smooth="yes"/>
      <point x="784.0" y="648.746"/>
      <point x="713.0" y="720.0"/>
      <point x="663.0" y="720.0" type="qcurve" smooth="yes"/>
      <point x="178.0" y="720.0" type="line" smooth="yes"/>
      <point x="127.254" y="720.0"/>
      <point x="57.0" y="648.746"/>
      <point x="57.0" y="598.0" type="qcurve" smooth="yes"/>
      <point x="57.0" y="121.0" type="line" smooth="yes"/>
      <point x="57.0" y="71.0"/>
      <point x="127.254" y="0.0"/>
    </contour>
    <contour>
      <point x="149.0" y="82.0" type="line"/>
      <point x="702.0" y="538.0" type="line"/>
      <point x="702.0" y="121.0" type="line" smooth="yes"/>
      <point x="702.0" y="105.328"/>
      <point x="678.672" y="82.0"/>
      <point x="663.0" y="82.0" type="qcurve" smooth="yes"/>
    </contour>
    <contour>
      <point x="139.0" y="181.0" type="line"/>
      <point x="139.0" y="598.0" type="line" smooth="yes"/>
      <point x="139.0" y="613.672"/>
      <point x="162.328" y="637.0"/>
      <point x="178.0" y="637.0" type="qcurve" smooth="yes"/>
      <point x="691.0" y="637.0" type="line"/>
    </contour>
  </outline>
</glyph>
<glyph name="one" format="2">
  <advance width="391.0"/>
  <unicode hex="0031"/>
  <outline>
    <contour>
      <point x="219.0" y="0.0" type="line"/>
      <point x="302.0" y="0.0" type="line"/>
      <point x="302.0" y="720.0" type="line"/>
      <point x="190.0" y="720.0" type="line"/>
      <point x="1.0" y="495.0" type="line"/>
      <point x="108.0" y="495.0" type="line"/>
      <point x="219.0" y="628.0" type="line"/>
    </contour>
  </outline>
</glyph>
<glyph name="two" format="2">
  <advance width="830.0"/>
  <unicode hex="0032"/>
  <outline>
    <contour>
      <point x="57.0" y="0.0" type="line"/>
      <point x="784.0" y="0.0" type="line"/>
      <point x="784.0" y="82.0" type="line"/>
      <point x="178.0" y="82.0" type="line" smooth="yes"/>
      <point x="162.328" y="82.0"/>
      <point x="139.0" y="105.328"/>
      <point x="139.0" y="121.0" type="qcurve" smooth="yes"/>
      <point x="139.0" y="270.0" type="line" smooth="yes"/>
      <point x="139.0" y="285.672"/>
      <point x="162.328" y="309.0"/>
      <point x="178.0" y="309.0" type="qcurve" smooth="yes"/>
      <point x="663.0" y="309.0" type="line" smooth="yes"/>
      <point x="713.0" y="309.0"/>
      <point x="784.0" y="380.0"/>
      <point x="784.0" y="430.0" type="qcurve" smooth="yes"/>
      <point x="784.0" y="599.0" type="line" smooth="yes"/>
      <point x="784.0" y="649.746"/>
      <point x="713.0" y="721.0"/>
      <point x="663.0" y="721.0" type="qcurve" smooth="yes"/>
      <point x="178.0" y="721.0" type="line" smooth="yes"/>
      <point x="127.254" y="721.0"/>
      <point x="57.0" y="649.746"/>
      <point x="57.0" y="599.0" type="qcurve" smooth="yes"/>
      <point x="57.0" y="571.0" type="line"/>
      <point x="139.0" y="571.0" type="line"/>
      <point x="139.0" y="599.0" type="line" smooth="yes"/>
      <point x="139.0" y="614.672"/>
      <point x="162.328" y="638.0"/>
      <point x="178.0" y="638.0" type="qcurve" smooth="yes"/>
      <point x="663.0" y="638.0" type="line" smooth="yes"/>
      <point x="678.672" y="638.0"/>
      <point x="702.0" y="614.672"/>
      <point x="702.0" y="599.0" type="qcurve" smooth="yes"/>
      <point x="702.0" y="430.0" type="line" smooth="yes"/>
      <point x="702.0" y="414.328"/>
      <point x="678.672" y="391.0"/>
      <point x="663.0" y="391.0" type="qcurve" smooth="yes"/>
      <point x="178.0" y="391.0" type="line" smooth="yes"/>
      <point x="127.254" y="391.0"/>
      <point x="57.0" y="320.746"/>
      <point x="57.0" y="270.0" type="qcurve" smooth="yes"/>
    </contour>
  </outline>
</glyph>
<glyph name="three" format="2">
  <advance width="826.0"/>
  <unicode hex="0033"/>
  <outline>
    <contour>
      <point x="175.0" y="0.0" type="qcurve" smooth="yes"/>
      <point x="660.0" y="0.0" type="line" smooth="yes"/>
      <point x="710.0" y="0.0"/>
      <point x="781.0" y="71.0"/>
      <point x="781.0" y="121.0" type="qcurve" smooth="yes"/>
      <point x="781.0" y="288.0" type="line" smooth="yes"/>
      <point x="781.0" y="314.119"/>
      <point x="762.0" y="372.0"/>
      <point x="737.0" y="396.0" type="qcurve"/>
      <point x="742.224" y="407.194"/>
      <point x="749.0" y="433.821"/>
      <point x="749.0" y="448.0" type="qcurve" smooth="yes"/>
      <point x="749.0" y="599.0" type="line" smooth="yes"/>
      <point x="749.0" y="649.746"/>
      <point x="678.746" y="721.0"/>
      <point x="628.0" y="721.0" type="qcurve" smooth="yes"/>
      <point x="175.0" y="721.0" type="line" smooth="yes"/>
      <point x="124.254" y="721.0"/>
      <point x="53.0" y="649.746"/>
      <point x="53.0" y="599.0" type="qcurve" smooth="yes"/>
      <point x="53.0" y="573.0" type="line"/>
      <point x="136.0" y="573.0" type="line"/>
      <point x="136.0" y="599.0" type="line" smooth="yes"/>
      <point x="136.0" y="614.672"/>
      <point x="159.328" y="638.0"/>
      <point x="175.0" y="638.0" type="qcurve" smooth="yes"/>
      <point x="628.0" y="638.0" type="line" smooth="yes"/>
      <point x="643.672" y="638.0"/>
      <point x="667.0" y="614.672"/>
      <point x="667.0" y="599.0" type="qcurve" smooth="yes"/>
      <point x="667.0" y="448.0" type="line" smooth="yes"/>
      <point x="667.0" y="432.328"/>
      <point x="643.672" y="409.0"/>
      <point x="628.0" y="409.0" type="qcurve" smooth="yes"/>
      <point x="191.0" y="409.0" type="line"/>
      <point x="191.0" y="327.0" type="line"/>
      <point x="660.0" y="327.0" type="line" smooth="yes"/>
      <point x="675.672" y="327.0"/>
      <point x="699.0" y="303.672"/>
      <point x="699.0" y="288.0" type="qcurve" smooth="yes"/>
      <point x="699.0" y="121.0" type="line" smooth="yes"/>
      <point x="699.0" y="105.328"/>
      <point x="675.672" y="82.0"/>
      <point x="660.0" y="82.0" type="qcurve" smooth="yes"/>
      <point x="175.0" y="82.0" type="line" smooth="yes"/>
      <point x="159.328" y="82.0"/>
      <point x="136.0" y="105.328"/>
      <point x="136.0" y="121.0" type="qcurve" smooth="yes"/>
      <point x="136.0" y="137.0" type="line"/>
      <point x="53.0" y="137.0" type="line"/>
      <point x="53.0" y="121.0" type="line" smooth="yes"/>
      <point x="53.0" y="71.0"/>
      <point x="124.254" y="0.0"/>
    </contour>
  </outline>
</glyph>
<glyph name="four" format="2">
  <advance width="730.0"/>
  <unicode hex="0034"/>
  <outline>
    <contour>
      <point x="508.0" y="0.0" type="line"/>
      <point x="590.0" y="0.0" type="line"/>
      <point x="590.0" y="186.0" type="line"/>
      <point x="702.0" y="186.0" type="line"/>
      <point x="702.0" y="268.0" type="line"/>
      <point x="590.0" y="268.0" type="line"/>
      <point x="590.0" y="721.0" type="line"/>
      <point x="498.0" y="721.0" type="line"/>
      <point x="6.0" y="278.0" type="line"/>
      <point x="6.0" y="186.0" type="line"/>
      <point x="508.0" y="186.0" type="line"/>
    </contour>
    <contour>
      <point x="111.0" y="268.0" type="line"/>
      <point x="508.0" y="590.0" type="line"/>
      <point x="508.0" y="268.0" type="line"/>
    </contour>
  </outline>
</glyph>
<glyph name="five" format="2">
  <advance width="830.0"/>
  <unicode hex="0035"/>
  <outline>
    <contour>
      <point x="178.0" y="0.0" type="qcurve" smooth="yes"/>
      <point x="663.0" y="0.0" type="line" smooth="yes"/>
      <point x="713.0" y="0.0"/>
      <point x="784.0" y="71.0"/>
      <point x="784.0" y="121.0" type="qcurve" smooth="yes"/>
      <point x="784.0" y="291.0" type="line" smooth="yes"/>
      <point x="784.0" y="341.746"/>
      <point x="713.0" y="412.0"/>
      <point x="663.0" y="412.0" type="qcurve" smooth="yes"/>
      <point x="178.0" y="412.0" type="line" smooth="yes"/>
      <point x="162.328" y="412.0"/>
      <point x="139.0" y="435.582"/>
      <point x="139.0" y="452.0" type="qcurve" smooth="yes"/>
      <point x="139.0" y="599.0" type="line" smooth="yes"/>
      <point x="139.0" y="614.672"/>
      <point x="162.328" y="638.0"/>
      <point x="178.0" y="638.0" type="qcurve" smooth="yes"/>
      <point x="784.0" y="638.0" type="line"/>
      <point x="784.0" y="721.0" type="line"/>
      <point x="57.0" y="721.0" type="line"/>
      <point x="57.0" y="330.0" type="line"/>
      <point x="663.0" y="330.0" type="line" smooth="yes"/>
      <point x="678.672" y="330.0"/>
      <point x="702.0" y="306.672"/>
      <point x="702.0" y="291.0" type="qcurve" smooth="yes"/>
      <point x="702.0" y="121.0" type="line" smooth="yes"/>
      <point x="702.0" y="105.328"/>
      <point x="678.672" y="82.0"/>
      <point x="663.0" y="82.0" type="qcurve" smooth="yes"/>
      <point x="178.0" y="82.0" type="line" smooth="yes"/>
      <point x="162.328" y="82.0"/>
      <point x="139.0" y="105.328"/>
      <point x="139.0" y="121.0" type="qcurve" smooth="yes"/>
      <point x="139.0" y="150.0" type="line"/>
      <point x="57.0" y="150.0" type="line"/>
      <point x="57.0" y="121.0" type="line" smooth="yes"/>
      <point x="57.0" y="71.0"/>
      <point x="127.254" y="0.0"/>
    </contour>
  </outline>
</glyph>
<glyph name="six" format="2">
  <advance width="820.0"/>
  <unicode hex="0036"/>
  <outline>
    <contour>
      <point x="178.0" y="0.0" type="qcurve" smooth="yes"/>
      <point x="663.0" y="0.0" type="line" smooth="yes"/>
      <point x="713.0" y="0.0"/>
      <point x="784.0" y="71.0"/>
      <point x="784.0" y="121.0" type="qcurve" smooth="yes"/>
      <point x="784.0" y="294.0" type="line" smooth="yes"/>
      <point x="784.0" y="344.746"/>
      <point x="713.0" y="415.0"/>
      <point x="663.0" y="415.0" type="qcurve" smooth="yes"/>
      <point x="178.0" y="415.0" type="line" smooth="yes"/>
      <point x="162.328" y="415.0"/>
      <point x="139.0" y="438.582"/>
      <point x="139.0" y="455.0" type="qcurve" smooth="yes"/>
      <point x="139.0" y="599.0" type="line" smooth="yes"/>
      <point x="139.0" y="614.672"/>
      <point x="162.328" y="638.0"/>
      <point x="178.0" y="638.0" type="qcurve" smooth="yes"/>
      <point x="658.0" y="638.0" type="line"/>
      <point x="658.0" y="721.0" type="line"/>
      <point x="178.0" y="721.0" type="line" smooth="yes"/>
      <point x="127.254" y="721.0"/>
      <point x="57.0" y="649.746"/>
      <point x="57.0" y="599.0" type="qcurve" smooth="yes"/>
      <point x="57.0" y="121.0" type="line" smooth="yes"/>
      <point x="57.0" y="71.0"/>
      <point x="127.254" y="0.0"/>
    </contour>
    <contour>
      <point x="178.0" y="82.0" type="line" smooth="yes"/>
      <point x="162.328" y="82.0"/>
      <point x="139.0" y="105.328"/>
      <point x="139.0" y="121.0" type="qcurve" smooth="yes"/>
      <point x="139.0" y="333.0" type="line"/>
      <point x="663.0" y="333.0" type="line" smooth="yes"/>
      <point x="678.672" y="333.0"/>
      <point x="702.0" y="309.672"/>
      <point x="702.0" y="294.0" type="qcurve" smooth="yes"/>
      <point x="702.0" y="121.0" type="line" smooth="yes"/>
      <point x="702.0" y="105.328"/>
      <point x="678.672" y="82.0"/>
      <point x="663.0" y="82.0" type="qcurve" smooth="yes"/>
    </contour>
  </outline>
</glyph>
<glyph name="seven" format="2">
  <advance width="660.0"/>
  <unicode hex="0037"/>
  <outline>
    <contour>
      <point x="522.0" y="0.0" type="line"/>
      <point x="604.0" y="0.0" type="line"/>
      <point x="604.0" y="599.0" type="line" smooth="yes"/>
      <point x="604.0" y="649.746"/>
      <point x="533.0" y="721.0"/>
      <point x="483.0" y="721.0" type="qcurve" smooth="yes"/>
      <point x="3.0" y="721.0" type="line"/>
      <point x="3.0" y="638.0" type="line"/>
      <point x="483.0" y="638.0" type="line" smooth="yes"/>
      <point x="498.672" y="638.0"/>
      <point x="522.0" y="614.672"/>
      <point x="522.0" y="599.0" type="qcurve" smooth="yes"/>
    </contour>
  </outline>
</glyph>
<glyph name="eight" format="2">
  <advance width="834.0"/>
  <unicode hex="0038"/>
  <outline>
    <contour>
      <point x="178.0" y="0.0" type="qcurve" smooth="yes"/>
      <point x="663.0" y="0.0" type="line" smooth="yes"/>
      <point x="713.0" y="0.0"/>
      <point x="784.0" y="71.0"/>
      <point x="784.0" y="121.0" type="qcurve" smooth="yes"/>
      <point x="784.0" y="291.0" type="line" smooth="yes"/>
      <point x="784.0" y="311.149"/>
      <point x="768.179" y="352.343"/>
      <point x="754.0" y="371.0" type="qcurve"/>
      <point x="768.179" y="390.403"/>
      <point x="784.0" y="431.851"/>
      <point x="784.0" y="452.0" type="qcurve" smooth="yes"/>
      <point x="784.0" y="619.0" type="line"/>
      <point x="772.806" y="657.806"/>
      <point x="704.791" y="721.0"/>
      <point x="663.0" y="721.0" type="qcurve" smooth="yes"/>
      <point x="178.0" y="721.0" type="line" smooth="yes"/>
      <point x="127.254" y="721.0"/>
      <point x="57.0" y="649.746"/>
      <point x="57.0" y="599.0" type="qcurve" smooth="yes"/>
      <point x="57.0" y="452.0" type="line" smooth="yes"/>
      <point x="57.0" y="431.851"/>
      <point x="72.821" y="390.403"/>
      <point x="87.0" y="371.0" type="qcurve"/>
      <point x="72.821" y="352.343"/>
      <point x="57.0" y="311.149"/>
      <point x="57.0" y="291.0" type="qcurve" smooth="yes"/>
      <point x="57.0" y="121.0" type="line" smooth="yes"/>
      <point x="57.0" y="71.0"/>
      <point x="127.254" y="0.0"/>
    </contour>
    <contour>
      <point x="178.0" y="82.0" type="line" smooth="yes"/>
      <point x="162.328" y="82.0"/>
      <point x="139.0" y="105.328"/>
      <point x="139.0" y="121.0" type="qcurve" smooth="yes"/>
      <point x="139.0" y="291.0" type="line" smooth="yes"/>
      <point x="139.0" y="306.672"/>
      <point x="162.328" y="330.0"/>
      <point x="178.0" y="330.0" type="qcurve" smooth="yes"/>
      <point x="663.0" y="330.0" type="line" smooth="yes"/>
      <point x="678.672" y="330.0"/>
      <point x="702.0" y="306.672"/>
      <point x="702.0" y="291.0" type="qcurve" smooth="yes"/>
      <point x="702.0" y="121.0" type="line" smooth="yes"/>
      <point x="702.0" y="105.328"/>
      <point x="678.672" y="82.0"/>
      <point x="663.0" y="82.0" type="qcurve" smooth="yes"/>
    </contour>
    <contour>
      <point x="178.0" y="401.0" type="line" smooth="yes"/>
      <point x="162.328" y="401.0"/>
      <point x="139.0" y="424.328"/>
      <point x="139.0" y="440.0" type="qcurve" smooth="yes"/>
      <point x="139.0" y="598.0" type="line" smooth="yes"/>
      <point x="139.0" y="613.672"/>
      <point x="162.328" y="637.0"/>
      <point x="178.0" y="637.0" type="qcurve" smooth="yes"/>
      <point x="663.0" y="637.0" type="line" smooth="yes"/>
      <point x="678.672" y="637.0"/>
      <point x="702.0" y="613.672"/>
      <point x="702.0" y="598.0" type="qcurve" smooth="yes"/>
      <point x="702.0" y="440.0" type="line" smooth="yes"/>
      <point x="702.0" y="424.328"/>
      <point x="678.672" y="401.0"/>
      <point x="663.0" y="401.0" type="qcurve" smooth="yes"/>
    </contour>
  </outline>
</glyph>
<glyph name="nine" format="2">
  <advance width="828.0"/>
  <unicode hex="0039"/>
  <outline>
    <contour>
      <point x="173.0" y="0.0" type="qcurve" smooth="yes"/>
      <point x="658.0" y="0.0" type="line" smooth="yes"/>
      <point x="708.0" y="0.0"/>
      <point x="779.0" y="71.0"/>
      <point x="779.0" y="121.0" type="qcurve" smooth="yes"/>
      <point x="779.0" y="599.0" type="line" smooth="yes"/>
      <point x="779.0" y="649.746"/>
      <point x="708.0" y="721.0"/>
      <point x="658.0" y="721.0" type="qcurve" smooth="yes"/>
      <point x="173.0" y="721.0" type="line" smooth="yes"/>
      <point x="122.254" y="721.0"/>
      <point x="51.0" y="649.746"/>
      <point x="51.0" y="599.0" type="qcurve" smooth="yes"/>
      <point x="51.0" y="426.0" type="line" smooth="yes"/>
      <point x="51.0" y="376.0"/>
      <point x="122.254" y="305.0"/>
      <point x="173.0" y="305.0" type="qcurve" smooth="yes"/>
      <point x="658.0" y="305.0" type="line" smooth="yes"/>
      <point x="673.672" y="305.0"/>
      <point x="697.0" y="281.672"/>
      <point x="697.0" y="266.0" type="qcurve" smooth="yes"/>
      <point x="697.0" y="121.0" type="line" smooth="yes"/>
      <point x="697.0" y="105.328"/>
      <point x="673.672" y="82.0"/>
      <point x="658.0" y="82.0" type="qcurve" smooth="yes"/>
      <point x="58.0" y="82.0" type="line"/>
      <point x="69.94" y="46.179"/>
      <point x="133.448" y="0.0"/>
    </contour>
    <contour>
      <point x="173.0" y="387.0" type="line" smooth="yes"/>
      <point x="157.328" y="387.0"/>
      <point x="134.0" y="410.328"/>
      <point x="134.0" y="426.0" type="qcurve" smooth="yes"/>
      <point x="134.0" y="599.0" type="line" smooth="yes"/>
      <point x="134.0" y="614.672"/>
      <point x="157.328" y="638.0"/>
      <point x="173.0" y="638.0" type="qcurve" smooth="yes"/>
      <point x="658.0" y="638.0" type="line" smooth="yes"/>
      <point x="673.672" y="638.0"/>
      <point x="697.0" y="614.672"/>
      <point x="697.0" y="599.0" type="qcurve" smooth="yes"/>
      <point x="697.0" y="387.0" type="line"/>
    </contour>
  </outline>
</glyph>
<glyph name="colon" format="2">
  <advance width="214.0"/>
  <unicode hex="003A"/>
  <outline>
    <contour>
      <point x="54.0" y="82.0" type="line"/>
      <point x="54.0" y="0.0" type="line"/>
      <point x="136.0" y="0.0" type="line"/>
      <point x="136.0" y="82.0" type="line"/>
    </contour>
    <contour>
      <point x="136.0" y="588.0" type="line"/>
      <point x="54.0" y="588.0" type="line"/>
      <point x="54.0" y="506.0" type="line"/>
      <point x="136.0" y="506.0" type="line"/>
    </contour>
  </outline>
</glyph>
<glyph name="semicolon" format="2">
  <advance width="193.0"/>
  <unicode hex="003B"/>
  <outline>
    <contour>
      <point x="133.0" y="588.0" type="line"/>
      <point x="51.0" y="588.0" type="line"/>
      <point x="51.0" y="506.0" type="line"/>
      <point x="133.0" y="506.0" type="line"/>
    </contour>
    <contour>
      <point x="51.0" y="82.0" type="line"/>
      <point x="51.0" y="-131.0" type="line"/>
      <point x="86.821" y="-119.06"/>
      <point x="133.0" y="-56.299"/>
      <point x="133.0" y="-16.0" type="qcurve" smooth="yes"/>
      <point x="133.0" y="82.0" type="line"/>
    </contour>
  </outline>
</glyph>
<glyph name="less" format="2">
  <advance width="473.0"/>
  <unicode hex="003C"/>
  <outline>
    <contour>
      <point x="87.0" y="296.0" type="line"/>
      <point x="407.0" y="481.0" type="line"/>
      <point x="407.0" y="576.0" type="line"/>
      <point x="5.0" y="345.0" type="line"/>
      <point x="5.0" y="248.0" type="line"/>
      <point x="407.0" y="16.0" type="line"/>
      <point x="407.0" y="111.0" type="line"/>
    </contour>
  </outline>
</glyph>
<glyph name="equal" format="2">
  <advance width="638.0"/>
  <unicode hex="003D"/>
  <outline>
    <contour>
      <point x="576.0" y="233.0" type="line"/>
      <point x="59.0" y="233.0" type="line"/>
      <point x="59.0" y="151.0" type="line"/>
      <point x="576.0" y="151.0" type="line"/>
    </contour>
    <contour>
      <point x="576.0" y="433.0" type="line"/>
      <point x="59.0" y="433.0" type="line"/>
      <point x="59.0" y="351.0" type="line"/>
      <point x="576.0" y="351.0" type="line"/>
    </contour>
  </outline>
</glyph>
<glyph name="greater" format="2">
  <advance width="475.0"/>
  <unicode hex="003E"/>
  <outline>
    <contour>
      <point x="59.0" y="14.0" type="line"/>
      <point x="461.0" y="246.0" type="line"/>
      <point x="461.0" y="343.0" type="line"/>
      <point x="59.0" y="574.0" type="line"/>
      <point x="59.0" y="479.0" type="line"/>
      <point x="379.0" y="294.0" type="line"/>
      <point x="59.0" y="109.0" type="line"/>
    </contour>
  </outline>
</glyph>
<glyph name="question" format="2">
  <advance width="678.0"/>
  <unicode hex="003F"/>
  <outline>
    <contour>
      <point x="153.0" y="201.0" type="line"/>
      <point x="235.0" y="201.0" type="line"/>
      <point x="235.0" y="243.0" type="line" smooth="yes"/>
      <point x="235.0" y="258.672"/>
      <point x="258.328" y="282.0"/>
      <point x="274.0" y="282.0" type="qcurve" smooth="yes"/>
      <point x="548.0" y="282.0" type="line" smooth="yes"/>
      <point x="598.0" y="282.0"/>
      <point x="669.0" y="353.0"/>
      <point x="669.0" y="403.0" type="qcurve" smooth="yes"/>
      <point x="669.0" y="597.0" type="line" smooth="yes"/>
      <point x="669.0" y="647.746"/>
      <point x="598.0" y="719.0"/>
      <point x="548.0" y="719.0" type="qcurve" smooth="yes"/>
      <point x="31.0" y="720.0" type="line"/>
      <point x="31.0" y="636.0" type="line"/>
      <point x="548.0" y="636.0" type="line" smooth="yes"/>
      <point x="563.672" y="636.0"/>
      <point x="587.0" y="612.672"/>
      <point x="587.0" y="597.0" type="qcurve" smooth="yes"/>
      <point x="587.0" y="403.0" type="line" smooth="yes"/>
      <point x="587.0" y="387.328"/>
      <point x="563.672" y="364.0"/>
      <point x="548.0" y="364.0" type="qcurve" smooth="yes"/>
      <point x="274.0" y="364.0" type="line" smooth="yes"/>
      <point x="224.0" y="364.0"/>
      <point x="153.0" y="293.746"/>
      <point x="153.0" y="243.0" type="qcurve" smooth="yes"/>
    </contour>
    <contour>
      <point x="153.0" y="0.0" type="line"/>
      <point x="235.0" y="0.0" type="line"/>
      <point x="235.0" y="82.0" type="line"/>
      <point x="153.0" y="82.0" type="line"/>
    </contour>
  </outline>
</glyph>
<glyph name="at" format="2">
  <advance width="823.0"/>
  <unicode hex="0040"/>
  <outline>
    <contour>
      <point x="169.0" y="0.0" type="qcurve" smooth="yes"/>
      <point x="775.0" y="0.0" type="line"/>
      <point x="775.0" y="82.0" type="line"/>
      <point x="169.0" y="82.0" type="line" smooth="yes"/>
      <point x="153.0" y="82.0"/>
      <point x="130.0" y="105.0"/>
      <point x="130.0" y="121.0" type="qcurve" smooth="yes"/>
      <point x="130.0" y="598.0" type="line" smooth="yes"/>
      <point x="130.0" y="614.0"/>
      <point x="153.0" y="637.0"/>
      <point x="169.0" y="637.0" type="qcurve" smooth="yes"/>
      <point x="654.0" y="637.0" type="line" smooth="yes"/>
      <point x="670.0" y="637.0"/>
      <point x="693.0" y="614.0"/>
      <point x="693.0" y="598.0" type="qcurve" smooth="yes"/>
      <point x="693.0" y="254.0" type="line"/>
      <point x="580.0" y="254.0" type="line"/>
      <point x="580.0" y="398.0" type="line" smooth="yes"/>
      <point x="580.0" y="448.0"/>
      <point x="509.0" y="519.0"/>
      <point x="459.0" y="519.0" type="qcurve" smooth="yes"/>
      <point x="364.0" y="519.0" type="line" smooth="yes"/>
      <point x="313.0" y="519.0"/>
      <point x="243.0" y="448.0"/>
      <point x="243.0" y="398.0" type="qcurve" smooth="yes"/>
      <point x="243.0" y="314.0" type="line" smooth="yes"/>
      <point x="243.0" y="263.0"/>
      <point x="313.0" y="192.0"/>
      <point x="364.0" y="192.0" type="qcurve" smooth="yes"/>
      <point x="775.0" y="192.0" type="line"/>
      <point x="775.0" y="598.0" type="line" smooth="yes"/>
      <point x="775.0" y="649.0"/>
      <point x="704.0" y="720.0"/>
      <point x="654.0" y="720.0" type="qcurve" smooth="yes"/>
      <point x="169.0" y="720.0" type="line" smooth="yes"/>
      <point x="118.0" y="720.0"/>
      <point x="48.0" y="649.0"/>
      <point x="48.0" y="598.0" type="qcurve" smooth="yes"/>
      <point x="48.0" y="121.0" type="line" smooth="yes"/>
      <point x="48.0" y="71.0"/>
      <point x="118.0" y="0.0"/>
    </contour>
    <contour>
      <point x="343.0" y="254.0" type="line" smooth="yes"/>
      <point x="327.0" y="254.0"/>
      <point x="304.0" y="277.0"/>
      <point x="304.0" y="293.0" type="qcurve" smooth="yes"/>
      <point x="304.0" y="419.0" type="line" smooth="yes"/>
      <point x="304.0" y="435.0"/>
      <point x="327.0" y="458.0"/>
      <point x="343.0" y="458.0" type="qcurve" smooth="yes"/>
      <point x="480.0" y="458.0" type="line" smooth="yes"/>
      <point x="496.0" y="458.0"/>
      <point x="519.0" y="435.0"/>
      <point x="519.0" y="419.0" type="qcurve" smooth="yes"/>
      <point x="519.0" y="254.0" type="line"/>
    </contour>
  </outline>
</glyph>
<glyph name="B" format="2">
  <advance width="832.0"/>
  <unicode hex="0042"/>
  <outline>
    <contour>
      <point x="59.0" y="0.0" type="line"/>
      <point x="659.0" y="0.0" type="line" smooth="yes"/>
      <point x="709.0" y="0.0"/>
      <point x="779.0" y="70.0"/>
      <point x="779.0" y="120.0" type="qcurve" smooth="yes"/>
      <point x="779.0" y="288.0" type="line" smooth="yes"/>
      <point x="779.0" y="313.373"/>
      <point x="757.0" y="361.0"/>
      <point x="735.0" y="394.0" type="qcurve"/>
      <point x="740.97" y="405.94"/>
      <point x="748.0" y="432.821"/>
      <point x="748.0" y="447.0" type="qcurve" smooth="yes"/>
      <point x="748.0" y="600.0" type="line" smooth="yes"/>
      <point x="748.0" y="650.0"/>
      <point x="678.0" y="720.0"/>
      <point x="628.0" y="720.0" type="qcurve" smooth="yes"/>
      <point x="59.0" y="720.0" type="line"/>
    </contour>
    <contour>
      <point x="179.0" y="81.0" type="line" smooth="yes"/>
      <point x="163.328" y="81.0"/>
      <point x="140.0" y="104.328"/>
      <point x="140.0" y="120.0" type="qcurve" smooth="yes"/>
      <point x="140.0" y="288.0" type="line" smooth="yes"/>
      <point x="140.0" y="303.672"/>
      <point x="163.328" y="327.0"/>
      <point x="179.0" y="327.0" type="qcurve" smooth="yes"/>
      <point x="659.0" y="327.0" type="line" smooth="yes"/>
      <point x="674.672" y="327.0"/>
      <point x="698.0" y="303.672"/>
      <point x="698.0" y="288.0" type="qcurve" smooth="yes"/>
      <point x="698.0" y="120.0" type="line" smooth="yes"/>
      <point x="698.0" y="104.328"/>
      <point x="674.672" y="81.0"/>
      <point x="659.0" y="81.0" type="qcurve" smooth="yes"/>
    </contour>
    <contour>
      <point x="179.0" y="408.0" type="line" smooth="yes"/>
      <point x="163.328" y="408.0"/>
      <point x="140.0" y="431.328"/>
      <point x="140.0" y="447.0" type="qcurve" smooth="yes"/>
      <point x="140.0" y="600.0" type="line" smooth="yes"/>
      <point x="140.0" y="615.672"/>
      <point x="163.328" y="639.0"/>
      <point x="179.0" y="639.0" type="qcurve" smooth="yes"/>
      <point x="628.0" y="639.0" type="line" smooth="yes"/>
      <point x="643.672" y="639.0"/>
      <point x="666.0" y="615.672"/>
      <point x="666.0" y="600.0" type="qcurve" smooth="yes"/>
      <point x="666.0" y="447.0" type="line" smooth="yes"/>
      <point x="666.0" y="431.328"/>
      <point x="643.672" y="408.0"/>
      <point x="628.0" y="408.0" type="qcurve" smooth="yes"/>
    </contour>
  </outline>
</glyph>
<glyph name="D" format="2">
  <advance width="834.0"/>
  <unicode hex="0044"/>
  <outline>
    <contour>
      <point x="58.0" y="0.0" type="line"/>
      <point x="658.0" y="0.0" type="line" smooth="yes"/>
      <point x="708.0" y="0.0"/>
      <point x="778.0" y="70.0"/>
      <point x="778.0" y="120.0" type="qcurve" smooth="yes"/>
      <point x="778.0" y="600.0" type="line" smooth="yes"/>
      <point x="778.0" y="650.0"/>
      <point x="708.0" y="720.0"/>
      <point x="658.0" y="720.0" type="qcurve" smooth="yes"/>
      <point x="58.0" y="720.0" type="line"/>
    </contour>
    <contour>
      <point x="178.0" y="81.0" type="line" smooth="yes"/>
      <point x="162.328" y="81.0"/>
      <point x="139.0" y="104.328"/>
      <point x="139.0" y="120.0" type="qcurve" smooth="yes"/>
      <point x="139.0" y="600.0" type="line" smooth="yes"/>
      <point x="139.0" y="615.672"/>
      <point x="162.328" y="639.0"/>
      <point x="178.0" y="639.0" type="qcurve" smooth="yes"/>
      <point x="658.0" y="639.0" type="line" smooth="yes"/>
      <point x="673.672" y="639.0"/>
      <point x="697.0" y="615.672"/>
      <point x="697.0" y="600.0" type="qcurve" smooth="yes"/>
      <point x="697.0" y="120.0" type="line" smooth="yes"/>
      <point x="697.0" y="104.328"/>
      <point x="673.672" y="81.0"/>
      <point x="658.0" y="81.0" type="qcurve" smooth="yes"/>
    </contour>
  </outline>
</glyph>
<glyph name="F" format="2">
  <advance width="723.0"/>
  <unicode hex="0046"/>
  <outline>
    <contour>
      <point x="58.0" y="720.0" type="line"/>
      <point x="58.0" y="0.0" type="line"/>
      <point x="139.0" y="0.0" type="line"/>
      <point x="139.0" y="319.0" type="line"/>
      <point x="602.0" y="319.0" type="line"/>
      <point x="602.0" y="401.0" type="line"/>
      <point x="139.0" y="401.0" type="line"/>
      <point x="139.0" y="639.0" type="line"/>
      <point x="715.0" y="639.0" type="line"/>
      <point x="715.0" y="720.0" type="line"/>
    </contour>
  </outline>
</glyph>
<glyph name="H" format="2">
  <advance width="851.0"/>
  <unicode hex="0048"/>
  <outline>
    <contour>
      <point x="713.0" y="720.0" type="line"/>
      <point x="713.0" y="401.0" type="line"/>
      <point x="138.0" y="401.0" type="line"/>
      <point x="138.0" y="720.0" type="line"/>
      <point x="57.0" y="720.0" type="line"/>
      <point x="57.0" y="0.0" type="line"/>
      <point x="138.0" y="0.0" type="line"/>
      <point x="138.0" y="319.0" type="line"/>
      <point x="713.0" y="319.0" type="line"/>
      <point x="713.0" y="0.0" type="line"/>
      <point x="795.0" y="0.0" type="line"/>
      <point x="795.0" y="720.0" type="line"/>
    </contour>
  </outline>
</glyph>
<glyph name="I" format="2">
  <advance width="220.0"/>
  <unicode hex="0049"/>
  <outline>
    <contour>
      <point x="57.0" y="0.0" type="line"/>
      <point x="138.0" y="0.0" type="line"/>
      <point x="138.0" y="720.0" type="line"/>
      <point x="57.0" y="720.0" type="line"/>
    </contour>
  </outline>
</glyph>
<glyph name="J" format="2">
  <advance width="780.0"/>
  <unicode hex="004A"/>
  <outline>
    <contour>
      <point x="124.0" y="0.0" type="qcurve" smooth="yes"/>
      <point x="604.0" y="0.0" type="line" smooth="yes"/>
      <point x="654.0" y="0.0"/>
      <point x="724.0" y="70.0"/>
      <point x="724.0" y="120.0" type="qcurve" smooth="yes"/>
      <point x="724.0" y="720.0" type="line"/>
      <point x="643.0" y="720.0" type="line"/>
      <point x="643.0" y="120.0" type="line" smooth="yes"/>
      <point x="643.0" y="104.328"/>
      <point x="619.672" y="81.0"/>
      <point x="604.0" y="81.0" type="qcurve" smooth="yes"/>
      <point x="124.0" y="81.0" type="line" smooth="yes"/>
      <point x="108.328" y="81.0"/>
      <point x="85.0" y="104.328"/>
      <point x="85.0" y="120.0" type="qcurve" smooth="yes"/>
      <point x="85.0" y="177.0" type="line"/>
      <point x="4.0" y="177.0" type="line"/>
      <point x="4.0" y="120.0" type="line" smooth="yes"/>
      <point x="4.0" y="70.0"/>
      <point x="74.0" y="0.0"/>
    </contour>
  </outline>
</glyph>
<glyph name="K" format="2">
  <advance width="797.0"/>
  <unicode hex="004B"/>
  <outline>
    <contour>
      <point x="57.0" y="0.0" type="line"/>
      <point x="139.0" y="0.0" type="line"/>
      <point x="139.0" y="319.0" type="line"/>
      <point x="371.0" y="319.0" type="line"/>
      <point x="639.0" y="0.0" type="line"/>
      <point x="744.0" y="0.0" type="line"/>
      <point x="744.0" y="1.0" type="line"/>
      <point x="442.0" y="360.0" type="line"/>
      <point x="743.0" y="719.0" type="line"/>
      <point x="743.0" y="720.0" type="line"/>
      <point x="639.0" y="720.0" type="line"/>
      <point x="371.0" y="401.0" type="line"/>
      <point x="139.0" y="401.0" type="line"/>
      <point x="139.0" y="720.0" type="line"/>
      <point x="57.0" y="720.0" type="line"/>
    </contour>
  </outline>
</glyph>
<glyph name="M" format="2">
  <advance width="928.0"/>
  <unicode hex="004D"/>
  <outline>
    <contour>
      <point x="56.0" y="0.0" type="line"/>
      <point x="137.0" y="0.0" type="line"/>
      <point x="137.0" y="628.0" type="line"/>
      <point x="466.0" y="237.0" type="line"/>
      <point x="795.0" y="628.0" type="line"/>
      <point x="795.0" y="0.0" type="line"/>
      <point x="876.0" y="0.0" type="line"/>
      <point x="876.0" y="720.0" type="line"/>
      <point x="765.0" y="720.0" type="line"/>
      <point x="466.0" y="364.0" type="line"/>
      <point x="167.0" y="720.0" type="line"/>
      <point x="56.0" y="720.0" type="line"/>
    </contour>
  </outline>
</glyph>
<glyph name="N" format="2">
  <advance width="832.0"/>
  <unicode hex="004E"/>
  <outline>
    <contour>
      <point x="695.0" y="92.0" type="line"/>
      <point x="167.0" y="720.0" type="line"/>
      <point x="56.0" y="720.0" type="line"/>
      <point x="56.0" y="0.0" type="line"/>
      <point x="137.0" y="0.0" type="line"/>
      <point x="137.0" y="628.0" type="line"/>
      <point x="665.0" y="0.0" type="line"/>
      <point x="776.0" y="0.0" type="line"/>
      <point x="776.0" y="720.0" type="line"/>
      <point x="695.0" y="720.0" type="line"/>
    </contour>
  </outline>
</glyph>
<glyph name="O" format="2">
  <advance width="828.0"/>
  <unicode hex="004F"/>
  <anchor x="429.0" y="0.0" name="bottom"/>
  <anchor x="417.0" y="719.0" name="top"/>
  <outline>
    <contour>
      <point x="174.0" y="0.0" type="qcurve" smooth="yes"/>
      <point x="654.0" y="0.0" type="line" smooth="yes"/>
      <point x="704.0" y="0.0"/>
      <point x="774.0" y="70.0"/>
      <point x="774.0" y="120.0" type="qcurve" smooth="yes"/>
      <point x="774.0" y="600.0" type="line" smooth="yes"/>
      <point x="774.0" y="650.0"/>
      <point x="704.0" y="720.0"/>
      <point x="654.0" y="720.0" type="qcurve" smooth="yes"/>
      <point x="174.0" y="720.0" type="line" smooth="yes"/>
      <point x="124.0" y="720.0"/>
      <point x="54.0" y="650.0"/>
      <point x="54.0" y="600.0" type="qcurve" smooth="yes"/>
      <point x="54.0" y="120.0" type="line" smooth="yes"/>
      <point x="54.0" y="70.0"/>
      <point x="124.0" y="0.0"/>
    </contour>
    <contour>
      <point x="174.0" y="81.0" type="line" smooth="yes"/>
      <point x="158.328" y="81.0"/>
      <point x="135.0" y="104.328"/>
      <point x="135.0" y="120.0" type="qcurve" smooth="yes"/>
      <point x="135.0" y="600.0" type="line" smooth="yes"/>
      <point x="135.0" y="615.672"/>
      <point x="158.328" y="639.0"/>
      <point x="174.0" y="639.0" type="qcurve" smooth="yes"/>
      <point x="654.0" y="639.0" type="line" smooth="yes"/>
      <point x="669.672" y="639.0"/>
      <point x="693.0" y="615.672"/>
      <point x="693.0" y="600.0" type="qcurve" smooth="yes"/>
      <point x="693.0" y="120.0" type="line" smooth="yes"/>
      <point x="693.0" y="104.328"/>
      <point x="669.672" y="81.0"/>
      <point x="654.0" y="81.0" type="qcurve" smooth="yes"/>
    </contour>
  </outline>
</glyph>
<glyph name="P" format="2">
  <advance width="830.0"/>
  <unicode hex="0050"/>
  <outline>
    <contour>
      <point x="56.0" y="0.0" type="line"/>
      <point x="137.0" y="0.0" type="line"/>
      <point x="137.0" y="268.0" type="line"/>
      <point x="656.0" y="268.0" type="line" smooth="yes"/>
      <point x="706.0" y="268.0"/>
      <point x="776.0" y="338.746"/>
      <point x="776.0" y="388.0" type="qcurve" smooth="yes"/>
      <point x="776.0" y="599.0" type="line" smooth="yes"/>
      <point x="776.0" y="648.254"/>
      <point x="706.0" y="719.0"/>
      <point x="656.0" y="719.0" type="qcurve" smooth="yes"/>
      <point x="56.0" y="719.0" type="line"/>
    </contour>
    <contour>
      <point x="176.0" y="350.0" type="line" smooth="yes"/>
      <point x="160.328" y="350.0"/>
      <point x="137.0" y="372.328"/>
      <point x="137.0" y="388.0" type="qcurve" smooth="yes"/>
      <point x="137.0" y="599.0" type="line" smooth="yes"/>
      <point x="137.0" y="614.672"/>
      <point x="160.328" y="638.0"/>
      <point x="176.0" y="638.0" type="qcurve" smooth="yes"/>
      <point x="656.0" y="638.0" type="line" smooth="yes"/>
      <point x="671.672" y="638.0"/>
      <point x="695.0" y="614.672"/>
      <point x="695.0" y="599.0" type="qcurve" smooth="yes"/>
      <point x="695.0" y="388.0" type="line" smooth="yes"/>
      <point x="695.0" y="372.328"/>
      <point x="671.672" y="350.0"/>
      <point x="656.0" y="350.0" type="qcurve" smooth="yes"/>
    </contour>
  </outline>
</glyph>
<glyph name="Q" format="2">
  <advance width="884.0"/>
  <unicode hex="0051"/>
  <outline>
    <contour>
      <point x="174.0" y="0.0" type="qcurve" smooth="yes"/>
      <point x="868.0" y="0.0" type="line"/>
      <point x="868.0" y="81.0" type="line"/>
      <point x="774.0" y="81.0" type="line"/>
      <point x="774.0" y="600.0" type="line"/>
      <point x="774.0" y="650.0"/>
      <point x="704.0" y="720.0"/>
      <point x="654.0" y="720.0" type="qcurve" smooth="yes"/>
      <point x="174.0" y="720.0" type="line" smooth="yes"/>
      <point x="124.0" y="720.0"/>
      <point x="54.0" y="650.0"/>
      <point x="54.0" y="600.0" type="qcurve" smooth="yes"/>
      <point x="54.0" y="120.0" type="line" smooth="yes"/>
      <point x="54.0" y="70.0"/>
      <point x="124.0" y="0.0"/>
    </contour>
    <contour>
      <point x="174.0" y="81.0" type="line" smooth="yes"/>
      <point x="158.328" y="81.0"/>
      <point x="135.0" y="104.328"/>
      <point x="135.0" y="120.0" type="qcurve" smooth="yes"/>
      <point x="135.0" y="600.0" type="line" smooth="yes"/>
      <point x="135.0" y="615.672"/>
      <point x="158.328" y="639.0"/>
      <point x="174.0" y="639.0" type="qcurve" smooth="yes"/>
      <point x="654.0" y="639.0" type="line" smooth="yes"/>
      <point x="669.672" y="639.0"/>
      <point x="693.0" y="615.672"/>
      <point x="693.0" y="600.0" type="qcurve" smooth="yes"/>
      <point x="693.0" y="120.0" type="line" smooth="yes"/>
      <point x="693.0" y="104.328"/>
      <point x="669.672" y="81.0"/>
      <point x="654.0" y="81.0" type="qcurve" smooth="yes"/>
    </contour>
  </outline>
</glyph>
<glyph name="R" format="2">
  <advance width="830.0"/>
  <unicode hex="0052"/>
  <outline>
    <contour>
      <point x="56.0" y="0.0" type="line"/>
      <point x="137.0" y="0.0" type="line"/>
      <point x="137.0" y="269.0" type="line"/>
      <point x="440.0" y="268.0" type="line"/>
      <point x="665.0" y="0.0" type="line"/>
      <point x="772.0" y="0.0" type="line"/>
      <point x="772.0" y="1.0" type="line"/>
      <point x="546.0" y="268.0" type="line"/>
      <point x="656.0" y="268.0" type="line" smooth="yes"/>
      <point x="706.0" y="268.0"/>
      <point x="776.0" y="339.0"/>
      <point x="776.0" y="388.0" type="qcurve" smooth="yes"/>
      <point x="776.0" y="599.0" type="line" smooth="yes"/>
      <point x="776.0" y="648.0"/>
      <point x="706.0" y="719.0"/>
      <point x="656.0" y="719.0" type="qcurve" smooth="yes"/>
      <point x="56.0" y="719.0" type="line"/>
    </contour>
    <contour>
      <point x="176.0" y="350.0" type="line" smooth="yes"/>
      <point x="160.0" y="350.0"/>
      <point x="137.0" y="372.0"/>
      <point x="137.0" y="388.0" type="qcurve" smooth="yes"/>
      <point x="137.0" y="599.0" type="line" smooth="yes"/>
      <point x="137.0" y="615.0"/>
      <point x="160.0" y="638.0"/>
      <point x="176.0" y="638.0" type="qcurve" smooth="yes"/>
      <point x="656.0" y="638.0" type="line" smooth="yes"/>
      <point x="672.0" y="638.0"/>
      <point x="694.0" y="615.0"/>
      <point x="694.0" y="599.0" type="qcurve" smooth="yes"/>
      <point x="694.0" y="388.0" type="line" smooth="yes"/>
      <point x="694.0" y="372.0"/>
      <point x="672.0" y="350.0"/>
      <point x="656.0" y="350.0" type="qcurve" smooth="yes"/>
    </contour>
  </outline>
</glyph>
<glyph name="S" format="2">
  <advance width="822.0"/>
  <unicode hex="0053"/>
  <outline>
    <contour>
      <point x="171.0" y="0.0" type="qcurve" smooth="yes"/>
      <point x="651.0" y="0.0" type="line" smooth="yes"/>
      <point x="701.0" y="0.0"/>
      <point x="771.0" y="70.0"/>
      <point x="771.0" y="120.0" type="qcurve" smooth="yes"/>
      <point x="771.0" y="281.0" type="line" smooth="yes"/>
      <point x="771.0" y="330.254"/>
      <point x="701.0" y="401.0"/>
      <point x="651.0" y="401.0" type="qcurve" smooth="yes"/>
      <point x="171.0" y="401.0" type="line" smooth="yes"/>
      <point x="155.328" y="401.0"/>
      <point x="132.0" y="423.328"/>
      <point x="132.0" y="439.0" type="qcurve" smooth="yes"/>
      <point x="132.0" y="600.0" type="line" smooth="yes"/>
      <point x="132.0" y="615.672"/>
      <point x="155.328" y="639.0"/>
      <point x="171.0" y="639.0" type="qcurve" smooth="yes"/>
      <point x="651.0" y="639.0" type="line" smooth="yes"/>
      <point x="666.672" y="639.0"/>
      <point x="690.0" y="615.672"/>
      <point x="690.0" y="600.0" type="qcurve" smooth="yes"/>
      <point x="690.0" y="572.0" type="line"/>
      <point x="771.0" y="572.0" type="line"/>
      <point x="771.0" y="600.0" type="line" smooth="yes"/>
      <point x="771.0" y="650.0"/>
      <point x="701.0" y="720.0"/>
      <point x="651.0" y="720.0" type="qcurve" smooth="yes"/>
      <point x="171.0" y="720.0" type="line" smooth="yes"/>
      <point x="121.0" y="720.0"/>
      <point x="51.0" y="650.0"/>
      <point x="51.0" y="600.0" type="qcurve" smooth="yes"/>
      <point x="51.0" y="439.0" type="line" smooth="yes"/>
      <point x="51.0" y="389.746"/>
      <point x="121.0" y="319.0"/>
      <point x="171.0" y="319.0" type="qcurve" smooth="yes"/>
      <point x="651.0" y="319.0" type="line" smooth="yes"/>
      <point x="666.672" y="319.0"/>
      <point x="690.0" y="296.672"/>
      <point x="690.0" y="281.0" type="qcurve" smooth="yes"/>
      <point x="690.0" y="120.0" type="line" smooth="yes"/>
      <point x="690.0" y="104.328"/>
      <point x="666.672" y="81.0"/>
      <point x="651.0" y="81.0" type="qcurve" smooth="yes"/>
      <point x="171.0" y="81.0" type="line" smooth="yes"/>
      <point x="155.328" y="81.0"/>
      <point x="132.0" y="104.328"/>
      <point x="132.0" y="120.0" type="qcurve" smooth="yes"/>
      <point x="132.0" y="148.0" type="line"/>
      <point x="51.0" y="148.0" type="line"/>
      <point x="51.0" y="120.0" type="line" smooth="yes"/>
      <point x="51.0" y="70.0"/>
      <point x="121.0" y="0.0"/>
    </contour>
  </outline>
</glyph>
<glyph name="U" format="2">
  <advance width="828.0"/>
  <unicode hex="0055"/>
  <outline>
    <contour>
      <point x="174.0" y="0.0" type="qcurve" smooth="yes"/>
      <point x="654.0" y="0.0" type="line" smooth="yes"/>
      <point x="704.0" y="0.0"/>
      <point x="774.0" y="70.0"/>
      <point x="774.0" y="120.0" type="qcurve" smooth="yes"/>
      <point x="774.0" y="720.0" type="line"/>
      <point x="693.0" y="720.0" type="line"/>
      <point x="693.0" y="120.0" type="line" smooth="yes"/>
      <point x="693.0" y="104.328"/>
      <point x="669.672" y="81.0"/>
      <point x="654.0" y="81.0" type="qcurve" smooth="yes"/>
      <point x="174.0" y="81.0" type="line" smooth="yes"/>
      <point x="158.328" y="81.0"/>
      <point x="135.0" y="104.328"/>
      <point x="135.0" y="120.0" type="qcurve" smooth="yes"/>
      <point x="135.0" y="720.0" type="line"/>
      <point x="54.0" y="720.0" type="line"/>
      <point x="54.0" y="120.0" type="line" smooth="yes"/>
      <point x="54.0" y="70.0"/>
      <point x="124.0" y="0.0"/>
    </contour>
  </outline>
</glyph>
<glyph name="V" format="2">
  <advance width="962.0"/>
  <unicode hex="0056"/>
  <outline>
    <contour>
      <point x="435.0" y="0.0" type="line"/>
      <point x="529.0" y="0.0" type="line"/>
      <point x="945.0" y="719.0" type="line"/>
      <point x="945.0" y="720.0" type="line"/>
      <point x="850.0" y="720.0" type="line"/>
      <point x="482.0" y="79.0" type="line"/>
      <point x="113.0" y="720.0" type="line"/>
      <point x="18.0" y="720.0" type="line"/>
      <point x="18.0" y="719.0" type="line"/>
    </contour>
  </outline>
</glyph>
<glyph name="W" format="2">
  <advance width="1179.0"/>
  <unicode hex="0057"/>
  <outline>
    <contour>
      <point x="297.0" y="0.0" type="line"/>
      <point x="367.0" y="0.0" type="line"/>
      <point x="591.0" y="615.0" type="line"/>
      <point x="815.0" y="0.0" type="line"/>
      <point x="886.0" y="0.0" type="line"/>
      <point x="1148.0" y="720.0" type="line"/>
      <point x="1060.0" y="720.0" type="line"/>
      <point x="851.0" y="142.0" type="line"/>
      <point x="640.0" y="720.0" type="line"/>
      <point x="542.0" y="720.0" type="line"/>
      <point x="332.0" y="142.0" type="line"/>
      <point x="121.0" y="720.0" type="line"/>
      <point x="35.0" y="720.0" type="line"/>
    </contour>
  </outline>
</glyph>
<glyph name="X" format="2">
  <advance width="745.0"/>
  <unicode hex="0058"/>
  <outline>
    <contour>
      <point x="18.0" y="0.0" type="line"/>
      <point x="122.0" y="0.0" type="line"/>
      <point x="373.0" y="297.0" type="line"/>
      <point x="623.0" y="0.0" type="line"/>
      <point x="728.0" y="0.0" type="line"/>
      <point x="728.0" y="1.0" type="line"/>
      <point x="425.0" y="360.0" type="line"/>
      <point x="727.0" y="719.0" type="line"/>
      <point x="727.0" y="720.0" type="line"/>
      <point x="623.0" y="720.0" type="line"/>
      <point x="373.0" y="423.0" type="line"/>
      <point x="122.0" y="720.0" type="line"/>
      <point x="18.0" y="720.0" type="line"/>
      <point x="18.0" y="719.0" type="line"/>
      <point x="320.0" y="360.0" type="line"/>
      <point x="18.0" y="1.0" type="line"/>
    </contour>
  </outline>
</glyph>
<glyph name="Y" format="2">
  <advance width="777.0"/>
  <unicode hex="0059"/>
  <outline>
    <contour>
      <point x="348.0" y="0.0" type="line"/>
      <point x="429.0" y="0.0" type="line"/>
      <point x="429.0" y="271.0" type="line"/>
      <point x="760.0" y="719.0" type="line"/>
      <point x="760.0" y="720.0" type="line"/>
      <point x="665.0" y="720.0" type="line"/>
      <point x="389.0" y="348.0" type="line"/>
      <point x="110.0" y="720.0" type="line"/>
      <point x="18.0" y="720.0" type="line"/>
      <point x="18.0" y="719.0" type="line"/>
      <point x="348.0" y="271.0" type="line"/>
    </contour>
  </outline>
</glyph>
<glyph name="Z" format="2">
  <advance width="821.0"/>
  <unicode hex="005A"/>
  <outline>
    <contour>
      <point x="51.0" y="639.0" type="line"/>
      <point x="679.0" y="639.0" type="line"/>
      <point x="51.0" y="111.0" type="line"/>
      <point x="51.0" y="0.0" type="line"/>
      <point x="771.0" y="0.0" type="line"/>
      <point x="771.0" y="81.0" type="line"/>
      <point x="143.0" y="81.0" type="line"/>
      <point x="771.0" y="609.0" type="line"/>
      <point x="771.0" y="720.0" type="line"/>
      <point x="51.0" y="720.0" type="line"/>
    </contour>
  </outline>
</glyph>
<glyph name="backslash" format="2">
  <advance width="520.0"/>
  <unicode hex="005C"/>
  <outline>
    <contour>
      <point x="511.0" y="107.0" type="line"/>
      <point x="11.0" y="718.0" type="line"/>
      <point x="5.0" y="725.0" type="line"/>
      <point x="5.0" y="621.0" type="line"/>
      <point x="502.0" y="12.0" type="line"/>
      <point x="511.0" y="1.0" type="line"/>
    </contour>
  </outline>
</glyph>
<glyph name="bracketright" format="2">
  <advance width="276.0"/>
  <unicode hex="005D"/>
  <outline>
    <contour>
      <point x="51.0" y="638.0" type="line"/>
      <point x="118.0" y="638.0" type="line"/>
      <point x="118.0" y="82.0" type="line"/>
      <point x="51.0" y="82.0" type="line"/>
      <point x="51.0" y="0.0" type="line"/>
      <point x="201.0" y="0.0" type="line"/>
      <point x="201.0" y="721.0" type="line"/>
      <point x="51.0" y="721.0" type="line"/>
    </contour>
  </outline>
</glyph>
<glyph name="underscore" format="2">
  <advance width="828.0"/>
  <unicode hex="005F"/>
  <outline>
    <contour>
      <point x="782.0" y="0.0" type="line"/>
      <point x="54.0" y="0.0" type="line"/>
      <point x="54.0" y="-82.0" type="line"/>
      <point x="782.0" y="-82.0" type="line"/>
    </contour>
  </outline>
</glyph>
<glyph name="grave" format="2">
  <advance width="213.0"/>
  <unicode hex="0060"/>
  <outline>
    <contour>
      <point x="113.0" y="1011.0" type="line"/>
      <point x="32.0" y="1011.0" type="line"/>
      <point x="67.0" y="872.0" type="line"/>
      <point x="147.0" y="872.0" type="line"/>
    </contour>
  </outline>
</glyph>
<glyph name="a" format="2">
  <advance width="687.0"/>
  <unicode hex="0061"/>
  <anchor x="330.0" y="0.0" name="bottom"/>
  <anchor x="615.0" y="0.0" name="ogonek"/>
  <anchor x="280.0" y="580.0" name="top"/>
  <outline>
    <contour>
      <point x="169.0" y="0.0" type="qcurve" smooth="yes"/>
      <point x="639.0" y="0.0" type="line"/>
      <point x="639.0" y="459.0" type="line" smooth="yes"/>
      <point x="639.0" y="509.0"/>
      <point x="568.0" y="580.0"/>
      <point x="517.0" y="580.0" type="qcurve" smooth="yes"/>
      <point x="48.0" y="580.0" type="line"/>
      <point x="48.0" y="498.0" type="line"/>
      <point x="517.0" y="498.0" type="line" smooth="yes"/>
      <point x="533.0" y="498.0"/>
      <point x="556.0" y="475.0"/>
      <point x="556.0" y="459.0" type="qcurve" smooth="yes"/>
      <point x="556.0" y="331.0" type="line"/>
      <point x="48.0" y="331.0" type="line"/>
      <point x="48.0" y="121.0" type="line" smooth="yes"/>
      <point x="48.0" y="71.0"/>
      <point x="119.0" y="0.0"/>
    </contour>
    <contour>
      <point x="169.0" y="82.0" type="line" smooth="yes"/>
      <point x="153.0" y="82.0"/>
      <point x="130.0" y="105.0"/>
      <point x="130.0" y="121.0" type="qcurve" smooth="yes"/>
      <point x="130.0" y="249.0" type="line"/>
      <point x="556.0" y="249.0" type="line"/>
      <point x="556.0" y="82.0" type="line"/>
    </contour>
  </outline>
</glyph>
<glyph name="b" format="2">
  <advance width="695.0"/>
  <unicode hex="0062"/>
  <outline>
    <contour>
      <point x="56.0" y="0.0" type="line"/>
      <point x="526.0" y="0.0" type="line" smooth="yes"/>
      <point x="576.0" y="0.0"/>
      <point x="647.0" y="71.0"/>
      <point x="647.0" y="121.0" type="qcurve" smooth="yes"/>
      <point x="647.0" y="459.0" type="line" smooth="yes"/>
      <point x="647.0" y="509.0"/>
      <point x="576.0" y="580.0"/>
      <point x="526.0" y="580.0" type="qcurve" smooth="yes"/>
      <point x="138.0" y="580.0" type="line"/>
      <point x="138.0" y="770.0" type="line"/>
      <point x="56.0" y="770.0" type="line"/>
    </contour>
    <contour>
      <point x="178.0" y="82.0" type="line" smooth="yes"/>
      <point x="162.0" y="82.0"/>
      <point x="138.0" y="105.0"/>
      <point x="138.0" y="121.0" type="qcurve" smooth="yes"/>
      <point x="138.0" y="459.0" type="line" smooth="yes"/>
      <point x="138.0" y="475.0"/>
      <point x="162.0" y="498.0"/>
      <point x="178.0" y="498.0" type="qcurve" smooth="yes"/>
      <point x="526.0" y="498.0" type="line" smooth="yes"/>
      <point x="542.0" y="498.0"/>
      <point x="565.0" y="475.0"/>
      <point x="565.0" y="459.0" type="qcurve" smooth="yes"/>
      <point x="565.0" y="121.0" type="line" smooth="yes"/>
      <point x="565.0" y="105.0"/>
      <point x="542.0" y="82.0"/>
      <point x="526.0" y="82.0" type="qcurve" smooth="yes"/>
    </contour>
  </outline>
</glyph>
<glyph name="d" format="2">
  <advance width="667.0"/>
  <unicode hex="0064"/>
  <outline>
    <contour>
      <point x="145.0" y="0.0" type="qcurve" smooth="yes"/>
      <point x="614.0" y="0.0" type="line"/>
      <point x="614.0" y="770.0" type="line"/>
      <point x="532.0" y="770.0" type="line"/>
      <point x="532.0" y="580.0" type="line"/>
      <point x="145.0" y="580.0" type="line" smooth="yes"/>
      <point x="94.254" y="580.0"/>
      <point x="23.0" y="509.0"/>
      <point x="23.0" y="459.0" type="qcurve" smooth="yes"/>
      <point x="23.0" y="121.0" type="line" smooth="yes"/>
      <point x="23.0" y="71.0"/>
      <point x="94.254" y="0.0"/>
    </contour>
    <contour>
      <point x="145.0" y="82.0" type="line" smooth="yes"/>
      <point x="129.328" y="82.0"/>
      <point x="106.0" y="105.328"/>
      <point x="106.0" y="121.0" type="qcurve" smooth="yes"/>
      <point x="106.0" y="459.0" type="line" smooth="yes"/>
      <point x="106.0" y="474.672"/>
      <point x="129.328" y="498.0"/>
      <point x="145.0" y="498.0" type="qcurve" smooth="yes"/>
      <point x="493.0" y="498.0" type="line" smooth="yes"/>
      <point x="508.672" y="498.0"/>
      <point x="532.0" y="474.672"/>
      <point x="532.0" y="459.0" type="qcurve" smooth="yes"/>
      <point x="532.0" y="121.0" type="line" smooth="yes"/>
      <point x="532.0" y="105.328"/>
      <point x="508.672" y="82.0"/>
      <point x="493.0" y="82.0" type="qcurve" smooth="yes"/>
    </contour>
  </outline>
</glyph>
<glyph name="e" format="2">
  <advance width="692.0"/>
  <unicode hex="0065"/>
  <outline>
    <contour>
      <point x="172.0" y="0.0" type="qcurve" smooth="yes"/>
      <point x="642.0" y="0.0" type="line"/>
      <point x="642.0" y="82.0" type="line"/>
      <point x="172.0" y="82.0" type="line" smooth="yes"/>
      <point x="156.328" y="82.0"/>
      <point x="133.0" y="105.328"/>
      <point x="133.0" y="121.0" type="qcurve" smooth="yes"/>
      <point x="133.0" y="249.0" type="line"/>
      <point x="642.0" y="249.0" type="line"/>
      <point x="642.0" y="459.0" type="line" smooth="yes"/>
      <point x="642.0" y="509.0"/>
      <point x="570.746" y="580.0"/>
      <point x="520.0" y="580.0" type="qcurve" smooth="yes"/>
      <point x="172.0" y="580.0" type="line" smooth="yes"/>
      <point x="122.0" y="580.0"/>
      <point x="51.0" y="509.0"/>
      <point x="51.0" y="459.0" type="qcurve" smooth="yes"/>
      <point x="51.0" y="121.0" type="line" smooth="yes"/>
      <point x="51.0" y="71.0"/>
      <point x="122.0" y="0.0"/>
    </contour>
    <contour>
      <point x="133.0" y="331.0" type="line"/>
      <point x="133.0" y="459.0" type="line" smooth="yes"/>
      <point x="133.0" y="474.672"/>
      <point x="156.328" y="498.0"/>
      <point x="172.0" y="498.0" type="qcurve" smooth="yes"/>
      <point x="520.0" y="498.0" type="line" smooth="yes"/>
      <point x="536.418" y="498.0"/>
      <point x="559.0" y="474.672"/>
      <point x="559.0" y="459.0" type="qcurve" smooth="yes"/>
      <point x="559.0" y="331.0" type="line"/>
    </contour>
  </outline>
</glyph>
<glyph name="f" format="2">
  <advance width="407.0"/>
  <unicode hex="0066"/>
  <outline>
    <contour>
      <point x="53.0" y="0.0" type="line"/>
      <point x="135.0" y="0.0" type="line"/>
      <point x="135.0" y="498.0" type="line"/>
      <point x="386.0" y="498.0" type="line"/>
      <point x="386.0" y="580.0" type="line"/>
      <point x="135.0" y="580.0" type="line"/>
      <point x="135.0" y="649.0" type="line" smooth="yes"/>
      <point x="135.0" y="664.672"/>
      <point x="158.328" y="688.0"/>
      <point x="174.0" y="688.0" type="qcurve" smooth="yes"/>
      <point x="386.0" y="688.0" type="line"/>
      <point x="386.0" y="770.0" type="line"/>
      <point x="174.0" y="770.0" type="line" smooth="yes"/>
      <point x="123.254" y="770.0"/>
      <point x="53.0" y="699.746"/>
      <point x="53.0" y="649.0" type="qcurve" smooth="yes"/>
    </contour>
  </outline>
</glyph>
<glyph name="g" format="2">
  <advance width="683.0"/>
  <unicode hex="0067"/>
  <outline>
    <contour>
      <point x="148.0" y="-229.0" type="line"/>
      <point x="510.0" y="-229.0" type="line" smooth="yes"/>
      <point x="560.746" y="-229.0"/>
      <point x="631.0" y="-157.746"/>
      <point x="631.0" y="-107.0" type="qcurve" smooth="yes"/>
      <point x="631.0" y="459.0" type="line" smooth="yes"/>
      <point x="631.0" y="509.0"/>
      <point x="560.746" y="580.0"/>
      <point x="510.0" y="580.0" type="qcurve" smooth="yes"/>
      <point x="162.0" y="580.0" type="line" smooth="yes"/>
      <point x="112.0" y="580.0"/>
      <point x="41.0" y="509.0"/>
      <point x="41.0" y="459.0" type="qcurve" smooth="yes"/>
      <point x="41.0" y="121.0" type="line" smooth="yes"/>
      <point x="41.0" y="71.0"/>
      <point x="112.0" y="0.0"/>
      <point x="162.0" y="0.0" type="qcurve" smooth="yes"/>
      <point x="549.0" y="0.0" type="line"/>
      <point x="549.0" y="-107.0" type="line" smooth="yes"/>
      <point x="549.0" y="-122.672"/>
      <point x="525.672" y="-146.0"/>
      <point x="510.0" y="-146.0" type="qcurve" smooth="yes"/>
      <point x="148.0" y="-146.0" type="line"/>
    </contour>
    <contour>
      <point x="162.0" y="82.0" type="line" smooth="yes"/>
      <point x="146.328" y="82.0"/>
      <point x="123.0" y="105.328"/>
      <point x="123.0" y="121.0" type="qcurve" smooth="yes"/>
      <point x="123.0" y="459.0" type="line" smooth="yes"/>
      <point x="123.0" y="474.672"/>
      <point x="146.328" y="498.0"/>
      <point x="162.0" y="498.0" type="qcurve" smooth="yes"/>
      <point x="510.0" y="498.0" type="line" smooth="yes"/>
      <point x="525.672" y="498.0"/>
      <point x="549.0" y="474.672"/>
      <point x="549.0" y="459.0" type="qcurve" smooth="yes"/>
      <point x="549.0" y="121.0" type="line" smooth="yes"/>
      <point x="549.0" y="105.328"/>
      <point x="525.672" y="82.0"/>
      <point x="510.0" y="82.0" type="qcurve" smooth="yes"/>
    </contour>
  </outline>
</glyph>
<glyph name="h" format="2">
  <advance width="668.0"/>
  <unicode hex="0068"/>
  <outline>
    <contour>
      <point x="54.0" y="0.0" type="line"/>
      <point x="136.0" y="0.0" type="line"/>
      <point x="136.0" y="459.0" type="line" smooth="yes"/>
      <point x="136.0" y="474.672"/>
      <point x="159.582" y="498.0"/>
      <point x="176.0" y="498.0" type="qcurve" smooth="yes"/>
      <point x="524.0" y="498.0" type="line" smooth="yes"/>
      <point x="539.672" y="498.0"/>
      <point x="563.0" y="474.672"/>
      <point x="563.0" y="459.0" type="qcurve" smooth="yes"/>
      <point x="563.0" y="0.0" type="line"/>
      <point x="645.0" y="0.0" type="line"/>
      <point x="645.0" y="459.0" type="line" smooth="yes"/>
      <point x="645.0" y="509.0"/>
      <point x="573.254" y="580.0"/>
      <point x="524.0" y="580.0" type="qcurve" smooth="yes"/>
      <point x="136.0" y="580.0" type="line"/>
      <point x="136.0" y="770.0" type="line"/>
      <point x="54.0" y="770.0" type="line"/>
    </contour>
  </outline>
</glyph>
<glyph name="i" format="2">
  <advance width="210.0"/>
  <unicode hex="0069"/>
  <outline>
    <contour>
      <point x="64.0" y="0.0" type="line"/>
      <point x="146.0" y="0.0" type="line"/>
      <point x="146.0" y="580.0" type="line"/>
      <point x="64.0" y="580.0" type="line"/>
    </contour>
    <contour>
      <point x="64.0" y="688.0" type="line"/>
      <point x="146.0" y="688.0" type="line"/>
      <point x="146.0" y="770.0" type="line"/>
      <point x="64.0" y="770.0" type="line"/>
    </contour>
  </outline>
</glyph>
<glyph name="j" format="2">
  <advance width="239.0"/>
  <unicode hex="006A"/>
  <outline>
    <contour>
      <point x="-187.0" y="-243.0" type="line"/>
      <point x="58.0" y="-243.0" type="line" smooth="yes"/>
      <point x="109.0" y="-243.0"/>
      <point x="180.0" y="-171.746"/>
      <point x="180.0" y="-121.0" type="qcurve" smooth="yes"/>
      <point x="180.0" y="580.0" type="line"/>
      <point x="97.0" y="580.0" type="line"/>
      <point x="97.0" y="-121.0" type="line" smooth="yes"/>
      <point x="97.0" y="-136.672"/>
      <point x="73.672" y="-160.0"/>
      <point x="58.0" y="-160.0" type="qcurve" smooth="yes"/>
      <point x="-187.0" y="-160.0" type="line"/>
    </contour>
    <contour>
      <point x="97.0" y="688.0" type="line"/>
      <point x="180.0" y="688.0" type="line"/>
      <point x="180.0" y="770.0" type="line"/>
      <point x="97.0" y="770.0" type="line"/>
    </contour>
  </outline>
</glyph>
<glyph name="l" format="2">
  <advance width="302.0"/>
  <unicode hex="006C"/>
  <outline>
    <contour>
      <point x="173.0" y="0.0" type="qcurve" smooth="yes"/>
      <point x="271.0" y="0.0" type="line"/>
      <point x="271.0" y="82.0" type="line"/>
      <point x="173.0" y="82.0" type="line" smooth="yes"/>
      <point x="157.328" y="82.0"/>
      <point x="134.0" y="105.328"/>
      <point x="134.0" y="121.0" type="qcurve" smooth="yes"/>
      <point x="134.0" y="770.0" type="line"/>
      <point x="52.0" y="770.0" type="line"/>
      <point x="52.0" y="121.0" type="line" smooth="yes"/>
      <point x="52.0" y="71.0"/>
      <point x="123.0" y="0.0"/>
    </contour>
  </outline>
</glyph>
<glyph name="m" format="2">
  <advance width="983.0"/>
  <unicode hex="006D"/>
  <outline>
    <contour>
      <point x="48.0" y="0.0" type="line"/>
      <point x="131.0" y="0.0" type="line"/>
      <point x="131.0" y="459.0" type="line" smooth="yes"/>
      <point x="131.0" y="475.0"/>
      <point x="154.0" y="498.0"/>
      <point x="170.0" y="498.0" type="qcurve" smooth="yes"/>
      <point x="412.0" y="498.0" type="line" smooth="yes"/>
      <point x="428.0" y="498.0"/>
      <point x="451.0" y="475.0"/>
      <point x="451.0" y="459.0" type="qcurve" smooth="yes"/>
      <point x="451.0" y="0.0" type="line"/>
      <point x="534.0" y="0.0" type="line"/>
      <point x="534.0" y="459.0" type="line" smooth="yes"/>
      <point x="534.0" y="475.0"/>
      <point x="557.0" y="498.0"/>
      <point x="573.0" y="498.0" type="qcurve" smooth="yes"/>
      <point x="814.0" y="498.0" type="line" smooth="yes"/>
      <point x="830.0" y="498.0"/>
      <point x="854.0" y="475.0"/>
      <point x="854.0" y="459.0" type="qcurve" smooth="yes"/>
      <point x="854.0" y="0.0" type="line"/>
      <point x="935.0" y="0.0" type="line"/>
      <point x="935.0" y="459.0" type="line" smooth="yes"/>
      <point x="935.0" y="509.0"/>
      <point x="865.0" y="580.0"/>
      <point x="814.0" y="580.0" type="qcurve" smooth="yes"/>
      <point x="48.0" y="580.0" type="line"/>
    </contour>
  </outline>
</glyph>
<glyph name="o" format="2">
  <advance width="687.0"/>
  <unicode hex="006F"/>
  <outline>
    <contour>
      <point x="169.0" y="0.0" type="qcurve" smooth="yes"/>
      <point x="517.0" y="0.0" type="line" smooth="yes"/>
      <point x="568.0" y="0.0"/>
      <point x="639.0" y="71.0"/>
      <point x="639.0" y="121.0" type="qcurve" smooth="yes"/>
      <point x="639.0" y="459.0" type="line" smooth="yes"/>
      <point x="639.0" y="509.0"/>
      <point x="568.0" y="580.0"/>
      <point x="517.0" y="580.0" type="qcurve" smooth="yes"/>
      <point x="169.0" y="580.0" type="line" smooth="yes"/>
      <point x="119.0" y="580.0"/>
      <point x="48.0" y="509.0"/>
      <point x="48.0" y="459.0" type="qcurve" smooth="yes"/>
      <point x="48.0" y="121.0" type="line" smooth="yes"/>
      <point x="48.0" y="71.0"/>
      <point x="119.0" y="0.0"/>
    </contour>
    <contour>
      <point x="169.0" y="82.0" type="line" smooth="yes"/>
      <point x="153.0" y="82.0"/>
      <point x="130.0" y="105.0"/>
      <point x="130.0" y="121.0" type="qcurve" smooth="yes"/>
      <point x="130.0" y="459.0" type="line" smooth="yes"/>
      <point x="130.0" y="475.0"/>
      <point x="153.0" y="498.0"/>
      <point x="169.0" y="498.0" type="qcurve" smooth="yes"/>
      <point x="517.0" y="498.0" type="line" smooth="yes"/>
      <point x="533.0" y="498.0"/>
      <point x="556.0" y="475.0"/>
      <point x="556.0" y="459.0" type="qcurve" smooth="yes"/>
      <point x="556.0" y="121.0" type="line" smooth="yes"/>
      <point x="556.0" y="105.0"/>
      <point x="533.0" y="82.0"/>
      <point x="517.0" y="82.0" type="qcurve" smooth="yes"/>
    </contour>
  </outline>
</glyph>
<glyph name="q" format="2">
  <advance width="664.0"/>
  <unicode hex="0071"/>
  <outline>
    <contour>
      <point x="529.0" y="-230.0" type="line"/>
      <point x="611.0" y="-230.0" type="line"/>
      <point x="611.0" y="580.0" type="line"/>
      <point x="142.0" y="580.0" type="line" smooth="yes"/>
      <point x="91.254" y="580.0"/>
      <point x="20.0" y="509.0"/>
      <point x="20.0" y="459.0" type="qcurve" smooth="yes"/>
      <point x="20.0" y="121.0" type="line" smooth="yes"/>
      <point x="20.0" y="71.0"/>
      <point x="91.254" y="0.0"/>
      <point x="142.0" y="0.0" type="qcurve" smooth="yes"/>
      <point x="529.0" y="0.0" type="line"/>
    </contour>
    <contour>
      <point x="142.0" y="82.0" type="line" smooth="yes"/>
      <point x="125.582" y="82.0"/>
      <point x="103.0" y="105.328"/>
      <point x="103.0" y="121.0" type="qcurve" smooth="yes"/>
      <point x="103.0" y="459.0" type="line" smooth="yes"/>
      <point x="103.0" y="474.672"/>
      <point x="125.582" y="498.0"/>
      <point x="142.0" y="498.0" type="qcurve" smooth="yes"/>
      <point x="490.0" y="498.0" type="line" smooth="yes"/>
      <point x="505.672" y="498.0"/>
      <point x="529.0" y="474.672"/>
      <point x="529.0" y="459.0" type="qcurve" smooth="yes"/>
      <point x="529.0" y="121.0" type="line" smooth="yes"/>
      <point x="529.0" y="105.328"/>
      <point x="505.672" y="82.0"/>
      <point x="490.0" y="82.0" type="qcurve" smooth="yes"/>
    </contour>
  </outline>
</glyph>
<glyph name="r" format="2">
  <advance width="512.0"/>
  <unicode hex="0072"/>
  <outline>
    <contour>
      <point x="52.0" y="0.0" type="line"/>
      <point x="134.0" y="0.0" type="line"/>
      <point x="134.0" y="459.0" type="line" smooth="yes"/>
      <point x="134.0" y="474.672"/>
      <point x="157.328" y="498.0"/>
      <point x="173.0" y="498.0" type="qcurve" smooth="yes"/>
      <point x="499.0" y="498.0" type="line"/>
      <point x="499.0" y="580.0" type="line"/>
      <point x="173.0" y="580.0" type="line" smooth="yes"/>
      <point x="123.0" y="580.0"/>
      <point x="52.0" y="509.0"/>
      <point x="52.0" y="459.0" type="qcurve" smooth="yes"/>
    </contour>
  </outline>
</glyph>
<glyph name="t" format="2">
  <advance width="435.0"/>
  <unicode hex="0074"/>
  <outline>
    <contour>
      <point x="175.0" y="0.0" type="qcurve" smooth="yes"/>
      <point x="387.0" y="0.0" type="line"/>
      <point x="387.0" y="82.0" type="line"/>
      <point x="175.0" y="82.0" type="line" smooth="yes"/>
      <point x="159.0" y="82.0"/>
      <point x="136.0" y="105.0"/>
      <point x="136.0" y="121.0" type="qcurve" smooth="yes"/>
      <point x="136.0" y="498.0" type="line"/>
      <point x="387.0" y="498.0" type="line"/>
      <point x="387.0" y="580.0" type="line"/>
      <point x="136.0" y="580.0" type="line"/>
      <point x="136.0" y="770.0" type="line"/>
      <point x="54.0" y="770.0" type="line"/>
      <point x="54.0" y="121.0" type="line" smooth="yes"/>
      <point x="54.0" y="71.0"/>
      <point x="124.0" y="0.0"/>
    </contour>
  </outline>
</glyph>
<glyph name="u" format="2">
  <advance width="687.0"/>
  <unicode hex="0075"/>
  <outline>
    <contour>
      <point x="169.0" y="0.0" type="qcurve" smooth="yes"/>
      <point x="517.0" y="0.0" type="line" smooth="yes"/>
      <point x="568.0" y="0.0"/>
      <point x="639.0" y="71.0"/>
      <point x="639.0" y="121.0" type="qcurve" smooth="yes"/>
      <point x="639.0" y="580.0" type="line"/>
      <point x="557.0" y="580.0" type="line"/>
      <point x="557.0" y="121.0" type="line" smooth="yes"/>
      <point x="557.0" y="105.0"/>
      <point x="533.0" y="82.0"/>
      <point x="517.0" y="82.0" type="qcurve" smooth="yes"/>
      <point x="169.0" y="82.0" type="line" smooth="yes"/>
      <point x="153.0" y="82.0"/>
      <point x="130.0" y="105.0"/>
      <point x="130.0" y="121.0" type="qcurve" smooth="yes"/>
      <point x="130.0" y="580.0" type="line"/>
      <point x="48.0" y="580.0" type="line"/>
      <point x="48.0" y="121.0" type="line" smooth="yes"/>
      <point x="48.0" y="71.0"/>
      <point x="119.0" y="0.0"/>
    </contour>
  </outline>
</glyph>
<glyph name="v" format="2">
  <advance width="736.0"/>
  <unicode hex="0076"/>
  <outline>
    <contour>
      <point x="320.0" y="0.0" type="line"/>
      <point x="415.0" y="0.0" type="line"/>
      <point x="736.0" y="579.0" type="line"/>
      <point x="736.0" y="580.0" type="line"/>
      <point x="640.0" y="580.0" type="line"/>
      <point x="368.0" y="80.0" type="line"/>
      <point x="96.0" y="580.0" type="line"/>
      <point x="0.0" y="580.0" type="line"/>
      <point x="0.0" y="579.0" type="line"/>
    </contour>
  </outline>
</glyph>
<glyph name="w" format="2">
  <advance width="1071.0"/>
  <unicode hex="0077"/>
  <outline>
    <contour>
      <point x="263.0" y="0.0" type="line"/>
      <point x="335.0" y="0.0" type="line"/>
      <point x="540.0" y="479.0" type="line"/>
      <point x="756.0" y="0.0" type="line"/>
      <point x="827.0" y="0.0" type="line"/>
      <point x="1046.0" y="580.0" type="line"/>
      <point x="957.0" y="580.0" type="line"/>
      <point x="793.0" y="149.0" type="line"/>
      <point x="594.0" y="580.0" type="line"/>
      <point x="486.0" y="580.0" type="line"/>
      <point x="299.0" y="148.0" type="line"/>
      <point x="123.0" y="580.0" type="line"/>
      <point x="35.0" y="580.0" type="line"/>
    </contour>
  </outline>
</glyph>
<glyph name="x" format="2">
  <advance width="692.0"/>
  <unicode hex="0078"/>
  <outline>
    <contour>
      <point x="46.0" y="0.0" type="line"/>
      <point x="154.0" y="0.0" type="line"/>
      <point x="342.0" y="232.0" type="line"/>
      <point x="531.0" y="0.0" type="line"/>
      <point x="639.0" y="0.0" type="line"/>
      <point x="639.0" y="1.0" type="line"/>
      <point x="396.0" y="295.0" type="line"/>
      <point x="638.0" y="579.0" type="line"/>
      <point x="638.0" y="580.0" type="line"/>
      <point x="531.0" y="580.0" type="line"/>
      <point x="342.0" y="360.0" type="line"/>
      <point x="154.0" y="580.0" type="line"/>
      <point x="46.0" y="580.0" type="line"/>
      <point x="46.0" y="579.0" type="line"/>
      <point x="288.0" y="295.0" type="line"/>
      <point x="46.0" y="1.0" type="line"/>
    </contour>
  </outline>
</glyph>
<glyph name="y" format="2">
  <advance width="686.0"/>
  <unicode hex="0079"/>
  <outline>
    <contour>
      <point x="155.0" y="-230.0" type="line"/>
      <point x="517.0" y="-230.0" type="line" smooth="yes"/>
      <point x="568.0" y="-230.0"/>
      <point x="638.0" y="-159.0"/>
      <point x="638.0" y="-108.0" type="qcurve" smooth="yes"/>
      <point x="638.0" y="578.0" type="line"/>
      <point x="556.0" y="578.0" type="line"/>
      <point x="556.0" y="121.0" type="line" smooth="yes"/>
      <point x="556.0" y="105.0"/>
      <point x="533.0" y="82.0"/>
      <point x="517.0" y="82.0" type="qcurve" smooth="yes"/>
      <point x="169.0" y="82.0" type="line" smooth="yes"/>
      <point x="153.0" y="82.0"/>
      <point x="130.0" y="105.0"/>
      <point x="130.0" y="121.0" type="qcurve" smooth="yes"/>
      <point x="130.0" y="578.0" type="line"/>
      <point x="48.0" y="578.0" type="line"/>
      <point x="48.0" y="121.0" type="line" smooth="yes"/>
      <point x="48.0" y="71.0"/>
      <point x="119.0" y="0.0"/>
      <point x="169.0" y="0.0" type="qcurve" smooth="yes"/>
      <point x="556.0" y="0.0" type="line"/>
      <point x="556.0" y="-108.0" type="line" smooth="yes"/>
      <point x="556.0" y="-124.0"/>
      <point x="533.0" y="-147.0"/>
      <point x="517.0" y="-147.0" type="qcurve" smooth="yes"/>
      <point x="155.0" y="-147.0" type="line"/>
    </contour>
  </outline>
</glyph>
<glyph name="braceleft" format="2">
  <advance width="289.0"/>
  <unicode hex="007B"/>
  <outline>
    <contour>
      <point x="191.0" y="0.0" type="qcurve" smooth="yes"/>
      <point x="220.0" y="0.0" type="line"/>
      <point x="220.0" y="82.0" type="line"/>
      <point x="191.0" y="82.0" type="line" smooth="yes"/>
      <point x="175.328" y="82.0"/>
      <point x="152.0" y="105.328"/>
      <point x="152.0" y="121.0" type="qcurve" smooth="yes"/>
      <point x="152.0" y="291.0" type="line"/>
      <point x="68.0" y="360.0" type="line"/>
      <point x="152.0" y="427.0" type="line"/>
      <point x="152.0" y="598.0" type="line" smooth="yes"/>
      <point x="152.0" y="613.672"/>
      <point x="175.328" y="637.0"/>
      <point x="191.0" y="637.0" type="qcurve" smooth="yes"/>
      <point x="220.0" y="637.0" type="line"/>
      <point x="220.0" y="720.0" type="line"/>
      <point x="191.0" y="720.0" type="line" smooth="yes"/>
      <point x="141.0" y="720.0"/>
      <point x="70.0" y="648.746"/>
      <point x="70.0" y="598.0" type="qcurve" smooth="yes"/>
      <point x="70.0" y="434.0" type="line"/>
      <point x="23.0" y="409.0" type="line"/>
      <point x="23.0" y="313.0" type="line"/>
      <point x="70.0" y="284.0" type="line"/>
      <point x="70.0" y="121.0" type="line" smooth="yes"/>
      <point x="70.0" y="71.0"/>
      <point x="141.0" y="0.0"/>
    </contour>
  </outline>
</glyph>
<glyph name="bar" format="2">
  <advance width="214.0"/>
  <unicode hex="007C"/>
  <outline>
    <contour>
      <point x="54.0" y="-115.0" type="line"/>
      <point x="136.0" y="-115.0" type="line"/>
      <point x="136.0" y="842.0" type="line"/>
      <point x="54.0" y="842.0" type="line"/>
    </contour>
  </outline>
</glyph>
<glyph name="braceright" format="2">
  <advance width="289.0"/>
  <unicode hex="007D"/>
  <outline>
    <contour>
      <point x="51.0" y="0.0" type="line"/>
      <point x="80.0" y="0.0" type="line" smooth="yes"/>
      <point x="130.0" y="0.0"/>
      <point x="201.0" y="71.0"/>
      <point x="201.0" y="121.0" type="qcurve" smooth="yes"/>
      <point x="201.0" y="283.0" type="line"/>
      <point x="247.0" y="312.0" type="line"/>
      <point x="247.0" y="407.0" type="line"/>
      <point x="201.0" y="434.0" type="line"/>
      <point x="201.0" y="598.0" type="line" smooth="yes"/>
      <point x="201.0" y="648.746"/>
      <point x="130.0" y="720.0"/>
      <point x="80.0" y="720.0" type="qcurve" smooth="yes"/>
      <point x="51.0" y="720.0" type="line"/>
      <point x="51.0" y="637.0" type="line"/>
      <point x="80.0" y="637.0" type="line" smooth="yes"/>
      <point x="95.672" y="637.0"/>
      <point x="119.0" y="613.672"/>
      <point x="119.0" y="598.0" type="qcurve" smooth="yes"/>
      <point x="119.0" y="425.0" type="line"/>
      <point x="203.0" y="359.0" type="line"/>
      <point x="119.0" y="290.0" type="line"/>
      <point x="119.0" y="121.0" type="line" smooth="yes"/>
      <point x="119.0" y="105.328"/>
      <point x="95.672" y="82.0"/>
      <point x="80.0" y="82.0" type="qcurve" smooth="yes"/>
      <point x="51.0" y="82.0" type="line"/>
    </contour>
  </outline>
</glyph>
<glyph name="asciitilde" format="2">
  <advance width="404.0"/>
  <unicode hex="007E"/>
  <outline>
    <contour>
      <point x="297.0" y="245.0" type="qcurve" smooth="yes"/>
      <point x="314.91" y="245.0"/>
      <point x="348.821" y="252.776"/>
      <point x="363.0" y="258.0" type="qcurve"/>
      <point x="363.0" y="299.0" type="line"/>
      <point x="347.328" y="291.537"/>
      <point x="314.164" y="283.0"/>
      <point x="297.0" y="283.0" type="qcurve" smooth="yes"/>
      <point x="242.0" y="289.0"/>
      <point x="139.0" y="354.0"/>
      <point x="86.0" y="354.0" type="qcurve" smooth="yes"/>
      <point x="68.09" y="354.0"/>
      <point x="37.433" y="349.478"/>
      <point x="24.0" y="345.0" type="qcurve"/>
      <point x="24.0" y="308.0" type="line"/>
      <point x="38.925" y="313.224"/>
      <point x="74.06" y="316.0"/>
      <point x="86.0" y="316.0" type="qcurve" smooth="yes"/>
      <point x="146.448" y="316.0"/>
      <point x="242.522" y="245.0"/>
    </contour>
  </outline>
</glyph>
<glyph name="cent" format="2">
  <advance width="636.0"/>
  <unicode hex="00A2"/>
  <outline>
    <contour>
      <point x="287.0" y="-115.0" type="line"/>
      <point x="369.0" y="-115.0" type="line"/>
      <point x="369.0" y="0.0" type="line"/>
      <point x="621.0" y="0.0" type="line"/>
      <point x="621.0" y="82.0" type="line"/>
      <point x="369.0" y="82.0" type="line"/>
      <point x="369.0" y="508.0" type="line"/>
      <point x="621.0" y="508.0" type="line"/>
      <point x="621.0" y="591.0" type="line"/>
      <point x="369.0" y="591.0" type="line"/>
      <point x="369.0" y="726.0" type="line"/>
      <point x="287.0" y="726.0" type="line"/>
      <point x="287.0" y="591.0" type="line"/>
      <point x="154.0" y="591.0" type="line" smooth="yes"/>
      <point x="103.254" y="591.0"/>
      <point x="33.0" y="519.746"/>
      <point x="33.0" y="469.0" type="qcurve" smooth="yes"/>
      <point x="33.0" y="121.0" type="line" smooth="yes"/>
      <point x="33.0" y="71.0"/>
      <point x="103.254" y="0.0"/>
      <point x="154.0" y="0.0" type="qcurve" smooth="yes"/>
      <point x="287.0" y="0.0" type="line"/>
    </contour>
    <contour>
      <point x="154.0" y="82.0" type="line" smooth="yes"/>
      <point x="138.328" y="82.0"/>
      <point x="115.0" y="105.328"/>
      <point x="115.0" y="121.0" type="qcurve" smooth="yes"/>
      <point x="115.0" y="469.0" type="line" smooth="yes"/>
      <point x="115.0" y="484.672"/>
      <point x="138.328" y="508.0"/>
      <point x="154.0" y="508.0" type="qcurve" smooth="yes"/>
      <point x="287.0" y="508.0" type="line"/>
      <point x="287.0" y="82.0" type="line"/>
    </contour>
  </outline>
</glyph>
<glyph name="sterling" format="2">
  <advance width="734.0"/>
  <unicode hex="00A3"/>
  <outline>
    <contour>
      <point x="691.0" y="583.0" type="line"/>
      <point x="691.0" y="598.0" type="line" smooth="yes"/>
      <point x="691.0" y="648.746"/>
      <point x="619.746" y="720.0"/>
      <point x="569.0" y="720.0" type="qcurve" smooth="yes"/>
      <point x="266.0" y="720.0" type="line" smooth="yes"/>
      <point x="215.254" y="720.0"/>
      <point x="144.0" y="648.746"/>
      <point x="144.0" y="598.0" type="qcurve" smooth="yes"/>
      <point x="144.0" y="405.0" type="line"/>
      <point x="39.0" y="405.0" type="line"/>
      <point x="39.0" y="323.0" type="line"/>
      <point x="144.0" y="323.0" type="line"/>
      <point x="144.0" y="82.0" type="line"/>
      <point x="39.0" y="82.0" type="line"/>
      <point x="39.0" y="0.0" type="line"/>
      <point x="691.0" y="0.0" type="line"/>
      <point x="691.0" y="82.0" type="line"/>
      <point x="227.0" y="82.0" type="line"/>
      <point x="227.0" y="323.0" type="line"/>
      <point x="579.0" y="323.0" type="line"/>
      <point x="579.0" y="405.0" type="line"/>
      <point x="227.0" y="405.0" type="line"/>
      <point x="227.0" y="598.0" type="line" smooth="yes"/>
      <point x="227.0" y="613.672"/>
      <point x="250.328" y="637.0"/>
      <point x="266.0" y="637.0" type="qcurve" smooth="yes"/>
      <point x="569.0" y="637.0" type="line" smooth="yes"/>
      <point x="585.418" y="637.0"/>
      <point x="608.0" y="613.672"/>
      <point x="608.0" y="598.0" type="qcurve" smooth="yes"/>
      <point x="608.0" y="583.0" type="line"/>
    </contour>
  </outline>
</glyph>
<glyph name="currency" format="2">
  <advance width="671.0"/>
  <unicode hex="00A4"/>
  <outline>
    <contour>
      <point x="211.0" y="60.0" type="qcurve" smooth="yes"/>
      <point x="459.0" y="60.0" type="line" smooth="yes"/>
      <point x="510.0" y="60.0"/>
      <point x="581.0" y="131.0"/>
      <point x="581.0" y="181.0" type="qcurve" smooth="yes"/>
      <point x="581.0" y="399.0" type="line" smooth="yes"/>
      <point x="581.0" y="449.0"/>
      <point x="510.0" y="520.0"/>
      <point x="459.0" y="520.0" type="qcurve" smooth="yes"/>
      <point x="211.0" y="520.0" type="line" smooth="yes"/>
      <point x="161.0" y="520.0"/>
      <point x="90.0" y="449.0"/>
      <point x="90.0" y="399.0" type="qcurve" smooth="yes"/>
      <point x="90.0" y="181.0" type="line" smooth="yes"/>
      <point x="90.0" y="131.0"/>
      <point x="161.0" y="60.0"/>
    </contour>
    <contour>
      <point x="94.0" y="6.0" type="line"/>
      <point x="211.0" y="122.0" type="line"/>
      <point x="153.0" y="180.0" type="line"/>
      <point x="36.0" y="64.0" type="line"/>
    </contour>
    <contour>
      <point x="152.0" y="399.0" type="line"/>
      <point x="210.0" y="457.0" type="line"/>
      <point x="94.0" y="574.0" type="line"/>
      <point x="36.0" y="516.0" type="line"/>
    </contour>
    <contour>
      <point x="211.0" y="142.0" type="line" smooth="yes"/>
      <point x="195.0" y="142.0"/>
      <point x="172.0" y="165.0"/>
      <point x="172.0" y="181.0" type="qcurve" smooth="yes"/>
      <point x="172.0" y="399.0" type="line" smooth="yes"/>
      <point x="172.0" y="415.0"/>
      <point x="195.0" y="438.0"/>
      <point x="211.0" y="438.0" type="qcurve" smooth="yes"/>
      <point x="459.0" y="438.0" type="line" smooth="yes"/>
      <point x="475.0" y="438.0"/>
      <point x="498.0" y="415.0"/>
      <point x="498.0" y="399.0" type="qcurve" smooth="yes"/>
      <point x="498.0" y="181.0" type="line" smooth="yes"/>
      <point x="498.0" y="165.0"/>
      <point x="475.0" y="142.0"/>
      <point x="459.0" y="142.0" type="qcurve" smooth="yes"/>
    </contour>
    <contour>
      <point x="577.0" y="6.0" type="line"/>
      <point x="635.0" y="64.0" type="line"/>
      <point x="519.0" y="181.0" type="line"/>
      <point x="461.0" y="123.0" type="line"/>
    </contour>
    <contour>
      <point x="518.0" y="400.0" type="line"/>
      <point x="635.0" y="516.0" type="line"/>
      <point x="577.0" y="574.0" type="line"/>
      <point x="460.0" y="458.0" type="line"/>
    </contour>
  </outline>
</glyph>
<glyph name="brokenbar" format="2">
  <advance width="190.0"/>
  <unicode hex="00A6"/>
  <outline>
    <contour>
      <point x="54.0" y="453.0" type="line"/>
      <point x="136.0" y="453.0" type="line"/>
      <point x="136.0" y="842.0" type="line"/>
      <point x="54.0" y="842.0" type="line"/>
    </contour>
    <contour>
      <point x="54.0" y="-115.0" type="line"/>
      <point x="136.0" y="-115.0" type="line"/>
      <point x="136.0" y="263.0" type="line"/>
      <point x="54.0" y="263.0" type="line"/>
    </contour>
  </outline>
</glyph>
<glyph name="section" format="2">
  <advance width="832.0"/>
  <unicode hex="00A7"/>
  <outline>
    <contour>
      <point x="695.0" y="-40.0" type="line" smooth="yes"/>
      <point x="776.0" y="-40.0" type="line"/>
      <point x="776.0" y="281.0" type="line" smooth="yes"/>
      <point x="776.0" y="330.0"/>
      <point x="706.0" y="401.0"/>
      <point x="656.0" y="401.0" type="qcurve" smooth="yes"/>
      <point x="176.0" y="401.0" type="line" smooth="yes"/>
      <point x="160.0" y="401.0"/>
      <point x="137.0" y="423.0"/>
      <point x="137.0" y="439.0" type="qcurve" smooth="yes"/>
      <point x="137.0" y="600.0" type="line" smooth="yes"/>
      <point x="137.0" y="616.0"/>
      <point x="160.0" y="639.0"/>
      <point x="176.0" y="639.0" type="qcurve" smooth="yes"/>
      <point x="656.0" y="639.0" type="line" smooth="yes"/>
      <point x="672.0" y="639.0"/>
      <point x="695.0" y="616.0"/>
      <point x="695.0" y="600.0" type="qcurve" smooth="yes"/>
      <point x="695.0" y="572.0" type="line"/>
      <point x="776.0" y="572.0" type="line"/>
      <point x="776.0" y="600.0" type="line" smooth="yes"/>
      <point x="776.0" y="650.0"/>
      <point x="706.0" y="720.0"/>
      <point x="656.0" y="720.0" type="qcurve" smooth="yes"/>
      <point x="176.0" y="720.0" type="line" smooth="yes"/>
      <point x="126.0" y="720.0"/>
      <point x="56.0" y="650.0"/>
      <point x="56.0" y="600.0" type="qcurve" smooth="yes"/>
      <point x="56.0" y="439.0" type="line" smooth="yes"/>
      <point x="56.0" y="390.0"/>
      <point x="126.0" y="319.0"/>
      <point x="176.0" y="319.0" type="qcurve" smooth="yes"/>
      <point x="656.0" y="319.0" type="line" smooth="yes"/>
      <point x="672.0" y="319.0"/>
      <point x="695.0" y="297.0"/>
      <point x="695.0" y="281.0" type="qcurve" smooth="yes"/>
    </contour>
    <contour>
      <point x="176.0" y="-250.0" type="qcurve" smooth="yes"/>
      <point x="656.0" y="-250.0" type="line" smooth="yes"/>
      <point x="706.0" y="-250.0"/>
      <point x="776.0" y="-180.0"/>
      <point x="776.0" y="-130.0" type="qcurve" smooth="yes"/>
      <point x="776.0" y="31.0" type="line" smooth="yes"/>
      <point x="776.0" y="80.0"/>
      <point x="706.0" y="151.0"/>
      <point x="656.0" y="151.0" type="qcurve" smooth="yes"/>
      <point x="176.0" y="151.0" type="line" smooth="yes"/>
      <point x="160.0" y="151.0"/>
      <point x="137.0" y="173.0"/>
      <point x="137.0" y="189.0" type="qcurve" smooth="yes"/>
      <point x="137.0" y="510.0" type="line" smooth="yes"/>
      <point x="56.0" y="510.0" type="line"/>
      <point x="56.0" y="189.0" type="line" smooth="yes"/>
      <point x="56.0" y="140.0"/>
      <point x="126.0" y="69.0"/>
      <point x="176.0" y="69.0" type="qcurve" smooth="yes"/>
      <point x="656.0" y="69.0" type="line" smooth="yes"/>
      <point x="672.0" y="69.0"/>
      <point x="695.0" y="47.0"/>
      <point x="695.0" y="31.0" type="qcurve" smooth="yes"/>
      <point x="695.0" y="-130.0" type="line" smooth="yes"/>
      <point x="695.0" y="-146.0"/>
      <point x="672.0" y="-169.0"/>
      <point x="656.0" y="-169.0" type="qcurve" smooth="yes"/>
      <point x="176.0" y="-169.0" type="line" smooth="yes"/>
      <point x="160.0" y="-169.0"/>
      <point x="137.0" y="-146.0"/>
      <point x="137.0" y="-130.0" type="qcurve" smooth="yes"/>
      <point x="137.0" y="-102.0" type="line"/>
      <point x="56.0" y="-102.0" type="line"/>
      <point x="56.0" y="-130.0" type="line" smooth="yes"/>
      <point x="56.0" y="-180.0"/>
      <point x="126.0" y="-250.0"/>
    </contour>
  </outline>
</glyph>
<glyph name="dieresis" format="2">
  <advance width="385.0"/>
  <unicode hex="00A8"/>
  <outline>
    <contour>
      <point x="316.0" y="954.0" type="line"/>
      <point x="234.0" y="954.0" type="line"/>
      <point x="234.0" y="872.0" type="line"/>
      <point x="316.0" y="872.0" type="line"/>
    </contour>
    <contour>
      <point x="137.0" y="954.0" type="line"/>
      <point x="54.0" y="954.0" type="line"/>
      <point x="54.0" y="872.0" type="line"/>
      <point x="137.0" y="872.0" type="line"/>
    </contour>
  </outline>
</glyph>
<glyph name="copyright" format="2">
  <advance width="848.0"/>
  <unicode hex="00A9"/>
  <outline>
    <contour>
      <point x="184.0" y="0.0" type="qcurve" smooth="yes"/>
      <point x="664.0" y="0.0" type="line" smooth="yes"/>
      <point x="714.0" y="0.0"/>
      <point x="784.0" y="70.0"/>
      <point x="784.0" y="120.0" type="qcurve" smooth="yes"/>
      <point x="784.0" y="600.0" type="line" smooth="yes"/>
      <point x="784.0" y="650.0"/>
      <point x="714.0" y="720.0"/>
      <point x="664.0" y="720.0" type="qcurve" smooth="yes"/>
      <point x="184.0" y="720.0" type="line" smooth="yes"/>
      <point x="134.0" y="720.0"/>
      <point x="64.0" y="650.0"/>
      <point x="64.0" y="600.0" type="qcurve" smooth="yes"/>
      <point x="64.0" y="120.0" type="line" smooth="yes"/>
      <point x="64.0" y="70.0"/>
      <point x="134.0" y="0.0"/>
    </contour>
    <contour>
      <point x="356.0" y="150.0" type="qcurve" smooth="yes"/>
      <point x="574.0" y="150.0" type="line"/>
      <point x="574.0" y="232.0" type="line"/>
      <point x="356.0" y="232.0" type="line" smooth="yes"/>
      <point x="340.0" y="232.0"/>
      <point x="317.0" y="255.0"/>
      <point x="317.0" y="271.0" type="qcurve" smooth="yes"/>
      <point x="317.0" y="440.0" type="line" smooth="yes"/>
      <point x="317.0" y="456.0"/>
      <point x="340.0" y="479.0"/>
      <point x="356.0" y="479.0" type="qcurve" smooth="yes"/>
      <point x="574.0" y="479.0" type="line"/>
      <point x="574.0" y="561.0" type="line"/>
      <point x="356.0" y="561.0" type="line" smooth="yes"/>
      <point x="306.0" y="561.0"/>
      <point x="235.0" y="490.0"/>
      <point x="235.0" y="440.0" type="qcurve" smooth="yes"/>
      <point x="235.0" y="271.0" type="line" smooth="yes"/>
      <point x="235.0" y="221.0"/>
      <point x="306.0" y="150.0"/>
    </contour>
    <contour>
      <point x="184.0" y="81.0" type="line" smooth="yes"/>
      <point x="168.0" y="81.0"/>
      <point x="145.0" y="104.0"/>
      <point x="145.0" y="120.0" type="qcurve" smooth="yes"/>
      <point x="145.0" y="600.0" type="line" smooth="yes"/>
      <point x="145.0" y="616.0"/>
      <point x="168.0" y="639.0"/>
      <point x="184.0" y="639.0" type="qcurve" smooth="yes"/>
      <point x="664.0" y="639.0" type="line" smooth="yes"/>
      <point x="680.0" y="639.0"/>
      <point x="703.0" y="616.0"/>
      <point x="703.0" y="600.0" type="qcurve" smooth="yes"/>
      <point x="703.0" y="120.0" type="line" smooth="yes"/>
      <point x="703.0" y="104.0"/>
      <point x="680.0" y="81.0"/>
      <point x="664.0" y="81.0" type="qcurve" smooth="yes"/>
    </contour>
  </outline>
</glyph>
<glyph name="guillemetleft" format="2">
  <advance width="471.0"/>
  <unicode hex="00AB"/>
  <outline>
    <contour>
      <point x="221.0" y="179.0" type="line"/>
      <point x="120.0" y="380.0" type="line"/>
      <point x="220.0" y="580.0" type="line"/>
      <point x="120.0" y="580.0" type="line"/>
      <point x="20.0" y="380.0" type="line"/>
      <point x="121.0" y="179.0" type="line"/>
    </contour>
    <contour>
      <point x="421.0" y="179.0" type="line"/>
      <point x="320.0" y="380.0" type="line"/>
      <point x="420.0" y="580.0" type="line"/>
      <point x="320.0" y="580.0" type="line"/>
      <point x="220.0" y="380.0" type="line"/>
      <point x="321.0" y="179.0" type="line"/>
    </contour>
  </outline>
</glyph>
<glyph name="logicalnot" format="2">
  <advance width="500.0"/>
  <unicode hex="00AC"/>
  <outline>
    <contour>
      <point x="75.0" y="724.0" type="line"/>
      <point x="75.0" y="642.0" type="line"/>
      <point x="354.0" y="642.0" type="line" smooth="yes"/>
      <point x="370.0" y="642.0"/>
      <point x="393.0" y="618.0"/>
      <point x="393.0" y="603.0" type="qcurve" smooth="yes"/>
      <point x="394.0" y="497.0" type="line"/>
      <point x="476.0" y="497.0" type="line"/>
      <point x="476.0" y="603.0" type="line" smooth="yes"/>
      <point x="476.0" y="653.0"/>
      <point x="405.0" y="724.0"/>
      <point x="355.0" y="724.0" type="qcurve" smooth="yes"/>
    </contour>
  </outline>
</glyph>
<glyph name="degree" format="2">
  <advance width="439.0"/>
  <unicode hex="00B0"/>
  <outline>
    <contour>
      <point x="167.0" y="401.0" type="qcurve" smooth="yes"/>
      <point x="261.0" y="401.0" type="line" smooth="yes"/>
      <point x="311.746" y="401.0"/>
      <point x="383.0" y="472.0"/>
      <point x="383.0" y="522.0" type="qcurve" smooth="yes"/>
      <point x="383.0" y="606.0" type="line" smooth="yes"/>
      <point x="383.0" y="656.746"/>
      <point x="311.746" y="728.0"/>
      <point x="261.0" y="728.0" type="qcurve" smooth="yes"/>
      <point x="167.0" y="728.0" type="line" smooth="yes"/>
      <point x="116.254" y="728.0"/>
      <point x="45.0" y="656.746"/>
      <point x="45.0" y="606.0" type="qcurve" smooth="yes"/>
      <point x="45.0" y="522.0" type="line" smooth="yes"/>
      <point x="45.0" y="472.0"/>
      <point x="116.254" y="401.0"/>
    </contour>
    <contour>
      <point x="145.0" y="462.0" type="line" smooth="yes"/>
      <point x="129.328" y="462.0"/>
      <point x="106.0" y="485.328"/>
      <point x="106.0" y="501.0" type="qcurve" smooth="yes"/>
      <point x="106.0" y="627.0" type="line" smooth="yes"/>
      <point x="106.0" y="643.418"/>
      <point x="129.328" y="666.0"/>
      <point x="145.0" y="666.0" type="qcurve" smooth="yes"/>
      <point x="283.0" y="666.0" type="line" smooth="yes"/>
      <point x="298.672" y="666.0"/>
      <point x="322.0" y="643.418"/>
      <point x="322.0" y="627.0" type="qcurve" smooth="yes"/>
      <point x="322.0" y="501.0" type="line" smooth="yes"/>
      <point x="322.0" y="485.328"/>
      <point x="298.672" y="462.0"/>
      <point x="283.0" y="462.0" type="qcurve" smooth="yes"/>
    </contour>
  </outline>
</glyph>
<glyph name="twosuperior" format="2">
  <advance width="455.0"/>
  <unicode hex="00B2"/>
  <outline>
    <contour>
      <point x="20.0" y="325.0" type="line"/>
      <point x="435.0" y="325.0" type="line"/>
      <point x="435.0" y="371.0" type="line"/>
      <point x="89.0" y="371.0" type="line" smooth="yes"/>
      <point x="80.0" y="371.0"/>
      <point x="67.0" y="385.0"/>
      <point x="67.0" y="394.0" type="qcurve" smooth="yes"/>
      <point x="67.0" y="479.0" type="line" smooth="yes"/>
      <point x="67.0" y="488.0"/>
      <point x="80.0" y="501.0"/>
      <point x="89.0" y="501.0" type="qcurve" smooth="yes"/>
      <point x="366.0" y="501.0" type="line" smooth="yes"/>
      <point x="395.0" y="501.0"/>
      <point x="435.0" y="542.0"/>
      <point x="435.0" y="570.0" type="qcurve" smooth="yes"/>
      <point x="435.0" y="667.0" type="line" smooth="yes"/>
      <point x="435.0" y="696.0"/>
      <point x="395.0" y="737.0"/>
      <point x="366.0" y="737.0" type="qcurve" smooth="yes"/>
      <point x="89.0" y="737.0" type="line" smooth="yes"/>
      <point x="60.0" y="737.0"/>
      <point x="20.0" y="696.0"/>
      <point x="20.0" y="667.0" type="qcurve" smooth="yes"/>
      <point x="20.0" y="651.0" type="line"/>
      <point x="67.0" y="651.0" type="line"/>
      <point x="67.0" y="667.0" type="line" smooth="yes"/>
      <point x="67.0" y="676.0"/>
      <point x="80.0" y="689.0"/>
      <point x="89.0" y="689.0" type="qcurve" smooth="yes"/>
      <point x="366.0" y="689.0" type="line" smooth="yes"/>
      <point x="375.0" y="689.0"/>
      <point x="388.0" y="676.0"/>
      <point x="388.0" y="667.0" type="qcurve" smooth="yes"/>
      <point x="388.0" y="570.0" type="line" smooth="yes"/>
      <point x="388.0" y="561.0"/>
      <point x="375.0" y="548.0"/>
      <point x="366.0" y="548.0" type="qcurve" smooth="yes"/>
      <point x="89.0" y="548.0" type="line" smooth="yes"/>
      <point x="60.0" y="548.0"/>
      <point x="20.0" y="508.0"/>
      <point x="20.0" y="479.0" type="qcurve" smooth="yes"/>
    </contour>
  </outline>
</glyph>
<glyph name="threesuperior" format="2">
  <advance width="456.0"/>
  <unicode hex="00B3"/>
  <outline>
    <contour>
      <point x="90.0" y="325.0" type="qcurve" smooth="yes"/>
      <point x="367.0" y="325.0" type="line" smooth="yes"/>
      <point x="395.0" y="325.0"/>
      <point x="436.0" y="365.0"/>
      <point x="436.0" y="394.0" type="qcurve" smooth="yes"/>
      <point x="436.0" y="489.0" type="line" smooth="yes"/>
      <point x="436.0" y="504.0"/>
      <point x="425.0" y="537.0"/>
      <point x="411.0" y="551.0" type="qcurve"/>
      <point x="414.0" y="557.0"/>
      <point x="418.0" y="572.0"/>
      <point x="418.0" y="581.0" type="qcurve" smooth="yes"/>
      <point x="418.0" y="667.0" type="line" smooth="yes"/>
      <point x="418.0" y="696.0"/>
      <point x="378.0" y="737.0"/>
      <point x="349.0" y="737.0" type="qcurve" smooth="yes"/>
      <point x="90.0" y="737.0" type="line" smooth="yes"/>
      <point x="61.0" y="737.0"/>
      <point x="20.0" y="696.0"/>
      <point x="20.0" y="667.0" type="qcurve" smooth="yes"/>
      <point x="20.0" y="652.0" type="line"/>
      <point x="67.0" y="652.0" type="line"/>
      <point x="67.0" y="667.0" type="line" smooth="yes"/>
      <point x="67.0" y="676.0"/>
      <point x="81.0" y="689.0"/>
      <point x="90.0" y="689.0" type="qcurve" smooth="yes"/>
      <point x="349.0" y="689.0" type="line" smooth="yes"/>
      <point x="358.0" y="689.0"/>
      <point x="371.0" y="676.0"/>
      <point x="371.0" y="667.0" type="qcurve" smooth="yes"/>
      <point x="371.0" y="581.0" type="line" smooth="yes"/>
      <point x="371.0" y="572.0"/>
      <point x="358.0" y="558.0"/>
      <point x="349.0" y="558.0" type="qcurve" smooth="yes"/>
      <point x="99.0" y="558.0" type="line"/>
      <point x="99.0" y="511.0" type="line"/>
      <point x="367.0" y="511.0" type="line" smooth="yes"/>
      <point x="376.0" y="511.0"/>
      <point x="389.0" y="498.0"/>
      <point x="389.0" y="489.0" type="qcurve" smooth="yes"/>
      <point x="389.0" y="394.0" type="line" smooth="yes"/>
      <point x="389.0" y="385.0"/>
      <point x="376.0" y="371.0"/>
      <point x="367.0" y="371.0" type="qcurve" smooth="yes"/>
      <point x="90.0" y="371.0" type="line" smooth="yes"/>
      <point x="81.0" y="371.0"/>
      <point x="67.0" y="385.0"/>
      <point x="67.0" y="394.0" type="qcurve" smooth="yes"/>
      <point x="67.0" y="403.0" type="line"/>
      <point x="20.0" y="403.0" type="line"/>
      <point x="20.0" y="394.0" type="line" smooth="yes"/>
      <point x="20.0" y="365.0"/>
      <point x="61.0" y="325.0"/>
    </contour>
  </outline>
</glyph>
<glyph name="paragraph" format="2">
  <advance width="833.0"/>
  <unicode hex="00B6"/>
  <outline>
    <contour>
      <point x="481.0" y="0.0" type="line"/>
      <point x="563.0" y="0.0" type="line"/>
      <point x="563.0" y="271.0" type="line"/>
      <point x="701.0" y="271.0" type="line"/>
      <point x="701.0" y="0.0" type="line"/>
      <point x="783.0" y="0.0" type="line"/>
      <point x="783.0" y="727.0" type="line"/>
      <point x="177.0" y="727.0" type="line" smooth="yes"/>
      <point x="126.254" y="727.0"/>
      <point x="56.0" y="655.0"/>
      <point x="56.0" y="605.0" type="qcurve" smooth="yes"/>
      <point x="56.0" y="392.0" type="line" smooth="yes"/>
      <point x="56.0" y="342.746"/>
      <point x="126.254" y="271.0"/>
      <point x="177.0" y="271.0" type="qcurve" smooth="yes"/>
      <point x="481.0" y="271.0" type="line"/>
    </contour>
    <contour>
      <point x="177.0" y="353.0" type="line" smooth="yes"/>
      <point x="161.328" y="353.0"/>
      <point x="138.0" y="376.328"/>
      <point x="138.0" y="392.0" type="qcurve" smooth="yes"/>
      <point x="138.0" y="605.0" type="line" smooth="yes"/>
      <point x="138.0" y="620.672"/>
      <point x="161.328" y="644.0"/>
      <point x="177.0" y="644.0" type="qcurve" smooth="yes"/>
      <point x="481.0" y="644.0" type="line"/>
      <point x="481.0" y="353.0" type="line"/>
    </contour>
    <contour>
      <point x="563.0" y="353.0" type="line"/>
      <point x="563.0" y="644.0" type="line"/>
      <point x="701.0" y="644.0" type="line"/>
      <point x="701.0" y="353.0" type="line"/>
    </contour>
  </outline>
</glyph>
<glyph name="periodcentered" format="2">
  <advance width="190.0"/>
  <unicode hex="00B7"/>
  <outline>
    <contour>
      <point x="54.0" y="255.0" type="line"/>
      <point x="136.0" y="255.0" type="line"/>
      <point x="136.0" y="337.0" type="line"/>
      <point x="54.0" y="337.0" type="line"/>
    </contour>
  </outline>
</glyph>
<glyph name="onesuperior" format="2">
  <advance width="232.0"/>
  <unicode hex="00B9"/>
  <outline>
    <contour>
      <point x="134.0" y="325.0" type="line"/>
      <point x="182.0" y="325.0" type="line"/>
      <point x="182.0" y="737.0" type="line"/>
      <point x="118.0" y="737.0" type="line"/>
      <point x="10.0" y="608.0" type="line"/>
      <point x="71.0" y="608.0" type="line"/>
      <point x="134.0" y="684.0" type="line"/>
    </contour>
  </outline>
</glyph>
<glyph name="guillemetright" format="2">
  <advance width="471.0"/>
  <unicode hex="00BB"/>
  <outline>
    <contour>
      <point x="250.0" y="580.0" type="line"/>
      <point x="351.0" y="379.0" type="line"/>
      <point x="251.0" y="179.0" type="line"/>
      <point x="351.0" y="179.0" type="line"/>
      <point x="451.0" y="379.0" type="line"/>
      <point x="350.0" y="580.0" type="line"/>
    </contour>
    <contour>
      <point x="50.0" y="580.0" type="line"/>
      <point x="151.0" y="379.0" type="line"/>
      <point x="51.0" y="179.0" type="line"/>
      <point x="151.0" y="179.0" type="line"/>
      <point x="251.0" y="379.0" type="line"/>
      <point x="150.0" y="580.0" type="line"/>
    </contour>
  </outline>
</glyph>
<glyph name="onequarter" format="2">
  <advance width="500.0"/>
  <unicode hex="00BC"/>
  <outline>
    <contour>
      <point x="36.0" y="0.0" type="line"/>
      <point x="78.0" y="0.0" type="line"/>
      <point x="474.0" y="720.0" type="line"/>
      <point x="433.0" y="720.0" type="line"/>
    </contour>
    <contour>
      <point x="124.0" y="325.0" type="line"/>
      <point x="172.0" y="325.0" type="line"/>
      <point x="172.0" y="737.0" type="line"/>
      <point x="108.0" y="737.0" type="line"/>
      <point x="0.0" y="608.0" type="line"/>
      <point x="61.0" y="608.0" type="line"/>
      <point x="124.0" y="684.0" type="line"/>
    </contour>
    <contour>
      <point x="512.0" y="0.0" type="line"/>
      <point x="559.0" y="0.0" type="line"/>
      <point x="559.0" y="106.0" type="line"/>
      <point x="623.0" y="106.0" type="line"/>
      <point x="623.0" y="153.0" type="line"/>
      <point x="559.0" y="153.0" type="line"/>
      <point x="559.0" y="412.0" type="line"/>
      <point x="506.0" y="412.0" type="line"/>
      <point x="225.0" y="158.0" type="line"/>
      <point x="225.0" y="106.0" type="line"/>
      <point x="512.0" y="106.0" type="line"/>
    </contour>
    <contour>
      <point x="285.0" y="153.0" type="line"/>
      <point x="512.0" y="355.0" type="line"/>
      <point x="512.0" y="153.0" type="line"/>
    </contour>
  </outline>
</glyph>
<glyph name="onehalf" format="2">
  <advance width="765.0"/>
  <unicode hex="00BD"/>
  <outline>
    <contour>
      <point x="36.0" y="0.0" type="line"/>
      <point x="78.0" y="0.0" type="line"/>
      <point x="474.0" y="720.0" type="line"/>
      <point x="433.0" y="720.0" type="line"/>
    </contour>
    <contour>
      <point x="124.0" y="325.0" type="line"/>
      <point x="172.0" y="325.0" type="line"/>
      <point x="172.0" y="737.0" type="line"/>
      <point x="108.0" y="737.0" type="line"/>
      <point x="0.0" y="608.0" type="line"/>
      <point x="61.0" y="608.0" type="line"/>
      <point x="124.0" y="684.0" type="line"/>
    </contour>
    <contour>
      <point x="320.0" y="0.0" type="line"/>
      <point x="735.0" y="0.0" type="line"/>
      <point x="735.0" y="46.0" type="line"/>
      <point x="389.0" y="46.0" type="line" smooth="yes"/>
      <point x="380.0" y="46.0"/>
      <point x="367.0" y="60.0"/>
      <point x="367.0" y="69.0" type="qcurve" smooth="yes"/>
      <point x="367.0" y="154.0" type="line" smooth="yes"/>
      <point x="367.0" y="163.0"/>
      <point x="380.0" y="176.0"/>
      <point x="389.0" y="176.0" type="qcurve" smooth="yes"/>
      <point x="666.0" y="176.0" type="line" smooth="yes"/>
      <point x="695.0" y="176.0"/>
      <point x="735.0" y="217.0"/>
      <point x="735.0" y="245.0" type="qcurve" smooth="yes"/>
      <point x="735.0" y="342.0" type="line" smooth="yes"/>
      <point x="735.0" y="371.0"/>
      <point x="695.0" y="412.0"/>
      <point x="666.0" y="412.0" type="qcurve" smooth="yes"/>
      <point x="389.0" y="412.0" type="line" smooth="yes"/>
      <point x="360.0" y="412.0"/>
      <point x="320.0" y="371.0"/>
      <point x="320.0" y="342.0" type="qcurve" smooth="yes"/>
      <point x="320.0" y="326.0" type="line"/>
      <point x="367.0" y="326.0" type="line"/>
      <point x="367.0" y="342.0" type="line" smooth="yes"/>
      <point x="367.0" y="351.0"/>
      <point x="380.0" y="364.0"/>
      <point x="389.0" y="364.0" type="qcurve" smooth="yes"/>
      <point x="666.0" y="364.0" type="line" smooth="yes"/>
      <point x="675.0" y="364.0"/>
      <point x="688.0" y="351.0"/>
      <point x="688.0" y="342.0" type="qcurve" smooth="yes"/>
      <point x="688.0" y="245.0" type="line" smooth="yes"/>
      <point x="688.0" y="236.0"/>
      <point x="675.0" y="223.0"/>
      <point x="666.0" y="223.0" type="qcurve" smooth="yes"/>
      <point x="389.0" y="223.0" type="line" smooth="yes"/>
      <point x="360.0" y="223.0"/>
      <point x="320.0" y="183.0"/>
      <point x="320.0" y="154.0" type="qcurve" smooth="yes"/>
    </contour>
  </outline>
</glyph>
<glyph name="threequarters" format="2">
  <advance width="893.0"/>
  <unicode hex="00BE"/>
  <outline>
    <contour>
      <point x="276.0" y="0.0" type="line"/>
      <point x="318.0" y="0.0" type="line"/>
      <point x="714.0" y="720.0" type="line"/>
      <point x="673.0" y="720.0" type="line"/>
    </contour>
    <contour>
      <point x="100.0" y="325.0" type="qcurve" smooth="yes"/>
      <point x="377.0" y="325.0" type="line" smooth="yes"/>
      <point x="405.0" y="325.0"/>
      <point x="446.0" y="365.0"/>
      <point x="446.0" y="394.0" type="qcurve" smooth="yes"/>
      <point x="446.0" y="489.0" type="line" smooth="yes"/>
      <point x="446.0" y="504.0"/>
      <point x="435.0" y="537.0"/>
      <point x="421.0" y="551.0" type="qcurve"/>
      <point x="424.0" y="557.0"/>
      <point x="428.0" y="572.0"/>
      <point x="428.0" y="581.0" type="qcurve" smooth="yes"/>
      <point x="428.0" y="667.0" type="line" smooth="yes"/>
      <point x="428.0" y="696.0"/>
      <point x="388.0" y="737.0"/>
      <point x="359.0" y="737.0" type="qcurve" smooth="yes"/>
      <point x="100.0" y="737.0" type="line" smooth="yes"/>
      <point x="71.0" y="737.0"/>
      <point x="30.0" y="696.0"/>
      <point x="30.0" y="667.0" type="qcurve" smooth="yes"/>
      <point x="30.0" y="652.0" type="line"/>
      <point x="77.0" y="652.0" type="line"/>
      <point x="77.0" y="667.0" type="line" smooth="yes"/>
      <point x="77.0" y="676.0"/>
      <point x="91.0" y="689.0"/>
      <point x="100.0" y="689.0" type="qcurve" smooth="yes"/>
      <point x="359.0" y="689.0" type="line" smooth="yes"/>
      <point x="368.0" y="689.0"/>
      <point x="381.0" y="676.0"/>
      <point x="381.0" y="667.0" type="qcurve" smooth="yes"/>
      <point x="381.0" y="581.0" type="line" smooth="yes"/>
      <point x="381.0" y="572.0"/>
      <point x="368.0" y="558.0"/>
      <point x="359.0" y="558.0" type="qcurve" smooth="yes"/>
      <point x="109.0" y="558.0" type="line"/>
      <point x="109.0" y="511.0" type="line"/>
      <point x="377.0" y="511.0" type="line" smooth="yes"/>
      <point x="386.0" y="511.0"/>
      <point x="399.0" y="498.0"/>
      <point x="399.0" y="489.0" type="qcurve" smooth="yes"/>
      <point x="399.0" y="394.0" type="line" smooth="yes"/>
      <point x="399.0" y="385.0"/>
      <point x="386.0" y="371.0"/>
      <point x="377.0" y="371.0" type="qcurve" smooth="yes"/>
      <point x="100.0" y="371.0" type="line" smooth="yes"/>
      <point x="91.0" y="371.0"/>
      <point x="77.0" y="385.0"/>
      <point x="77.0" y="394.0" type="qcurve" smooth="yes"/>
      <point x="77.0" y="403.0" type="line"/>
      <point x="30.0" y="403.0" type="line"/>
      <point x="30.0" y="394.0" type="line" smooth="yes"/>
      <point x="30.0" y="365.0"/>
      <point x="71.0" y="325.0"/>
    </contour>
    <contour>
      <point x="752.0" y="0.0" type="line"/>
      <point x="799.0" y="0.0" type="line"/>
      <point x="799.0" y="106.0" type="line"/>
      <point x="863.0" y="106.0" type="line"/>
      <point x="863.0" y="153.0" type="line"/>
      <point x="799.0" y="153.0" type="line"/>
      <point x="799.0" y="412.0" type="line"/>
      <point x="746.0" y="412.0" type="line"/>
      <point x="465.0" y="158.0" type="line"/>
      <point x="465.0" y="106.0" type="line"/>
      <point x="752.0" y="106.0" type="line"/>
    </contour>
    <contour>
      <point x="525.0" y="153.0" type="line"/>
      <point x="752.0" y="355.0" type="line"/>
      <point x="752.0" y="153.0" type="line"/>
    </contour>
  </outline>
</glyph>
<glyph name="questiondown" format="2">
  <advance width="675.0"/>
  <unicode hex="00BF"/>
  <outline>
    <contour>
      <point x="649.0" y="0.0" type="line"/>
      <point x="648.0" y="82.0" type="line"/>
      <point x="140.0" y="82.0" type="line" smooth="yes"/>
      <point x="124.328" y="82.0"/>
      <point x="101.0" y="105.328"/>
      <point x="101.0" y="121.0" type="qcurve" smooth="yes"/>
      <point x="101.0" y="315.0" type="line" smooth="yes"/>
      <point x="101.0" y="330.672"/>
      <point x="124.328" y="354.0"/>
      <point x="140.0" y="354.0" type="qcurve" smooth="yes"/>
      <point x="413.0" y="354.0" type="line" smooth="yes"/>
      <point x="463.746" y="354.0"/>
      <point x="534.0" y="425.254"/>
      <point x="534.0" y="476.0" type="qcurve" smooth="yes"/>
      <point x="534.0" y="524.0" type="line"/>
      <point x="452.0" y="524.0" type="line"/>
      <point x="452.0" y="476.0" type="line" smooth="yes"/>
      <point x="452.0" y="460.328"/>
      <point x="428.672" y="437.0"/>
      <point x="413.0" y="437.0" type="qcurve" smooth="yes"/>
      <point x="140.0" y="437.0" type="line" smooth="yes"/>
      <point x="89.254" y="437.0"/>
      <point x="19.0" y="365.746"/>
      <point x="19.0" y="315.0" type="qcurve" smooth="yes"/>
      <point x="19.0" y="121.0" type="line" smooth="yes"/>
      <point x="19.0" y="71.0"/>
      <point x="89.0" y="0.0"/>
      <point x="140.0" y="0.0" type="qcurve" smooth="yes"/>
    </contour>
    <contour>
      <point x="534.0" y="728.0" type="line"/>
      <point x="452.0" y="728.0" type="line"/>
      <point x="452.0" y="645.0" type="line"/>
      <point x="534.0" y="645.0" type="line"/>
    </contour>
  </outline>
</glyph>
<glyph name="Agrave" format="2">
  <advance width="836.0"/>
  <unicode hex="00C0"/>
  <anchor x="418.0" y="0.0" name="bottom"/>
  <anchor x="740.0" y="0.0" name="ogonek"/>
  <anchor x="419.0" y="750.0" name="top"/>
  <outline>
    <contour>
      <point x="379.0" y="865.0" type="line"/>
      <point x="459.0" y="865.0" type="line"/>
      <point x="425.0" y="1004.0" type="line"/>
      <point x="344.0" y="1004.0" type="line"/>
    </contour>
    <component base="A"/>
  </outline>
</glyph>
<glyph name="Aacute" format="2">
  <advance width="836.0"/>
  <unicode hex="00C1"/>
  <outline>
    <contour>
      <point x="58.0" y="0.0" type="line"/>
      <point x="139.0" y="0.0" type="line"/>
      <point x="139.0" y="263.0" type="line"/>
      <point x="697.0" y="263.0" type="line"/>
      <point x="697.0" y="0.0" type="line"/>
      <point x="778.0" y="0.0" type="line"/>
      <point x="778.0" y="600.0" type="line" smooth="yes"/>
      <point x="778.0" y="650.0"/>
      <point x="708.0" y="720.0"/>
      <point x="658.0" y="720.0" type="qcurve" smooth="yes"/>
      <point x="178.0" y="720.0" type="line" smooth="yes"/>
      <point x="128.0" y="720.0"/>
      <point x="58.0" y="650.0"/>
      <point x="58.0" y="600.0" type="qcurve" smooth="yes"/>
    </contour>
    <contour>
      <point x="139.0" y="344.0" type="line"/>
      <point x="139.0" y="600.0" type="line" smooth="yes"/>
      <point x="139.0" y="616.0"/>
      <point x="162.0" y="639.0"/>
      <point x="178.0" y="639.0" type="qcurve" smooth="yes"/>
      <point x="658.0" y="639.0" type="line" smooth="yes"/>
      <point x="674.0" y="639.0"/>
      <point x="697.0" y="616.0"/>
      <point x="697.0" y="600.0" type="qcurve" smooth="yes"/>
      <point x="697.0" y="344.0" type="line"/>
    </contour>
    <contour>
      <point x="344.0" y="864.0" type="line"/>
      <point x="424.0" y="864.0" type="line"/>
      <point x="458.0" y="1003.0" type="line"/>
      <point x="379.0" y="1003.0" type="line"/>
    </contour>
  </outline>
</glyph>
<glyph name="Acircumflex" format="2">
  <advance width="836.0"/>
  <unicode hex="00C2"/>
  <outline>
    <contour>
      <point x="58.0" y="0.0" type="line"/>
      <point x="139.0" y="0.0" type="line"/>
      <point x="139.0" y="263.0" type="line"/>
      <point x="697.0" y="263.0" type="line"/>
      <point x="697.0" y="0.0" type="line"/>
      <point x="778.0" y="0.0" type="line"/>
      <point x="778.0" y="600.0" type="line" smooth="yes"/>
      <point x="778.0" y="650.0"/>
      <point x="708.0" y="720.0"/>
      <point x="658.0" y="720.0" type="qcurve" smooth="yes"/>
      <point x="178.0" y="720.0" type="line" smooth="yes"/>
      <point x="128.0" y="720.0"/>
      <point x="58.0" y="650.0"/>
      <point x="58.0" y="600.0" type="qcurve" smooth="yes"/>
    </contour>
    <contour>
      <point x="139.0" y="344.0" type="line"/>
      <point x="139.0" y="600.0" type="line" smooth="yes"/>
      <point x="139.0" y="615.672"/>
      <point x="162.328" y="639.0"/>
      <point x="178.0" y="639.0" type="qcurve" smooth="yes"/>
      <point x="658.0" y="639.0" type="line" smooth="yes"/>
      <point x="673.672" y="639.0"/>
      <point x="697.0" y="615.672"/>
      <point x="697.0" y="600.0" type="qcurve" smooth="yes"/>
      <point x="697.0" y="344.0" type="line"/>
    </contour>
    <contour>
      <point x="296.0" y="864.0" type="line"/>
      <point x="337.0" y="864.0" type="line"/>
      <point x="397.0" y="949.0" type="line"/>
      <point x="455.0" y="864.0" type="line"/>
      <point x="497.0" y="864.0" type="line"/>
      <point x="426.0" y="981.0" type="line"/>
      <point x="367.0" y="981.0" type="line"/>
    </contour>
  </outline>
</glyph>
<glyph name="Atilde" format="2">
  <advance width="836.0"/>
  <unicode hex="00C3"/>
  <anchor x="418.0" y="0.0" name="bottom"/>
  <anchor x="740.0" y="0.0" name="ogonek"/>
  <anchor x="419.0" y="750.0" name="top"/>
  <outline>
    <contour>
      <point x="515.0" y="869.0" type="qcurve" smooth="yes"/>
      <point x="532.91" y="869.0"/>
      <point x="566.821" y="877.776"/>
      <point x="581.0" y="883.0" type="qcurve"/>
      <point x="581.0" y="934.0" type="line"/>
      <point x="565.328" y="926.537"/>
      <point x="531.0" y="917.0"/>
      <point x="515.0" y="917.0" type="qcurve" smooth="yes"/>
      <point x="435.0" y="917.0"/>
      <point x="365.0" y="989.0"/>
      <point x="304.0" y="989.0" type="qcurve" smooth="yes"/>
      <point x="286.09" y="989.0"/>
      <point x="255.433" y="984.478"/>
      <point x="242.0" y="980.0" type="qcurve"/>
      <point x="242.0" y="933.0" type="line"/>
      <point x="256.925" y="938.224"/>
      <point x="292.06" y="941.0"/>
      <point x="304.0" y="941.0" type="qcurve" smooth="yes"/>
      <point x="365.194" y="941.0"/>
      <point x="461.269" y="869.0"/>
    </contour>
    <component base="A"/>
  </outline>
</glyph>
<glyph name="Adieresis" format="2">
  <advance width="836.0"/>
  <unicode hex="00C4"/>
  <outline>
    <contour>
      <point x="58.0" y="0.0" type="line"/>
      <point x="139.0" y="0.0" type="line"/>
      <point x="139.0" y="263.0" type="line"/>
      <point x="697.0" y="263.0" type="line"/>
      <point x="697.0" y="0.0" type="line"/>
      <point x="778.0" y="0.0" type="line"/>
      <point x="778.0" y="600.0" type="line" smooth="yes"/>
      <point x="778.0" y="650.0"/>
      <point x="708.0" y="720.0"/>
      <point x="658.0" y="720.0" type="qcurve" smooth="yes"/>
      <point x="178.0" y="720.0" type="line" smooth="yes"/>
      <point x="128.0" y="720.0"/>
      <point x="58.0" y="650.0"/>
      <point x="58.0" y="600.0" type="qcurve" smooth="yes"/>
    </contour>
    <contour>
      <point x="139.0" y="344.0" type="line"/>
      <point x="139.0" y="600.0" type="line" smooth="yes"/>
      <point x="139.0" y="615.672"/>
      <point x="162.328" y="639.0"/>
      <point x="178.0" y="639.0" type="qcurve" smooth="yes"/>
      <point x="658.0" y="639.0" type="line" smooth="yes"/>
      <point x="673.672" y="639.0"/>
      <point x="697.0" y="615.672"/>
      <point x="697.0" y="600.0" type="qcurve" smooth="yes"/>
      <point x="697.0" y="344.0" type="line"/>
    </contour>
    <contour>
      <point x="279.0" y="855.0" type="line"/>
      <point x="362.0" y="855.0" type="line"/>
      <point x="362.0" y="937.0" type="line"/>
      <point x="279.0" y="937.0" type="line"/>
    </contour>
    <contour>
      <point x="459.0" y="855.0" type="line"/>
      <point x="541.0" y="855.0" type="line"/>
      <point x="541.0" y="937.0" type="line"/>
      <point x="459.0" y="937.0" type="line"/>
    </contour>
  </outline>
</glyph>
<glyph name="AE" format="2">
  <advance width="1375.0"/>
  <unicode hex="00C6"/>
  <outline>
    <contour>
      <point x="54.0" y="0.0" type="line"/>
      <point x="135.0" y="0.0" type="line"/>
      <point x="135.0" y="263.0" type="line"/>
      <point x="693.0" y="263.0" type="line"/>
      <point x="693.0" y="0.0" type="line"/>
      <point x="1350.0" y="0.0" type="line"/>
      <point x="1350.0" y="81.0" type="line"/>
      <point x="774.0" y="81.0" type="line"/>
      <point x="774.0" y="319.0" type="line"/>
      <point x="1237.0" y="319.0" type="line"/>
      <point x="1237.0" y="401.0" type="line"/>
      <point x="774.0" y="401.0" type="line"/>
      <point x="774.0" y="639.0" type="line"/>
      <point x="1350.0" y="639.0" type="line"/>
      <point x="1350.0" y="720.0" type="line"/>
      <point x="174.0" y="720.0" type="line" smooth="yes"/>
      <point x="124.0" y="720.0"/>
      <point x="54.0" y="650.0"/>
      <point x="54.0" y="600.0" type="qcurve" smooth="yes"/>
    </contour>
    <contour>
      <point x="135.0" y="344.0" type="line"/>
      <point x="135.0" y="600.0" type="line" smooth="yes"/>
      <point x="135.0" y="615.672"/>
      <point x="158.328" y="639.0"/>
      <point x="174.0" y="639.0" type="qcurve" smooth="yes"/>
      <point x="654.0" y="639.0" type="line" smooth="yes"/>
      <point x="669.672" y="639.0"/>
      <point x="693.0" y="615.672"/>
      <point x="693.0" y="600.0" type="qcurve" smooth="yes"/>
      <point x="693.0" y="344.0" type="line"/>
    </contour>
  </outline>
</glyph>
<glyph name="Ccedilla" format="2">
  <advance width="822.0"/>
  <unicode hex="00C7"/>
  <outline>
    <contour>
      <point x="337.0" y="-139.0" type="line"/>
      <point x="417.0" y="-139.0" type="line"/>
      <point x="451.0" y="0.0" type="line"/>
      <point x="774.0" y="0.0" type="line"/>
      <point x="774.0" y="81.0" type="line"/>
      <point x="176.0" y="81.0" type="line" smooth="yes"/>
      <point x="160.328" y="81.0"/>
      <point x="137.0" y="104.328"/>
      <point x="137.0" y="120.0" type="qcurve" smooth="yes"/>
      <point x="137.0" y="600.0" type="line" smooth="yes"/>
      <point x="137.0" y="615.672"/>
      <point x="160.328" y="639.0"/>
      <point x="176.0" y="639.0" type="qcurve" smooth="yes"/>
      <point x="774.0" y="639.0" type="line"/>
      <point x="774.0" y="720.0" type="line"/>
      <point x="176.0" y="720.0" type="line" smooth="yes"/>
      <point x="126.0" y="720.0"/>
      <point x="56.0" y="650.0"/>
      <point x="56.0" y="600.0" type="qcurve" smooth="yes"/>
      <point x="56.0" y="120.0" type="line" smooth="yes"/>
      <point x="56.0" y="70.0"/>
      <point x="126.0" y="0.0"/>
      <point x="176.0" y="0.0" type="qcurve" smooth="yes"/>
      <point x="372.0" y="0.0" type="line"/>
    </contour>
  </outline>
</glyph>
<glyph name="Egrave" format="2">
  <advance width="766.0"/>
  <unicode hex="00C8"/>
  <anchor x="400.0" y="0.0" name="bottom"/>
  <anchor x="647.0" y="0.0" name="ogonek"/>
  <anchor x="414.0" y="720.0" name="top"/>
  <outline>
    <contour>
      <point x="344.0" y="865.0" type="line"/>
      <point x="424.0" y="865.0" type="line"/>
      <point x="390.0" y="1004.0" type="line"/>
      <point x="309.0" y="1004.0" type="line"/>
    </contour>
    <component base="E"/>
  </outline>
</glyph>
<glyph name="Ecircumflex" format="2">
  <advance width="766.0"/>
  <unicode hex="00CA"/>
  <outline>
    <contour>
      <point x="715.0" y="720.0" type="line"/>
      <point x="58.0" y="720.0" type="line"/>
      <point x="58.0" y="0.0" type="line"/>
      <point x="715.0" y="0.0" type="line"/>
      <point x="715.0" y="81.0" type="line"/>
      <point x="139.0" y="81.0" type="line"/>
      <point x="139.0" y="319.0" type="line"/>
      <point x="602.0" y="319.0" type="line"/>
      <point x="602.0" y="401.0" type="line"/>
      <point x="139.0" y="401.0" type="line"/>
      <point x="139.0" y="639.0" type="line"/>
      <point x="715.0" y="639.0" type="line"/>
    </contour>
    <contour>
      <point x="302.0" y="864.0" type="line"/>
      <point x="362.0" y="949.0" type="line"/>
      <point x="420.0" y="864.0" type="line"/>
      <point x="462.0" y="864.0" type="line"/>
      <point x="391.0" y="981.0" type="line"/>
      <point x="332.0" y="981.0" type="line"/>
      <point x="261.0" y="864.0" type="line"/>
    </contour>
  </outline>
</glyph>
<glyph name="Edieresis" format="2">
  <advance width="766.0"/>
  <unicode hex="00CB"/>
  <outline>
    <contour>
      <point x="715.0" y="720.0" type="line"/>
      <point x="58.0" y="720.0" type="line"/>
      <point x="58.0" y="0.0" type="line"/>
      <point x="715.0" y="0.0" type="line"/>
      <point x="715.0" y="81.0" type="line"/>
      <point x="139.0" y="81.0" type="line"/>
      <point x="139.0" y="319.0" type="line"/>
      <point x="602.0" y="319.0" type="line"/>
      <point x="602.0" y="401.0" type="line"/>
      <point x="139.0" y="401.0" type="line"/>
      <point x="139.0" y="639.0" type="line"/>
      <point x="715.0" y="639.0" type="line"/>
    </contour>
    <contour>
      <point x="506.0" y="947.0" type="line"/>
      <point x="424.0" y="947.0" type="line"/>
      <point x="424.0" y="865.0" type="line"/>
      <point x="506.0" y="865.0" type="line"/>
    </contour>
    <contour>
      <point x="327.0" y="947.0" type="line"/>
      <point x="244.0" y="947.0" type="line"/>
      <point x="244.0" y="865.0" type="line"/>
      <point x="327.0" y="865.0" type="line"/>
    </contour>
  </outline>
</glyph>
<glyph name="Igrave" format="2">
  <advance width="220.0"/>
  <unicode hex="00CC"/>
  <outline>
    <contour>
      <point x="57.0" y="0.0" type="line"/>
      <point x="138.0" y="0.0" type="line"/>
      <point x="138.0" y="720.0" type="line"/>
      <point x="57.0" y="720.0" type="line"/>
    </contour>
    <contour>
      <point x="71.0" y="865.0" type="line"/>
      <point x="151.0" y="865.0" type="line"/>
      <point x="117.0" y="1004.0" type="line"/>
      <point x="36.0" y="1004.0" type="line"/>
    </contour>
  </outline>
</glyph>
<glyph name="Icircumflex" format="2">
  <advance width="220.0"/>
  <unicode hex="00CE"/>
  <outline>
    <contour>
      <point x="57.0" y="0.0" type="line"/>
      <point x="138.0" y="0.0" type="line"/>
      <point x="138.0" y="720.0" type="line"/>
      <point x="57.0" y="720.0" type="line"/>
    </contour>
    <contour>
      <point x="29.0" y="864.0" type="line"/>
      <point x="89.0" y="949.0" type="line"/>
      <point x="147.0" y="864.0" type="line"/>
      <point x="189.0" y="864.0" type="line"/>
      <point x="118.0" y="981.0" type="line"/>
      <point x="59.0" y="981.0" type="line"/>
      <point x="-12.0" y="864.0" type="line"/>
    </contour>
  </outline>
</glyph>
<glyph name="Idieresis" format="2">
  <advance width="220.0"/>
  <unicode hex="00CF"/>
  <outline>
    <contour>
      <point x="57.0" y="0.0" type="line"/>
      <point x="138.0" y="0.0" type="line"/>
      <point x="138.0" y="720.0" type="line"/>
      <point x="57.0" y="720.0" type="line"/>
    </contour>
    <contour>
      <point x="233.0" y="947.0" type="line"/>
      <point x="151.0" y="947.0" type="line"/>
      <point x="151.0" y="865.0" type="line"/>
      <point x="233.0" y="865.0" type="line"/>
    </contour>
    <contour>
      <point x="54.0" y="947.0" type="line"/>
      <point x="-29.0" y="947.0" type="line"/>
      <point x="-29.0" y="865.0" type="line"/>
      <point x="54.0" y="865.0" type="line"/>
    </contour>
  </outline>
</glyph>
<glyph name="Ntilde" format="2">
  <advance width="832.0"/>
  <unicode hex="00D1"/>
  <outline>
    <contour>
      <point x="56.0" y="0.0" type="line"/>
      <point x="137.0" y="0.0" type="line"/>
      <point x="137.0" y="628.0" type="line"/>
      <point x="665.0" y="0.0" type="line"/>
      <point x="776.0" y="0.0" type="line"/>
      <point x="776.0" y="720.0" type="line"/>
      <point x="695.0" y="720.0" type="line"/>
      <point x="695.0" y="92.0" type="line"/>
      <point x="167.0" y="720.0" type="line"/>
      <point x="56.0" y="720.0" type="line"/>
    </contour>
    <contour>
      <point x="513.0" y="869.0" type="qcurve" smooth="yes"/>
      <point x="530.91" y="869.0"/>
      <point x="564.821" y="877.776"/>
      <point x="579.0" y="883.0" type="qcurve"/>
      <point x="579.0" y="934.0" type="line"/>
      <point x="563.328" y="926.537"/>
      <point x="530.164" y="917.0"/>
      <point x="513.0" y="917.0" type="qcurve" smooth="yes"/>
      <point x="457.0" y="924.0"/>
      <point x="354.0" y="989.0"/>
      <point x="302.0" y="989.0" type="qcurve" smooth="yes"/>
      <point x="284.09" y="989.0"/>
      <point x="253.433" y="984.478"/>
      <point x="240.0" y="980.0" type="qcurve"/>
      <point x="240.0" y="933.0" type="line"/>
      <point x="254.925" y="938.224"/>
      <point x="290.06" y="941.0"/>
      <point x="302.0" y="941.0" type="qcurve" smooth="yes"/>
      <point x="363.194" y="941.0"/>
      <point x="459.269" y="869.0"/>
    </contour>
  </outline>
</glyph>
<glyph name="Otilde" format="2">
  <advance width="828.0"/>
  <unicode hex="00D5"/>
  <outline>
    <contour>
      <point x="174.0" y="0.0" type="qcurve" smooth="yes"/>
      <point x="654.0" y="0.0" type="line" smooth="yes"/>
      <point x="704.0" y="0.0"/>
      <point x="774.0" y="70.0"/>
      <point x="774.0" y="120.0" type="qcurve" smooth="yes"/>
      <point x="774.0" y="600.0" type="line" smooth="yes"/>
      <point x="774.0" y="650.0"/>
      <point x="704.0" y="720.0"/>
      <point x="654.0" y="720.0" type="qcurve" smooth="yes"/>
      <point x="174.0" y="720.0" type="line" smooth="yes"/>
      <point x="124.0" y="720.0"/>
      <point x="54.0" y="650.0"/>
      <point x="54.0" y="600.0" type="qcurve" smooth="yes"/>
      <point x="54.0" y="120.0" type="line" smooth="yes"/>
      <point x="54.0" y="70.0"/>
      <point x="124.0" y="0.0"/>
    </contour>
    <contour>
      <point x="174.0" y="81.0" type="line" smooth="yes"/>
      <point x="158.328" y="81.0"/>
      <point x="135.0" y="104.328"/>
      <point x="135.0" y="120.0" type="qcurve" smooth="yes"/>
      <point x="135.0" y="600.0" type="line" smooth="yes"/>
      <point x="135.0" y="615.672"/>
      <point x="158.328" y="639.0"/>
      <point x="174.0" y="639.0" type="qcurve" smooth="yes"/>
      <point x="654.0" y="639.0" type="line" smooth="yes"/>
      <point x="669.672" y="639.0"/>
      <point x="693.0" y="615.672"/>
      <point x="693.0" y="600.0" type="qcurve" smooth="yes"/>
      <point x="693.0" y="120.0" type="line" smooth="yes"/>
      <point x="693.0" y="104.328"/>
      <point x="669.672" y="81.0"/>
      <point x="654.0" y="81.0" type="qcurve" smooth="yes"/>
    </contour>
    <contour>
      <point x="511.0" y="869.0" type="qcurve" smooth="yes"/>
      <point x="528.91" y="869.0"/>
      <point x="562.821" y="877.776"/>
      <point x="577.0" y="883.0" type="qcurve"/>
      <point x="577.0" y="934.0" type="line"/>
      <point x="561.328" y="926.537"/>
      <point x="528.164" y="917.0"/>
      <point x="509.0" y="917.0" type="qcurve"/>
      <point x="452.284" y="924.463"/>
      <point x="355.97" y="989.0"/>
      <point x="300.0" y="989.0" type="qcurve" smooth="yes"/>
      <point x="282.09" y="989.0"/>
      <point x="251.433" y="984.478"/>
      <point x="238.0" y="980.0" type="qcurve"/>
      <point x="238.0" y="933.0" type="line"/>
      <point x="252.925" y="938.224"/>
      <point x="288.06" y="941.0"/>
      <point x="300.0" y="941.0" type="qcurve" smooth="yes"/>
      <point x="361.194" y="941.0"/>
      <point x="457.269" y="869.0"/>
    </contour>
  </outline>
</glyph>
<glyph name="multiply" format="2">
  <advance width="546.0"/>
  <unicode hex="00D7"/>
  <outline>
    <contour>
      <point x="161.0" y="506.0" type="line"/>
      <point x="53.0" y="506.0" type="line"/>
      <point x="56.0" y="502.0" type="line"/>
      <point x="212.0" y="301.0" type="line"/>
      <point x="60.0" y="103.0" type="line"/>
      <point x="54.0" y="95.0" type="line"/>
      <point x="161.0" y="95.0" type="line"/>
      <point x="266.0" y="239.0" type="line"/>
      <point x="372.0" y="95.0" type="line"/>
      <point x="478.0" y="95.0" type="line"/>
      <point x="472.0" y="102.0" type="line"/>
      <point x="320.0" y="301.0" type="line"/>
      <point x="474.0" y="501.0" type="line"/>
      <point x="478.0" y="506.0" type="line"/>
      <point x="372.0" y="506.0" type="line"/>
      <point x="266.0" y="362.0" type="line"/>
    </contour>
  </outline>
</glyph>
<glyph name="Oslash" format="2">
  <advance width="828.0"/>
  <unicode hex="00D8"/>
  <anchor x="429.0" y="0.0" name="bottom"/>
  <anchor x="417.0" y="719.0" name="top"/>
  <outline>
    <contour>
      <point x="0.0" y="50.0" type="line"/>
      <point x="50.0" y="0.0" type="line"/>
      <point x="828.0" y="700.0" type="line"/>
      <point x="777.0" y="750.0" type="line"/>
    </contour>
    <component base="O"/>
  </outline>
</glyph>
<glyph name="Uacute" format="2">
  <advance width="828.0"/>
  <unicode hex="00DA"/>
  <outline>
    <contour>
      <point x="174.0" y="0.0" type="qcurve" smooth="yes"/>
      <point x="654.0" y="0.0" type="line" smooth="yes"/>
      <point x="704.0" y="0.0"/>
      <point x="774.0" y="70.0"/>
      <point x="774.0" y="120.0" type="qcurve" smooth="yes"/>
      <point x="774.0" y="720.0" type="line"/>
      <point x="693.0" y="720.0" type="line"/>
      <point x="693.0" y="120.0" type="line" smooth="yes"/>
      <point x="693.0" y="104.328"/>
      <point x="669.672" y="81.0"/>
      <point x="654.0" y="81.0" type="qcurve" smooth="yes"/>
      <point x="174.0" y="81.0" type="line" smooth="yes"/>
      <point x="158.328" y="81.0"/>
      <point x="135.0" y="104.328"/>
      <point x="135.0" y="120.0" type="qcurve" smooth="yes"/>
      <point x="135.0" y="720.0" type="line"/>
      <point x="54.0" y="720.0" type="line"/>
      <point x="54.0" y="120.0" type="line" smooth="yes"/>
      <point x="54.0" y="70.0"/>
      <point x="124.0" y="0.0"/>
    </contour>
    <contour>
      <point x="340.0" y="865.0" type="line"/>
      <point x="420.0" y="865.0" type="line"/>
      <point x="454.0" y="1004.0" type="line"/>
      <point x="375.0" y="1004.0" type="line"/>
    </contour>
  </outline>
</glyph>
<glyph name="Udieresis" format="2">
  <advance width="828.0"/>
  <unicode hex="00DC"/>
  <outline>
    <contour>
      <point x="174.0" y="0.0" type="qcurve" smooth="yes"/>
      <point x="654.0" y="0.0" type="line" smooth="yes"/>
      <point x="704.0" y="0.0"/>
      <point x="774.0" y="70.0"/>
      <point x="774.0" y="120.0" type="qcurve" smooth="yes"/>
      <point x="774.0" y="720.0" type="line"/>
      <point x="693.0" y="720.0" type="line"/>
      <point x="693.0" y="120.0" type="line" smooth="yes"/>
      <point x="693.0" y="104.328"/>
      <point x="669.672" y="81.0"/>
      <point x="654.0" y="81.0" type="qcurve" smooth="yes"/>
      <point x="174.0" y="81.0" type="line" smooth="yes"/>
      <point x="158.328" y="81.0"/>
      <point x="135.0" y="104.328"/>
      <point x="135.0" y="120.0" type="qcurve" smooth="yes"/>
      <point x="135.0" y="720.0" type="line"/>
      <point x="54.0" y="720.0" type="line"/>
      <point x="54.0" y="120.0" type="line" smooth="yes"/>
      <point x="54.0" y="70.0"/>
      <point x="124.0" y="0.0"/>
    </contour>
    <contour>
      <point x="275.0" y="865.0" type="line"/>
      <point x="358.0" y="865.0" type="line"/>
      <point x="358.0" y="947.0" type="line"/>
      <point x="275.0" y="947.0" type="line"/>
    </contour>
    <contour>
      <point x="455.0" y="865.0" type="line"/>
      <point x="537.0" y="865.0" type="line"/>
      <point x="537.0" y="947.0" type="line"/>
      <point x="455.0" y="947.0" type="line"/>
    </contour>
  </outline>
</glyph>
<glyph name="Thorn" format="2">
  <advance width="834.0"/>
  <unicode hex="00DE"/>
  <outline>
    <contour>
      <point x="58.0" y="0.0" type="line"/>
      <point x="138.0" y="0.0" type="line"/>
      <point x="139.0" y="140.0" type="line"/>
      <point x="658.0" y="140.0" type="line" smooth="yes"/>
      <point x="708.0" y="140.0"/>
      <point x="778.0" y="210.0"/>
      <point x="778.0" y="260.0" type="qcurve" smooth="yes"/>
      <point x="778.0" y="460.0" type="line" smooth="yes"/>
      <point x="778.0" y="510.0"/>
      <point x="708.0" y="580.0"/>
      <point x="658.0" y="580.0" type="qcurve" smooth="yes"/>
      <point x="139.0" y="580.0" type="line"/>
      <point x="139.0" y="720.0" type="line"/>
      <point x="58.0" y="720.0" type="line"/>
    </contour>
    <contour>
      <point x="178.0" y="221.0" type="line" smooth="yes"/>
      <point x="162.0" y="221.0"/>
      <point x="139.0" y="244.0"/>
      <point x="139.0" y="260.0" type="qcurve" smooth="yes"/>
      <point x="139.0" y="460.0" type="line" smooth="yes"/>
      <point x="139.0" y="476.0"/>
      <point x="162.0" y="499.0"/>
      <point x="178.0" y="499.0" type="qcurve" smooth="yes"/>
      <point x="658.0" y="499.0" type="line" smooth="yes"/>
      <point x="674.0" y="499.0"/>
      <point x="697.0" y="476.0"/>
      <point x="697.0" y="460.0" type="qcurve" smooth="yes"/>
      <point x="697.0" y="260.0" type="line" smooth="yes"/>
      <point x="697.0" y="244.0"/>
      <point x="674.0" y="221.0"/>
      <point x="658.0" y="221.0" type="qcurve" smooth="yes"/>
    </contour>
  </outline>
</glyph>
<glyph name="germandbls" format="2">
  <advance width="833.0"/>
  <unicode hex="00DF"/>
  <outline>
    <contour>
      <point x="57.0" y="0.0" type="line"/>
      <point x="139.0" y="0.0" type="line"/>
      <point x="139.0" y="605.0" type="line" smooth="yes"/>
      <point x="139.0" y="620.672"/>
      <point x="162.328" y="644.0"/>
      <point x="178.0" y="644.0" type="qcurve" smooth="yes"/>
      <point x="663.0" y="644.0" type="line" smooth="yes"/>
      <point x="678.672" y="644.0"/>
      <point x="702.0" y="620.672"/>
      <point x="702.0" y="605.0" type="qcurve" smooth="yes"/>
      <point x="702.0" y="443.0" type="line" smooth="yes"/>
      <point x="702.0" y="427.328"/>
      <point x="678.672" y="404.0"/>
      <point x="663.0" y="404.0" type="qcurve" smooth="yes"/>
      <point x="284.0" y="404.0" type="line"/>
      <point x="284.0" y="333.0" type="line"/>
      <point x="663.0" y="333.0" type="line" smooth="yes"/>
      <point x="678.672" y="333.0"/>
      <point x="702.0" y="309.672"/>
      <point x="702.0" y="294.0" type="qcurve" smooth="yes"/>
      <point x="702.0" y="121.0" type="line" smooth="yes"/>
      <point x="702.0" y="105.328"/>
      <point x="678.672" y="82.0"/>
      <point x="663.0" y="82.0" type="qcurve" smooth="yes"/>
      <point x="284.0" y="82.0" type="line"/>
      <point x="284.0" y="0.0" type="line"/>
      <point x="663.0" y="0.0" type="line" smooth="yes"/>
      <point x="713.0" y="0.0"/>
      <point x="784.0" y="71.0"/>
      <point x="784.0" y="121.0" type="qcurve" smooth="yes"/>
      <point x="784.0" y="294.0" type="line" smooth="yes"/>
      <point x="784.0" y="314.149"/>
      <point x="768.179" y="355.343"/>
      <point x="754.0" y="374.0" type="qcurve"/>
      <point x="768.179" y="393.403"/>
      <point x="784.0" y="434.851"/>
      <point x="784.0" y="455.0" type="qcurve" smooth="yes"/>
      <point x="784.0" y="626.0" type="line"/>
      <point x="772.806" y="664.806"/>
      <point x="704.791" y="728.0"/>
      <point x="663.0" y="728.0" type="qcurve" smooth="yes"/>
      <point x="178.0" y="728.0" type="line" smooth="yes"/>
      <point x="127.254" y="728.0"/>
      <point x="57.0" y="656.746"/>
      <point x="57.0" y="606.0" type="qcurve" smooth="yes"/>
    </contour>
  </outline>
</glyph>
<glyph name="atilde" format="2">
  <advance width="725.0"/>
  <unicode hex="00E3"/>
  <outline>
    <contour>
      <point x="173.0" y="0.0" type="qcurve" smooth="yes"/>
      <point x="643.0" y="0.0" type="line"/>
      <point x="643.0" y="459.0" type="line" smooth="yes"/>
      <point x="643.0" y="509.0"/>
      <point x="571.746" y="580.0"/>
      <point x="521.0" y="580.0" type="qcurve" smooth="yes"/>
      <point x="52.0" y="580.0" type="line"/>
      <point x="52.0" y="498.0" type="line"/>
      <point x="521.0" y="498.0" type="line" smooth="yes"/>
      <point x="537.418" y="498.0"/>
      <point x="560.0" y="474.672"/>
      <point x="560.0" y="459.0" type="qcurve" smooth="yes"/>
      <point x="560.0" y="331.0" type="line"/>
      <point x="52.0" y="331.0" type="line"/>
      <point x="52.0" y="121.0" type="line" smooth="yes"/>
      <point x="52.0" y="71.0"/>
      <point x="123.0" y="0.0"/>
    </contour>
    <contour>
      <point x="173.0" y="82.0" type="line" smooth="yes"/>
      <point x="157.328" y="82.0"/>
      <point x="134.0" y="105.328"/>
      <point x="134.0" y="121.0" type="qcurve" smooth="yes"/>
      <point x="134.0" y="249.0" type="line"/>
      <point x="560.0" y="249.0" type="line"/>
      <point x="560.0" y="82.0" type="line"/>
    </contour>
    <contour>
      <point x="459.0" y="766.0" type="qcurve" smooth="yes"/>
      <point x="476.91" y="766.0"/>
      <point x="510.821" y="774.776"/>
      <point x="525.0" y="780.0" type="qcurve"/>
      <point x="525.0" y="831.0" type="line"/>
      <point x="509.328" y="823.537"/>
      <point x="476.0" y="814.0"/>
      <point x="459.0" y="814.0" type="qcurve" smooth="yes"/>
      <point x="412.0" y="814.0"/>
      <point x="300.0" y="886.0"/>
      <point x="248.0" y="886.0" type="qcurve" smooth="yes"/>
      <point x="230.09" y="886.0"/>
      <point x="199.433" y="881.478"/>
      <point x="186.0" y="877.0" type="qcurve"/>
      <point x="186.0" y="830.0" type="line"/>
      <point x="200.925" y="835.224"/>
      <point x="236.06" y="838.0"/>
      <point x="248.0" y="838.0" type="qcurve" smooth="yes"/>
      <point x="309.194" y="838.0"/>
      <point x="405.269" y="766.0"/>
    </contour>
  </outline>
</glyph>
<glyph name="aring" format="2">
  <advance width="725.0"/>
  <unicode hex="00E5"/>
  <outline>
    <contour>
      <point x="173.0" y="0.0" type="qcurve" smooth="yes"/>
      <point x="643.0" y="0.0" type="line"/>
      <point x="643.0" y="459.0" type="line" smooth="yes"/>
      <point x="643.0" y="509.0"/>
      <point x="571.746" y="580.0"/>
      <point x="521.0" y="580.0" type="qcurve" smooth="yes"/>
      <point x="52.0" y="580.0" type="line"/>
      <point x="52.0" y="498.0" type="line"/>
      <point x="521.0" y="498.0" type="line" smooth="yes"/>
      <point x="537.418" y="498.0"/>
      <point x="560.0" y="474.672"/>
      <point x="560.0" y="459.0" type="qcurve" smooth="yes"/>
      <point x="560.0" y="331.0" type="line"/>
      <point x="52.0" y="331.0" type="line"/>
      <point x="52.0" y="121.0" type="line" smooth="yes"/>
      <point x="52.0" y="71.0"/>
      <point x="123.0" y="0.0"/>
    </contour>
    <contour>
      <point x="173.0" y="82.0" type="line" smooth="yes"/>
      <point x="157.328" y="82.0"/>
      <point x="134.0" y="105.328"/>
      <point x="134.0" y="121.0" type="qcurve" smooth="yes"/>
      <point x="134.0" y="249.0" type="line"/>
      <point x="560.0" y="249.0" type="line"/>
      <point x="560.0" y="82.0" type="line"/>
    </contour>
    <contour>
      <point x="329.0" y="698.0" type="qcurve" smooth="yes"/>
      <point x="385.0" y="698.0" type="line" smooth="yes"/>
      <point x="407.0" y="698.0"/>
      <point x="439.0" y="729.0"/>
      <point x="439.0" y="751.0" type="qcurve" smooth="yes"/>
      <point x="439.0" y="805.0" type="line" smooth="yes"/>
      <point x="439.0" y="827.0"/>
      <point x="407.0" y="858.0"/>
      <point x="385.0" y="858.0" type="qcurve" smooth="yes"/>
      <point x="329.0" y="858.0" type="line" smooth="yes"/>
      <point x="307.0" y="858.0"/>
      <point x="275.0" y="827.0"/>
      <point x="275.0" y="805.0" type="qcurve" smooth="yes"/>
      <point x="275.0" y="751.0" type="line" smooth="yes"/>
      <point x="275.0" y="729.0"/>
      <point x="307.0" y="698.0"/>
    </contour>
    <contour>
      <point x="324.0" y="738.0" type="line" smooth="yes"/>
      <point x="320.0" y="738.0"/>
      <point x="315.0" y="744.0"/>
      <point x="315.0" y="748.0" type="qcurve" smooth="yes"/>
      <point x="315.0" y="808.0" type="line" smooth="yes"/>
      <point x="315.0" y="812.0"/>
      <point x="320.0" y="818.0"/>
      <point x="324.0" y="818.0" type="qcurve" smooth="yes"/>
      <point x="390.0" y="818.0" type="line" smooth="yes"/>
      <point x="394.0" y="818.0"/>
      <point x="399.0" y="812.0"/>
      <point x="399.0" y="808.0" type="qcurve" smooth="yes"/>
      <point x="399.0" y="748.0" type="line" smooth="yes"/>
      <point x="399.0" y="744.0"/>
      <point x="394.0" y="738.0"/>
      <point x="390.0" y="738.0" type="qcurve" smooth="yes"/>
    </contour>
  </outline>
</glyph>
<glyph name="ae" format="2">
  <advance width="1178.0"/>
  <unicode hex="00E6"/>
  <outline>
    <contour>
      <point x="174.0" y="0.0" type="qcurve" smooth="yes"/>
      <point x="1151.0" y="0.0" type="line"/>
      <point x="1151.0" y="82.0" type="line"/>
      <point x="682.0" y="82.0" type="line" smooth="yes"/>
      <point x="667.075" y="82.0"/>
      <point x="644.493" y="102.075"/>
      <point x="643.0" y="117.0" type="qcurve"/>
      <point x="643.0" y="249.0" type="line"/>
      <point x="1151.0" y="249.0" type="line"/>
      <point x="1151.0" y="459.0" type="line" smooth="yes"/>
      <point x="1151.0" y="509.0"/>
      <point x="1080.746" y="580.0"/>
      <point x="1030.0" y="580.0" type="qcurve" smooth="yes"/>
      <point x="53.0" y="580.0" type="line"/>
      <point x="53.0" y="498.0" type="line"/>
      <point x="522.0" y="498.0" type="line" smooth="yes"/>
      <point x="537.672" y="498.0"/>
      <point x="561.0" y="474.672"/>
      <point x="561.0" y="459.0" type="qcurve" smooth="yes"/>
      <point x="561.0" y="331.0" type="line"/>
      <point x="53.0" y="331.0" type="line"/>
      <point x="53.0" y="121.0" type="line" smooth="yes"/>
      <point x="53.0" y="71.0"/>
      <point x="123.254" y="0.0"/>
    </contour>
    <contour>
      <point x="174.0" y="82.0" type="line" smooth="yes"/>
      <point x="158.328" y="82.0"/>
      <point x="135.0" y="105.328"/>
      <point x="135.0" y="121.0" type="qcurve" smooth="yes"/>
      <point x="135.0" y="249.0" type="line"/>
      <point x="561.0" y="249.0" type="line"/>
      <point x="561.0" y="82.0" type="line"/>
    </contour>
    <contour>
      <point x="643.0" y="331.0" type="line"/>
      <point x="643.0" y="459.0" type="line" smooth="yes"/>
      <point x="643.0" y="474.672"/>
      <point x="666.328" y="498.0"/>
      <point x="682.0" y="498.0" type="qcurve" smooth="yes"/>
      <point x="1030.0" y="498.0" type="line" smooth="yes"/>
      <point x="1045.672" y="498.0"/>
      <point x="1069.0" y="474.672"/>
      <point x="1069.0" y="459.0" type="qcurve" smooth="yes"/>
      <point x="1069.0" y="331.0" type="line"/>
    </contour>
  </outline>
</glyph>
<glyph name="ccedilla" format="2">
  <advance width="693.0"/>
  <unicode hex="00E7"/>
  <outline>
    <contour>
      <point x="272.0" y="-139.0" type="line"/>
      <point x="352.0" y="-139.0" type="line"/>
      <point x="386.0" y="0.0" type="line"/>
      <point x="642.0" y="0.0" type="line"/>
      <point x="642.0" y="82.0" type="line"/>
      <point x="172.0" y="82.0" type="line" smooth="yes"/>
      <point x="156.328" y="82.0"/>
      <point x="133.0" y="105.328"/>
      <point x="133.0" y="121.0" type="qcurve" smooth="yes"/>
      <point x="133.0" y="459.0" type="line" smooth="yes"/>
      <point x="133.0" y="474.672"/>
      <point x="156.328" y="498.0"/>
      <point x="172.0" y="498.0" type="qcurve" smooth="yes"/>
      <point x="640.0" y="498.0" type="line"/>
      <point x="640.0" y="580.0" type="line"/>
      <point x="172.0" y="580.0" type="line" smooth="yes"/>
      <point x="122.0" y="580.0"/>
      <point x="51.0" y="509.0"/>
      <point x="51.0" y="459.0" type="qcurve" smooth="yes"/>
      <point x="51.0" y="121.0" type="line" smooth="yes"/>
      <point x="51.0" y="71.0"/>
      <point x="122.0" y="0.0"/>
      <point x="172.0" y="0.0" type="qcurve" smooth="yes"/>
      <point x="307.0" y="0.0" type="line"/>
    </contour>
  </outline>
</glyph>
<glyph name="egrave" format="2">
  <advance width="638.0"/>
  <unicode hex="00E8"/>
  <outline>
    <contour>
      <point x="172.0" y="0.0" type="qcurve" smooth="yes"/>
      <point x="642.0" y="0.0" type="line"/>
      <point x="642.0" y="82.0" type="line"/>
      <point x="172.0" y="82.0" type="line" smooth="yes"/>
      <point x="156.328" y="82.0"/>
      <point x="133.0" y="105.328"/>
      <point x="133.0" y="121.0" type="qcurve" smooth="yes"/>
      <point x="133.0" y="249.0" type="line"/>
      <point x="642.0" y="249.0" type="line"/>
      <point x="642.0" y="459.0" type="line" smooth="yes"/>
      <point x="642.0" y="509.0"/>
      <point x="570.746" y="580.0"/>
      <point x="520.0" y="580.0" type="qcurve" smooth="yes"/>
      <point x="172.0" y="580.0" type="line" smooth="yes"/>
      <point x="122.0" y="580.0"/>
      <point x="51.0" y="509.0"/>
      <point x="51.0" y="459.0" type="qcurve" smooth="yes"/>
      <point x="51.0" y="121.0" type="line" smooth="yes"/>
      <point x="51.0" y="71.0"/>
      <point x="122.0" y="0.0"/>
    </contour>
    <contour>
      <point x="133.0" y="331.0" type="line"/>
      <point x="133.0" y="459.0" type="line" smooth="yes"/>
      <point x="133.0" y="474.672"/>
      <point x="156.328" y="498.0"/>
      <point x="172.0" y="498.0" type="qcurve" smooth="yes"/>
      <point x="520.0" y="498.0" type="line" smooth="yes"/>
      <point x="536.418" y="498.0"/>
      <point x="559.0" y="474.672"/>
      <point x="559.0" y="459.0" type="qcurve" smooth="yes"/>
      <point x="559.0" y="331.0" type="line"/>
    </contour>
    <contour>
      <point x="280.0" y="763.0" type="line"/>
      <point x="360.0" y="763.0" type="line"/>
      <point x="326.0" y="902.0" type="line"/>
      <point x="245.0" y="902.0" type="line"/>
    </contour>
  </outline>
</glyph>
<glyph name="ecircumflex" format="2">
  <advance width="638.0"/>
  <unicode hex="00EA"/>
  <outline>
    <contour>
      <point x="172.0" y="0.0" type="qcurve" smooth="yes"/>
      <point x="642.0" y="0.0" type="line"/>
      <point x="642.0" y="82.0" type="line"/>
      <point x="172.0" y="82.0" type="line" smooth="yes"/>
      <point x="156.328" y="82.0"/>
      <point x="133.0" y="105.328"/>
      <point x="133.0" y="121.0" type="qcurve" smooth="yes"/>
      <point x="133.0" y="249.0" type="line"/>
      <point x="642.0" y="249.0" type="line"/>
      <point x="642.0" y="459.0" type="line" smooth="yes"/>
      <point x="642.0" y="509.0"/>
      <point x="570.746" y="580.0"/>
      <point x="520.0" y="580.0" type="qcurve" smooth="yes"/>
      <point x="172.0" y="580.0" type="line" smooth="yes"/>
      <point x="122.0" y="580.0"/>
      <point x="51.0" y="509.0"/>
      <point x="51.0" y="459.0" type="qcurve" smooth="yes"/>
      <point x="51.0" y="121.0" type="line" smooth="yes"/>
      <point x="51.0" y="71.0"/>
      <point x="122.0" y="0.0"/>
    </contour>
    <contour>
      <point x="133.0" y="331.0" type="line"/>
      <point x="133.0" y="459.0" type="line" smooth="yes"/>
      <point x="133.0" y="474.672"/>
      <point x="156.328" y="498.0"/>
      <point x="172.0" y="498.0" type="qcurve" smooth="yes"/>
      <point x="520.0" y="498.0" type="line" smooth="yes"/>
      <point x="536.418" y="498.0"/>
      <point x="559.0" y="474.672"/>
      <point x="559.0" y="459.0" type="qcurve" smooth="yes"/>
      <point x="559.0" y="331.0" type="line"/>
    </contour>
    <contour>
      <point x="197.0" y="763.0" type="line"/>
      <point x="238.0" y="763.0" type="line"/>
      <point x="298.0" y="848.0" type="line"/>
      <point x="356.0" y="763.0" type="line"/>
      <point x="398.0" y="763.0" type="line"/>
      <point x="327.0" y="880.0" type="line"/>
      <point x="268.0" y="880.0" type="line"/>
    </contour>
  </outline>
</glyph>
<glyph name="igrave" format="2">
  <advance width="214.0"/>
  <unicode hex="00EC"/>
  <outline>
    <contour>
      <point x="56.0" y="0.0" type="line"/>
      <point x="138.0" y="0.0" type="line"/>
      <point x="138.0" y="580.0" type="line"/>
      <point x="56.0" y="580.0" type="line"/>
    </contour>
    <contour>
      <point x="51.0" y="764.0" type="line"/>
      <point x="131.0" y="764.0" type="line"/>
      <point x="97.0" y="903.0" type="line"/>
      <point x="16.0" y="903.0" type="line"/>
    </contour>
  </outline>
</glyph>
<glyph name="iacute" format="2">
  <advance width="214.0"/>
  <unicode hex="00ED"/>
  <outline>
    <contour>
      <point x="51.0" y="0.0" type="line"/>
      <point x="133.0" y="0.0" type="line"/>
      <point x="133.0" y="580.0" type="line"/>
      <point x="51.0" y="580.0" type="line"/>
    </contour>
    <contour>
      <point x="49.0" y="763.0" type="line"/>
      <point x="129.0" y="763.0" type="line"/>
      <point x="163.0" y="902.0" type="line"/>
      <point x="84.0" y="902.0" type="line"/>
    </contour>
  </outline>
</glyph>
<glyph name="icircumflex" format="2">
  <advance width="214.0"/>
  <unicode hex="00EE"/>
  <outline>
    <contour>
      <point x="51.0" y="0.0" type="line"/>
      <point x="133.0" y="0.0" type="line"/>
      <point x="133.0" y="580.0" type="line"/>
      <point x="51.0" y="580.0" type="line"/>
    </contour>
    <contour>
      <point x="26.0" y="763.0" type="line"/>
      <point x="86.0" y="848.0" type="line"/>
      <point x="144.0" y="763.0" type="line"/>
      <point x="186.0" y="763.0" type="line"/>
      <point x="115.0" y="880.0" type="line"/>
      <point x="56.0" y="880.0" type="line"/>
      <point x="-15.0" y="763.0" type="line"/>
    </contour>
  </outline>
</glyph>
<glyph name="idieresis" format="2">
  <advance width="214.0"/>
  <unicode hex="00EF"/>
  <outline>
    <contour>
      <point x="55.0" y="0.0" type="line"/>
      <point x="137.0" y="0.0" type="line"/>
      <point x="137.0" y="580.0" type="line"/>
      <point x="55.0" y="580.0" type="line"/>
    </contour>
    <contour>
      <point x="230.0" y="847.0" type="line"/>
      <point x="148.0" y="847.0" type="line"/>
      <point x="148.0" y="765.0" type="line"/>
      <point x="230.0" y="765.0" type="line"/>
    </contour>
    <contour>
      <point x="51.0" y="847.0" type="line"/>
      <point x="-32.0" y="847.0" type="line"/>
      <point x="-32.0" y="765.0" type="line"/>
      <point x="51.0" y="765.0" type="line"/>
    </contour>
  </outline>
</glyph>
<glyph name="ntilde" format="2">
  <advance width="708.0"/>
  <unicode hex="00F1"/>
  <outline>
    <contour>
      <point x="54.0" y="0.0" type="line"/>
      <point x="136.0" y="0.0" type="line"/>
      <point x="136.0" y="459.0" type="line" smooth="yes"/>
      <point x="136.0" y="474.672"/>
      <point x="159.582" y="498.0"/>
      <point x="176.0" y="498.0" type="qcurve" smooth="yes"/>
      <point x="524.0" y="498.0" type="line" smooth="yes"/>
      <point x="539.672" y="498.0"/>
      <point x="563.0" y="474.672"/>
      <point x="563.0" y="459.0" type="qcurve" smooth="yes"/>
      <point x="563.0" y="0.0" type="line"/>
      <point x="645.0" y="0.0" type="line"/>
      <point x="645.0" y="459.0" type="line" smooth="yes"/>
      <point x="645.0" y="509.0"/>
      <point x="574.0" y="580.0"/>
      <point x="524.0" y="580.0" type="qcurve" smooth="yes"/>
      <point x="54.0" y="580.0" type="line"/>
    </contour>
    <contour>
      <point x="451.0" y="765.0" type="qcurve" smooth="yes"/>
      <point x="468.91" y="765.0"/>
      <point x="502.821" y="773.776"/>
      <point x="517.0" y="779.0" type="qcurve"/>
      <point x="517.0" y="830.0" type="line"/>
      <point x="501.328" y="822.537"/>
      <point x="468.164" y="813.0"/>
      <point x="451.0" y="813.0" type="qcurve" smooth="yes"/>
      <point x="395.0" y="820.0"/>
      <point x="292.0" y="885.0"/>
      <point x="240.0" y="885.0" type="qcurve" smooth="yes"/>
      <point x="222.09" y="885.0"/>
      <point x="191.433" y="880.478"/>
      <point x="178.0" y="876.0" type="qcurve"/>
      <point x="178.0" y="829.0" type="line"/>
      <point x="192.925" y="834.224"/>
      <point x="228.06" y="837.0"/>
      <point x="240.0" y="837.0" type="qcurve" smooth="yes"/>
      <point x="301.194" y="837.0"/>
      <point x="397.269" y="765.0"/>
    </contour>
  </outline>
</glyph>
<glyph name="oacute" format="2">
  <advance width="692.0"/>
  <unicode hex="00F3"/>
  <outline>
    <contour>
      <point x="172.0" y="0.0" type="qcurve" smooth="yes"/>
      <point x="520.0" y="0.0" type="line" smooth="yes"/>
      <point x="570.746" y="0.0"/>
      <point x="642.0" y="71.0"/>
      <point x="642.0" y="121.0" type="qcurve" smooth="yes"/>
      <point x="642.0" y="459.0" type="line" smooth="yes"/>
      <point x="642.0" y="509.0"/>
      <point x="571.0" y="580.0"/>
      <point x="520.0" y="580.0" type="qcurve" smooth="yes"/>
      <point x="172.0" y="580.0" type="line" smooth="yes"/>
      <point x="122.0" y="580.0"/>
      <point x="51.0" y="509.0"/>
      <point x="51.0" y="459.0" type="qcurve" smooth="yes"/>
      <point x="51.0" y="121.0" type="line" smooth="yes"/>
      <point x="51.0" y="71.0"/>
      <point x="122.0" y="0.0"/>
    </contour>
    <contour>
      <point x="172.0" y="82.0" type="line" smooth="yes"/>
      <point x="156.328" y="82.0"/>
      <point x="133.0" y="105.328"/>
      <point x="133.0" y="121.0" type="qcurve" smooth="yes"/>
      <point x="133.0" y="459.0" type="line" smooth="yes"/>
      <point x="133.0" y="474.672"/>
      <point x="156.0" y="498.0"/>
      <point x="172.0" y="498.0" type="qcurve" smooth="yes"/>
      <point x="520.0" y="498.0" type="line" smooth="yes"/>
      <point x="536.0" y="498.0"/>
      <point x="559.0" y="474.672"/>
      <point x="559.0" y="459.0" type="qcurve" smooth="yes"/>
      <point x="559.0" y="121.0" type="line" smooth="yes"/>
      <point x="559.0" y="105.328"/>
      <point x="536.418" y="82.0"/>
      <point x="520.0" y="82.0" type="qcurve" smooth="yes"/>
    </contour>
    <contour>
      <point x="272.0" y="764.0" type="line"/>
      <point x="352.0" y="764.0" type="line"/>
      <point x="386.0" y="903.0" type="line"/>
      <point x="307.0" y="903.0" type="line"/>
    </contour>
  </outline>
</glyph>
<glyph name="otilde" format="2">
  <advance width="692.0"/>
  <unicode hex="00F5"/>
  <outline>
    <contour>
      <point x="172.0" y="0.0" type="qcurve" smooth="yes"/>
      <point x="520.0" y="0.0" type="line" smooth="yes"/>
      <point x="570.746" y="0.0"/>
      <point x="642.0" y="71.0"/>
      <point x="642.0" y="121.0" type="qcurve" smooth="yes"/>
      <point x="642.0" y="459.0" type="line" smooth="yes"/>
      <point x="642.0" y="509.0"/>
      <point x="570.746" y="580.0"/>
      <point x="520.0" y="580.0" type="qcurve" smooth="yes"/>
      <point x="172.0" y="580.0" type="line" smooth="yes"/>
      <point x="122.0" y="580.0"/>
      <point x="51.0" y="509.0"/>
      <point x="51.0" y="459.0" type="qcurve" smooth="yes"/>
      <point x="51.0" y="121.0" type="line" smooth="yes"/>
      <point x="51.0" y="71.0"/>
      <point x="122.0" y="0.0"/>
    </contour>
    <contour>
      <point x="172.0" y="82.0" type="line" smooth="yes"/>
      <point x="156.328" y="82.0"/>
      <point x="133.0" y="105.328"/>
      <point x="133.0" y="121.0" type="qcurve" smooth="yes"/>
      <point x="133.0" y="459.0" type="line" smooth="yes"/>
      <point x="133.0" y="474.672"/>
      <point x="156.328" y="498.0"/>
      <point x="172.0" y="498.0" type="qcurve" smooth="yes"/>
      <point x="520.0" y="498.0" type="line" smooth="yes"/>
      <point x="536.418" y="498.0"/>
      <point x="559.0" y="474.672"/>
      <point x="559.0" y="459.0" type="qcurve" smooth="yes"/>
      <point x="559.0" y="121.0" type="line" smooth="yes"/>
      <point x="559.0" y="105.328"/>
      <point x="536.418" y="82.0"/>
      <point x="520.0" y="82.0" type="qcurve" smooth="yes"/>
    </contour>
    <contour>
      <point x="443.0" y="765.0" type="qcurve" smooth="yes"/>
      <point x="460.91" y="765.0"/>
      <point x="494.821" y="773.776"/>
      <point x="509.0" y="779.0" type="qcurve"/>
      <point x="509.0" y="830.0" type="line"/>
      <point x="493.328" y="822.537"/>
      <point x="460.0" y="813.0"/>
      <point x="443.0" y="813.0" type="qcurve" smooth="yes"/>
      <point x="407.0" y="813.0"/>
      <point x="284.0" y="885.0"/>
      <point x="232.0" y="885.0" type="qcurve" smooth="yes"/>
      <point x="214.09" y="885.0"/>
      <point x="183.433" y="880.478"/>
      <point x="170.0" y="876.0" type="qcurve"/>
      <point x="170.0" y="829.0" type="line"/>
      <point x="184.925" y="834.224"/>
      <point x="220.06" y="837.0"/>
      <point x="232.0" y="837.0" type="qcurve" smooth="yes"/>
      <point x="293.194" y="837.0"/>
      <point x="389.269" y="765.0"/>
    </contour>
  </outline>
</glyph>
<glyph name="divide" format="2">
  <advance width="508.0"/>
  <unicode hex="00F7"/>
  <outline>
    <contour>
      <point x="492.0" y="337.0" type="line"/>
      <point x="18.0" y="337.0" type="line"/>
      <point x="18.0" y="255.0" type="line"/>
      <point x="492.0" y="255.0" type="line"/>
    </contour>
    <contour>
      <point x="215.0" y="83.0" type="line"/>
      <point x="215.0" y="1.0" type="line"/>
      <point x="297.0" y="1.0" type="line"/>
      <point x="297.0" y="83.0" type="line"/>
    </contour>
    <contour>
      <point x="297.0" y="579.0" type="line"/>
      <point x="215.0" y="579.0" type="line"/>
      <point x="215.0" y="497.0" type="line"/>
      <point x="297.0" y="497.0" type="line"/>
    </contour>
  </outline>
</glyph>
<glyph name="oslash" format="2">
  <advance width="692.0"/>
  <unicode hex="00F8"/>
  <outline>
    <contour>
      <point x="65.0" y="-59.0" type="line"/>
      <point x="693.0" y="569.0" type="line"/>
      <point x="635.0" y="627.0" type="line"/>
      <point x="7.0" y="-1.0" type="line"/>
    </contour>
    <component base="o"/>
  </outline>
</glyph>
<glyph name="ugrave" format="2">
  <advance width="695.0"/>
  <unicode hex="00F9"/>
  <outline>
    <contour>
      <point x="174.0" y="0.0" type="qcurve" smooth="yes"/>
      <point x="522.0" y="0.0" type="line" smooth="yes"/>
      <point x="572.746" y="0.0"/>
      <point x="644.0" y="71.0"/>
      <point x="644.0" y="121.0" type="qcurve" smooth="yes"/>
      <point x="644.0" y="580.0" type="line"/>
      <point x="562.0" y="580.0" type="line"/>
      <point x="562.0" y="121.0" type="line" smooth="yes"/>
      <point x="562.0" y="105.328"/>
      <point x="538.418" y="82.0"/>
      <point x="522.0" y="82.0" type="qcurve" smooth="yes"/>
      <point x="174.0" y="82.0" type="line" smooth="yes"/>
      <point x="158.328" y="82.0"/>
      <point x="135.0" y="105.328"/>
      <point x="135.0" y="121.0" type="qcurve" smooth="yes"/>
      <point x="135.0" y="580.0" type="line"/>
      <point x="53.0" y="580.0" type="line"/>
      <point x="53.0" y="121.0" type="line" smooth="yes"/>
      <point x="53.0" y="71.0"/>
      <point x="124.0" y="0.0"/>
    </contour>
    <contour>
      <point x="308.0" y="764.0" type="line"/>
      <point x="388.0" y="764.0" type="line"/>
      <point x="354.0" y="903.0" type="line"/>
      <point x="273.0" y="903.0" type="line"/>
    </contour>
  </outline>
</glyph>
<glyph name="thorn" format="2">
  <advance width="664.0"/>
  <unicode hex="00FE"/>
  <outline>
    <contour>
      <point x="54.0" y="-230.0" type="line"/>
      <point x="136.0" y="-230.0" type="line"/>
      <point x="136.0" y="0.0" type="line"/>
      <point x="524.0" y="0.0" type="line" smooth="yes"/>
      <point x="574.0" y="0.0"/>
      <point x="645.0" y="71.0"/>
      <point x="645.0" y="121.0" type="qcurve" smooth="yes"/>
      <point x="645.0" y="349.0" type="line" smooth="yes"/>
      <point x="645.0" y="399.0"/>
      <point x="574.0" y="470.0"/>
      <point x="524.0" y="470.0" type="qcurve" smooth="yes"/>
      <point x="136.0" y="470.0" type="line"/>
      <point x="136.0" y="720.0" type="line"/>
      <point x="54.0" y="720.0" type="line"/>
    </contour>
    <contour>
      <point x="176.0" y="82.0" type="line" smooth="yes"/>
      <point x="159.582" y="82.0"/>
      <point x="136.0" y="105.328"/>
      <point x="136.0" y="121.0" type="qcurve" smooth="yes"/>
      <point x="136.0" y="349.0" type="line" smooth="yes"/>
      <point x="136.0" y="365.0"/>
      <point x="160.0" y="388.0"/>
      <point x="176.0" y="388.0" type="qcurve" smooth="yes"/>
      <point x="524.0" y="388.0" type="line" smooth="yes"/>
      <point x="540.0" y="388.0"/>
      <point x="563.0" y="365.0"/>
      <point x="563.0" y="349.0" type="qcurve" smooth="yes"/>
      <point x="563.0" y="121.0" type="line" smooth="yes"/>
      <point x="563.0" y="105.328"/>
      <point x="539.672" y="82.0"/>
      <point x="524.0" y="82.0" type="qcurve" smooth="yes"/>
    </contour>
  </outline>
</glyph>
<glyph name="ydieresis" format="2">
  <advance width="688.0"/>
  <unicode hex="00FF"/>
  <outline>
    <contour>
      <point x="149.0" y="-230.0" type="line"/>
      <point x="511.0" y="-230.0" type="line" smooth="yes"/>
      <point x="561.746" y="-230.0"/>
      <point x="632.0" y="-158.746"/>
      <point x="632.0" y="-108.0" type="qcurve" smooth="yes"/>
      <point x="632.0" y="578.0" type="line"/>
      <point x="550.0" y="578.0" type="line"/>
      <point x="550.0" y="121.0" type="line" smooth="yes"/>
      <point x="550.0" y="105.328"/>
      <point x="526.672" y="82.0"/>
      <point x="511.0" y="82.0" type="qcurve" smooth="yes"/>
      <point x="163.0" y="82.0" type="line" smooth="yes"/>
      <point x="147.328" y="82.0"/>
      <point x="124.0" y="105.328"/>
      <point x="124.0" y="121.0" type="qcurve" smooth="yes"/>
      <point x="124.0" y="578.0" type="line"/>
      <point x="42.0" y="578.0" type="line"/>
      <point x="42.0" y="121.0" type="line" smooth="yes"/>
      <point x="42.0" y="71.0"/>
      <point x="113.0" y="0.0"/>
      <point x="163.0" y="0.0" type="qcurve" smooth="yes"/>
      <point x="550.0" y="0.0" type="line"/>
      <point x="550.0" y="-108.0" type="line" smooth="yes"/>
      <point x="550.0" y="-123.672"/>
      <point x="526.672" y="-147.0"/>
      <point x="511.0" y="-147.0" type="qcurve" smooth="yes"/>
      <point x="149.0" y="-147.0" type="line"/>
    </contour>
    <contour>
      <point x="205.0" y="765.0" type="line"/>
      <point x="288.0" y="765.0" type="line"/>
      <point x="288.0" y="847.0" type="line"/>
      <point x="205.0" y="847.0" type="line"/>
    </contour>
    <contour>
      <point x="385.0" y="765.0" type="line"/>
      <point x="467.0" y="765.0" type="line"/>
      <point x="467.0" y="847.0" type="line"/>
      <point x="385.0" y="847.0" type="line"/>
    </contour>
  </outline>
</glyph>
<glyph name="dotlessi" format="2">
  <advance width="214.0"/>
  <unicode hex="0131"/>
  <outline>
    <contour>
      <point x="52.0" y="0.0" type="line"/>
      <point x="134.0" y="0.0" type="line"/>
      <point x="134.0" y="580.0" type="line"/>
      <point x="52.0" y="580.0" type="line"/>
    </contour>
  </outline>
</glyph>
<glyph name="OE" format="2">
  <advance width="1374.0"/>
  <unicode hex="0152"/>
  <outline>
    <contour>
      <point x="173.0" y="0.0" type="qcurve" smooth="yes"/>
      <point x="1349.0" y="0.0" type="line"/>
      <point x="1349.0" y="81.0" type="line"/>
      <point x="773.0" y="81.0" type="line"/>
      <point x="773.0" y="319.0" type="line"/>
      <point x="1236.0" y="319.0" type="line"/>
      <point x="1236.0" y="401.0" type="line"/>
      <point x="773.0" y="401.0" type="line"/>
      <point x="773.0" y="639.0" type="line"/>
      <point x="1349.0" y="639.0" type="line"/>
      <point x="1349.0" y="720.0" type="line"/>
      <point x="173.0" y="720.0" type="line" smooth="yes"/>
      <point x="123.0" y="720.0"/>
      <point x="53.0" y="650.0"/>
      <point x="53.0" y="600.0" type="qcurve" smooth="yes"/>
      <point x="53.0" y="120.0" type="line" smooth="yes"/>
      <point x="53.0" y="70.0"/>
      <point x="123.0" y="0.0"/>
    </contour>
    <contour>
      <point x="173.0" y="81.0" type="line" smooth="yes"/>
      <point x="157.328" y="81.0"/>
      <point x="134.0" y="104.328"/>
      <point x="134.0" y="120.0" type="qcurve" smooth="yes"/>
      <point x="134.0" y="600.0" type="line" smooth="yes"/>
      <point x="134.0" y="615.672"/>
      <point x="157.328" y="639.0"/>
      <point x="173.0" y="639.0" type="qcurve" smooth="yes"/>
      <point x="653.0" y="639.0" type="line" smooth="yes"/>
      <point x="668.672" y="639.0"/>
      <point x="692.0" y="615.672"/>
      <point x="692.0" y="600.0" type="qcurve" smooth="yes"/>
      <point x="692.0" y="120.0" type="line" smooth="yes"/>
      <point x="692.0" y="104.328"/>
      <point x="668.672" y="81.0"/>
      <point x="653.0" y="81.0" type="qcurve" smooth="yes"/>
    </contour>
  </outline>
</glyph>
<glyph name="oe" format="2">
  <advance width="1177.0"/>
  <unicode hex="0153"/>
  <outline>
    <contour>
      <point x="173.0" y="0.0" type="qcurve" smooth="yes"/>
      <point x="1150.0" y="0.0" type="line"/>
      <point x="1150.0" y="82.0" type="line"/>
      <point x="681.0" y="82.0" type="line" smooth="yes"/>
      <point x="665.328" y="82.0"/>
      <point x="642.0" y="105.328"/>
      <point x="642.0" y="121.0" type="qcurve" smooth="yes"/>
      <point x="642.0" y="249.0" type="line"/>
      <point x="1150.0" y="249.0" type="line"/>
      <point x="1150.0" y="459.0" type="line" smooth="yes"/>
      <point x="1150.0" y="509.0"/>
      <point x="1079.746" y="580.0"/>
      <point x="1029.0" y="580.0" type="qcurve" smooth="yes"/>
      <point x="173.0" y="580.0" type="line" smooth="yes"/>
      <point x="122.254" y="580.0"/>
      <point x="52.0" y="509.0"/>
      <point x="52.0" y="459.0" type="qcurve" smooth="yes"/>
      <point x="52.0" y="121.0" type="line" smooth="yes"/>
      <point x="52.0" y="71.0"/>
      <point x="122.254" y="0.0"/>
    </contour>
    <contour>
      <point x="173.0" y="82.0" type="line" smooth="yes"/>
      <point x="157.328" y="82.0"/>
      <point x="134.0" y="105.328"/>
      <point x="134.0" y="121.0" type="qcurve" smooth="yes"/>
      <point x="134.0" y="459.0" type="line" smooth="yes"/>
      <point x="134.0" y="474.672"/>
      <point x="157.328" y="498.0"/>
      <point x="173.0" y="498.0" type="qcurve" smooth="yes"/>
      <point x="521.0" y="498.0" type="line" smooth="yes"/>
      <point x="536.672" y="498.0"/>
      <point x="560.0" y="474.672"/>
      <point x="560.0" y="459.0" type="qcurve" smooth="yes"/>
      <point x="560.0" y="121.0" type="line" smooth="yes"/>
      <point x="560.0" y="105.328"/>
      <point x="536.672" y="82.0"/>
      <point x="521.0" y="82.0" type="qcurve" smooth="yes"/>
    </contour>
    <contour>
      <point x="642.0" y="331.0" type="line"/>
      <point x="642.0" y="459.0" type="line" smooth="yes"/>
      <point x="642.0" y="474.672"/>
      <point x="665.328" y="498.0"/>
      <point x="681.0" y="498.0" type="qcurve" smooth="yes"/>
      <point x="1029.0" y="498.0" type="line" smooth="yes"/>
      <point x="1044.672" y="498.0"/>
      <point x="1068.0" y="474.672"/>
      <point x="1068.0" y="459.0" type="qcurve" smooth="yes"/>
      <point x="1068.0" y="331.0" type="line"/>
    </contour>
  </outline>
</glyph>
<glyph name="scaron" format="2">
  <advance width="687.0"/>
  <unicode hex="0161"/>
  <outline>
    <contour>
      <point x="169.0" y="0.0" type="qcurve" smooth="yes"/>
      <point x="517.0" y="0.0" type="line" smooth="yes"/>
      <point x="567.746" y="0.0"/>
      <point x="639.0" y="71.0"/>
      <point x="639.0" y="121.0" type="qcurve" smooth="yes"/>
      <point x="639.0" y="210.0" type="line" smooth="yes"/>
      <point x="639.0" y="260.0"/>
      <point x="567.746" y="331.0"/>
      <point x="517.0" y="331.0" type="qcurve" smooth="yes"/>
      <point x="169.0" y="331.0" type="line" smooth="yes"/>
      <point x="153.328" y="331.0"/>
      <point x="130.0" y="354.328"/>
      <point x="130.0" y="370.0" type="qcurve" smooth="yes"/>
      <point x="130.0" y="459.0" type="line" smooth="yes"/>
      <point x="130.0" y="474.672"/>
      <point x="153.328" y="498.0"/>
      <point x="169.0" y="498.0" type="qcurve" smooth="yes"/>
      <point x="517.0" y="498.0" type="line" smooth="yes"/>
      <point x="532.672" y="498.0"/>
      <point x="556.0" y="474.672"/>
      <point x="556.0" y="459.0" type="qcurve" smooth="yes"/>
      <point x="556.0" y="451.0" type="line"/>
      <point x="639.0" y="451.0" type="line"/>
      <point x="639.0" y="459.0" type="line" smooth="yes"/>
      <point x="639.0" y="509.0"/>
      <point x="567.746" y="580.0"/>
      <point x="517.0" y="580.0" type="qcurve" smooth="yes"/>
      <point x="169.0" y="580.0" type="line" smooth="yes"/>
      <point x="119.0" y="580.0"/>
      <point x="48.0" y="509.0"/>
      <point x="48.0" y="459.0" type="qcurve" smooth="yes"/>
      <point x="48.0" y="370.0" type="line" smooth="yes"/>
      <point x="48.0" y="320.0"/>
      <point x="119.0" y="249.0"/>
      <point x="169.0" y="249.0" type="qcurve" smooth="yes"/>
      <point x="517.0" y="249.0" type="line" smooth="yes"/>
      <point x="532.672" y="249.0"/>
      <point x="556.0" y="225.672"/>
      <point x="556.0" y="210.0" type="qcurve" smooth="yes"/>
      <point x="556.0" y="121.0" type="line" smooth="yes"/>
      <point x="556.0" y="105.328"/>
      <point x="532.672" y="82.0"/>
      <point x="517.0" y="82.0" type="qcurve" smooth="yes"/>
      <point x="169.0" y="82.0" type="line" smooth="yes"/>
      <point x="153.328" y="82.0"/>
      <point x="130.0" y="105.328"/>
      <point x="130.0" y="121.0" type="qcurve" smooth="yes"/>
      <point x="130.0" y="129.0" type="line"/>
      <point x="48.0" y="129.0" type="line"/>
      <point x="48.0" y="121.0" type="line" smooth="yes"/>
      <point x="48.0" y="71.0"/>
      <point x="119.0" y="0.0"/>
    </contour>
    <contour>
      <point x="293.0" y="763.0" type="line"/>
      <point x="352.0" y="763.0" type="line"/>
      <point x="422.0" y="880.0" type="line"/>
      <point x="381.0" y="880.0" type="line"/>
      <point x="323.0" y="795.0" type="line"/>
      <point x="263.0" y="880.0" type="line"/>
      <point x="221.0" y="880.0" type="line"/>
    </contour>
  </outline>
</glyph>
<glyph name="Ydieresis" format="2">
  <advance width="806.0"/>
  <unicode hex="0178"/>
  <outline>
    <contour>
      <point x="348.0" y="0.0" type="line"/>
      <point x="429.0" y="0.0" type="line"/>
      <point x="429.0" y="271.0" type="line"/>
      <point x="760.0" y="720.0" type="line"/>
      <point x="665.0" y="720.0" type="line"/>
      <point x="389.0" y="348.0" type="line"/>
      <point x="110.0" y="720.0" type="line"/>
      <point x="17.0" y="720.0" type="line"/>
      <point x="348.0" y="271.0" type="line"/>
    </contour>
    <contour>
      <point x="264.0" y="865.0" type="line"/>
      <point x="347.0" y="865.0" type="line"/>
      <point x="347.0" y="947.0" type="line"/>
      <point x="264.0" y="947.0" type="line"/>
    </contour>
    <contour>
      <point x="444.0" y="865.0" type="line"/>
      <point x="526.0" y="865.0" type="line"/>
      <point x="526.0" y="947.0" type="line"/>
      <point x="444.0" y="947.0" type="line"/>
    </contour>
  </outline>
</glyph>
<glyph name="Zcaron" format="2">
  <advance width="821.0"/>
  <unicode hex="017D"/>
  <outline>
    <contour>
      <point x="51.0" y="639.0" type="line"/>
      <point x="679.0" y="639.0" type="line"/>
      <point x="51.0" y="111.0" type="line"/>
      <point x="51.0" y="0.0" type="line"/>
      <point x="771.0" y="0.0" type="line"/>
      <point x="771.0" y="81.0" type="line"/>
      <point x="143.0" y="81.0" type="line"/>
      <point x="771.0" y="609.0" type="line"/>
      <point x="771.0" y="720.0" type="line"/>
      <point x="51.0" y="720.0" type="line"/>
    </contour>
    <contour>
      <point x="288.0" y="981.0" type="line"/>
      <point x="360.0" y="864.0" type="line"/>
      <point x="419.0" y="864.0" type="line"/>
      <point x="489.0" y="981.0" type="line"/>
      <point x="448.0" y="981.0" type="line"/>
      <point x="390.0" y="896.0" type="line"/>
      <point x="330.0" y="981.0" type="line"/>
    </contour>
  </outline>
</glyph>
<glyph name="zcaron" format="2">
  <advance width="698.0"/>
  <unicode hex="017E"/>
  <outline>
    <contour>
      <point x="54.0" y="498.0" type="line"/>
      <point x="555.0" y="498.0" type="line"/>
      <point x="54.0" y="112.0" type="line"/>
      <point x="54.0" y="0.0" type="line"/>
      <point x="645.0" y="0.0" type="line"/>
      <point x="645.0" y="82.0" type="line"/>
      <point x="144.0" y="82.0" type="line"/>
      <point x="645.0" y="468.0" type="line"/>
      <point x="645.0" y="580.0" type="line"/>
      <point x="54.0" y="580.0" type="line"/>
    </contour>
    <contour>
      <point x="227.0" y="883.0" type="line"/>
      <point x="299.0" y="766.0" type="line"/>
      <point x="358.0" y="766.0" type="line"/>
      <point x="428.0" y="883.0" type="line"/>
      <point x="387.0" y="883.0" type="line"/>
      <point x="329.0" y="798.0" type="line"/>
      <point x="269.0" y="883.0" type="line"/>
    </contour>
  </outline>
</glyph>
<glyph name="circumflex" format="2">
  <advance width="300.0"/>
  <unicode hex="02C6"/>
  <outline>
    <contour>
      <point x="69.0" y="871.0" type="line"/>
      <point x="129.0" y="956.0" type="line"/>
      <point x="187.0" y="871.0" type="line"/>
      <point x="229.0" y="871.0" type="line"/>
      <point x="158.0" y="988.0" type="line"/>
      <point x="99.0" y="988.0" type="line"/>
      <point x="28.0" y="871.0" type="line"/>
    </contour>
  </outline>
</glyph>
<glyph name="caron" format="2">
  <advance width="297.0"/>
  <unicode hex="02C7"/>
  <outline>
    <contour>
      <point x="27.0" y="988.0" type="line"/>
      <point x="99.0" y="871.0" type="line"/>
      <point x="158.0" y="871.0" type="line"/>
      <point x="228.0" y="988.0" type="line"/>
      <point x="187.0" y="988.0" type="line"/>
      <point x="129.0" y="903.0" type="line"/>
      <point x="69.0" y="988.0" type="line"/>
    </contour>
  </outline>
</glyph>
<glyph name="breve" format="2">
  <advance width="287.0"/>
  <unicode hex="02D8"/>
  <outline>
    <contour>
      <point x="105.0" y="872.0" type="qcurve" smooth="yes"/>
      <point x="160.0" y="872.0" type="line" smooth="yes"/>
      <point x="192.836" y="872.0"/>
      <point x="224.254" y="914.373"/>
      <point x="225.0" y="939.0" type="qcurve"/>
      <point x="194.0" y="939.0" type="line"/>
      <point x="194.0" y="920.313"/>
      <point x="184.94" y="905.0"/>
      <point x="173.0" y="905.0" type="qcurve" smooth="yes"/>
      <point x="93.0" y="905.0" type="line" smooth="yes"/>
      <point x="79.567" y="905.0"/>
      <point x="72.0" y="923.328"/>
      <point x="72.0" y="939.0" type="qcurve"/>
      <point x="40.0" y="939.0" type="line"/>
      <point x="40.746" y="914.373"/>
      <point x="72.91" y="872.0"/>
    </contour>
  </outline>
</glyph>
<glyph name="dotaccent" format="2">
  <advance width="233.0"/>
  <unicode hex="02D9"/>
  <outline>
    <contour>
      <point x="86.0" y="989.0" type="line" smooth="yes"/>
      <point x="68.836" y="989.0"/>
      <point x="45.0" y="965.418"/>
      <point x="45.0" y="949.0" type="qcurve" smooth="yes"/>
      <point x="45.0" y="913.0" type="line" smooth="yes"/>
      <point x="45.0" y="896.582"/>
      <point x="68.836" y="873.0"/>
      <point x="86.0" y="873.0" type="qcurve" smooth="yes"/>
      <point x="124.0" y="873.0" type="line" smooth="yes"/>
      <point x="141.164" y="873.0"/>
      <point x="165.0" y="896.582"/>
      <point x="165.0" y="913.0" type="qcurve" smooth="yes"/>
      <point x="165.0" y="949.0" type="line" smooth="yes"/>
      <point x="165.0" y="965.418"/>
      <point x="141.164" y="989.0"/>
      <point x="124.0" y="989.0" type="qcurve" smooth="yes"/>
    </contour>
  </outline>
</glyph>
<glyph name="ring" format="2">
  <advance width="233.0"/>
  <unicode hex="02DA"/>
  <outline>
    <contour>
      <point x="89.0" y="828.0" type="qcurve" smooth="yes"/>
      <point x="145.0" y="828.0" type="line" smooth="yes"/>
      <point x="167.388" y="828.0"/>
      <point x="199.0" y="859.358"/>
      <point x="199.0" y="881.0" type="qcurve" smooth="yes"/>
      <point x="199.0" y="935.0" type="line" smooth="yes"/>
      <point x="199.0" y="956.642"/>
      <point x="167.388" y="988.0"/>
      <point x="145.0" y="988.0" type="qcurve" smooth="yes"/>
      <point x="89.0" y="988.0" type="line" smooth="yes"/>
      <point x="66.612" y="988.0"/>
      <point x="35.0" y="956.642"/>
      <point x="35.0" y="935.0" type="qcurve" smooth="yes"/>
      <point x="35.0" y="881.0" type="line" smooth="yes"/>
      <point x="35.0" y="859.358"/>
      <point x="66.612" y="828.0"/>
    </contour>
    <contour>
      <point x="84.0" y="868.0" type="line" smooth="yes"/>
      <point x="80.269" y="868.0"/>
      <point x="75.0" y="873.522"/>
      <point x="75.0" y="878.0" type="qcurve" smooth="yes"/>
      <point x="75.0" y="938.0" type="line" smooth="yes"/>
      <point x="75.0" y="942.478"/>
      <point x="80.269" y="948.0"/>
      <point x="84.0" y="948.0" type="qcurve" smooth="yes"/>
      <point x="150.0" y="948.0" type="line" smooth="yes"/>
      <point x="153.731" y="948.0"/>
      <point x="159.0" y="942.478"/>
      <point x="159.0" y="938.0" type="qcurve" smooth="yes"/>
      <point x="159.0" y="878.0" type="line" smooth="yes"/>
      <point x="159.0" y="873.522"/>
      <point x="153.731" y="868.0"/>
      <point x="150.0" y="868.0" type="qcurve" smooth="yes"/>
    </contour>
  </outline>
</glyph>
<glyph name="hungarumlaut" format="2">
  <advance width="500.0"/>
  <unicode hex="02DD"/>
  <outline>
    <contour>
      <point x="396.0" y="1054.0" type="line"/>
      <point x="314.0" y="1054.0" type="line"/>
      <point x="234.0" y="872.0" type="line"/>
      <point x="316.0" y="872.0" type="line"/>
    </contour>
    <contour>
      <point x="217.0" y="1054.0" type="line"/>
      <point x="134.0" y="1054.0" type="line"/>
      <point x="54.0" y="872.0" type="line"/>
      <point x="137.0" y="872.0" type="line"/>
    </contour>
  </outline>
</glyph>
<glyph name="gravecomb" format="2">
  <unicode hex="0300"/>
  <outline>
    <contour>
      <point x="303.0" y="1011.0" type="line"/>
      <point x="222.0" y="1011.0" type="line"/>
      <point x="257.0" y="872.0" type="line"/>
      <point x="337.0" y="872.0" type="line"/>
    </contour>
  </outline>
</glyph>
<glyph name="acutecomb" format="2">
  <unicode hex="0301"/>
  <anchor x="0.0" y="580.0" name="_top"/>
  <outline>
    <contour>
      <point x="0.0" y="720.0" type="line"/>
      <point x="80.0" y="720.0" type="line"/>
      <point x="114.0" y="859.0" type="line"/>
      <point x="35.0" y="859.0" type="line"/>
    </contour>
  </outline>
</glyph>
<glyph name="circumflexcomb" format="2">
  <unicode hex="0302"/>
  <anchor x="1.0" y="580.0" name="top"/>
  <outline>
    <contour>
      <point x="-58.0" y="720.0" type="line"/>
      <point x="2.0" y="805.0" type="line"/>
      <point x="60.0" y="720.0" type="line"/>
      <point x="122.0" y="720.0" type="line"/>
      <point x="41.0" y="837.0" type="line"/>
      <point x="-38.0" y="837.0" type="line"/>
      <point x="-119.0" y="720.0" type="line"/>
    </contour>
  </outline>
</glyph>
<glyph name="tildecomb" format="2">
  <unicode hex="0303"/>
  <outline>
    <contour>
      <point x="296.0" y="876.0" type="qcurve" smooth="yes"/>
      <point x="313.91" y="876.0"/>
      <point x="347.821" y="884.776"/>
      <point x="362.0" y="890.0" type="qcurve"/>
      <point x="362.0" y="941.0" type="line"/>
      <point x="346.328" y="933.537"/>
      <point x="313.164" y="924.0"/>
      <point x="296.0" y="924.0" type="qcurve" smooth="yes"/>
      <point x="240.0" y="931.0"/>
      <point x="137.0" y="996.0"/>
      <point x="85.0" y="996.0" type="qcurve" smooth="yes"/>
      <point x="67.09" y="996.0"/>
      <point x="36.433" y="991.478"/>
      <point x="23.0" y="987.0" type="qcurve"/>
      <point x="23.0" y="940.0" type="line"/>
      <point x="37.925" y="945.224"/>
      <point x="73.06" y="948.0"/>
      <point x="85.0" y="948.0" type="qcurve" smooth="yes"/>
      <point x="146.194" y="948.0"/>
      <point x="242.269" y="876.0"/>
    </contour>
  </outline>
</glyph>
<glyph name="dotaccentcomb" format="2">
  <unicode hex="0307"/>
  <outline>
    <contour>
      <point x="54.0" y="300.0" type="line"/>
      <point x="136.0" y="300.0" type="line"/>
      <point x="136.0" y="382.0" type="line"/>
      <point x="54.0" y="382.0" type="line"/>
    </contour>
  </outline>
</glyph>
<glyph name="dieresiscomb" format="2">
  <unicode hex="0308"/>
  <outline>
    <contour>
      <point x="316.0" y="954.0" type="line"/>
      <point x="234.0" y="954.0" type="line"/>
      <point x="234.0" y="872.0" type="line"/>
      <point x="316.0" y="872.0" type="line"/>
    </contour>
    <contour>
      <point x="137.0" y="954.0" type="line"/>
      <point x="54.0" y="954.0" type="line"/>
      <point x="54.0" y="872.0" type="line"/>
      <point x="137.0" y="872.0" type="line"/>
    </contour>
  </outline>
</glyph>
<glyph name="cedillacomb" format="2">
  <unicode hex="0327"/>
  <outline>
    <contour>
      <point x="254.0" y="0.0" type="line"/>
      <point x="254.0" y="-268.0" type="line"/>
      <point x="379.0" y="-268.0" type="line"/>
      <point x="379.0" y="0.0" type="line"/>
    </contour>
  </outline>
</glyph>
<glyph name="mu" format="2">
  <advance width="695.0"/>
  <unicode hex="03BC"/>
  <outline>
    <contour>
      <point x="48.0" y="-250.0" type="line"/>
      <point x="130.0" y="-250.0" type="line"/>
      <point x="130.0" y="448.0" type="line"/>
      <point x="48.0" y="448.0" type="line"/>
    </contour>
    <component base="u"/>
  </outline>
</glyph>
<glyph name="endash" format="2">
  <advance width="708.0"/>
  <unicode hex="2013"/>
  <outline>
    <contour>
      <point x="655.0" y="336.0" type="line"/>
      <point x="54.0" y="336.0" type="line"/>
      <point x="54.0" y="254.0" type="line"/>
      <point x="655.0" y="254.0" type="line"/>
    </contour>
  </outline>
</glyph>
<glyph name="emdash" format="2">
  <advance width="822.0"/>
  <unicode hex="2014"/>
  <outline>
    <contour>
      <point x="775.0" y="336.0" type="line"/>
      <point x="54.0" y="336.0" type="line"/>
      <point x="54.0" y="254.0" type="line"/>
      <point x="775.0" y="254.0" type="line"/>
    </contour>
  </outline>
</glyph>
<glyph name="quoteleft" format="2">
  <advance width="168.0"/>
  <unicode hex="2018"/>
  <outline>
    <contour>
      <point x="116.0" y="503.0" type="line"/>
      <point x="116.0" y="716.0" type="line"/>
      <point x="79.433" y="704.806"/>
      <point x="33.0" y="641.299"/>
      <point x="33.0" y="601.0" type="qcurve" smooth="yes"/>
      <point x="33.0" y="503.0" type="line"/>
    </contour>
  </outline>
</glyph>
<glyph name="quoteright" format="2">
  <advance width="166.0"/>
  <unicode hex="2019"/>
  <outline>
    <contour>
      <point x="54.0" y="721.0" type="line"/>
      <point x="54.0" y="508.0" type="line"/>
      <point x="89.821" y="519.194"/>
      <point x="136.0" y="582.701"/>
      <point x="136.0" y="623.0" type="qcurve" smooth="yes"/>
      <point x="136.0" y="721.0" type="line"/>
    </contour>
  </outline>
</glyph>
<glyph name="quotedblleft" format="2">
  <advance width="363.0"/>
  <unicode hex="201C"/>
  <outline>
    <contour>
      <point x="130.0" y="502.0" type="line"/>
      <point x="130.0" y="715.0" type="line"/>
      <point x="93.433" y="703.806"/>
      <point x="47.0" y="640.299"/>
      <point x="47.0" y="600.0" type="qcurve" smooth="yes"/>
      <point x="47.0" y="502.0" type="line"/>
    </contour>
    <contour>
      <point x="310.0" y="502.0" type="line"/>
      <point x="310.0" y="715.0" type="line"/>
      <point x="273.433" y="703.806"/>
      <point x="228.0" y="640.299"/>
      <point x="228.0" y="600.0" type="qcurve" smooth="yes"/>
      <point x="228.0" y="502.0" type="line"/>
    </contour>
  </outline>
</glyph>
<glyph name="quotedblright" format="2">
  <advance width="363.0"/>
  <unicode hex="201D"/>
  <outline>
    <contour>
      <point x="235.0" y="721.0" type="line"/>
      <point x="235.0" y="508.0" type="line"/>
      <point x="270.821" y="519.194"/>
      <point x="317.0" y="582.701"/>
      <point x="317.0" y="623.0" type="qcurve" smooth="yes"/>
      <point x="317.0" y="721.0" type="line"/>
    </contour>
    <contour>
      <point x="54.0" y="721.0" type="line"/>
      <point x="54.0" y="508.0" type="line"/>
      <point x="90.567" y="519.194"/>
      <point x="137.0" y="582.701"/>
      <point x="137.0" y="623.0" type="qcurve" smooth="yes"/>
      <point x="137.0" y="721.0" type="line"/>
    </contour>
  </outline>
</glyph>
